<?xml version="1.0" encoding="UTF-8"?>
<svg id="_レイヤー_2" data-name="レイヤー 2" xmlns="http://www.w3.org/2000/svg" xmlns:xlink="http://www.w3.org/1999/xlink" viewBox="0 0 528.64 324.12">
  <defs>
    <style>
      .cls-1 {
        clip-path: url(#clippath);
      }

      .cls-2 {
        fill: none;
      }

      .cls-2, .cls-3, .cls-4, .cls-5 {
        stroke-width: 0px;
      }

      .cls-3 {
        fill: #404040;
      }

      .cls-6 {
        clip-path: url(#clippath-1);
      }

      .cls-7 {
        clip-path: url(#clippath-3);
      }

      .cls-8 {
        clip-path: url(#clippath-2);
      }

      .cls-4 {
        fill: #f68074;
      }

      .cls-5 {
        fill: #f78175;
      }
    </style>
    <clipPath id="clippath">
      <rect class="cls-2" width="147.12" height="159.92"/>
    </clipPath>
    <clipPath id="clippath-1">
      <rect class="cls-2" x="381.51" width="147.12" height="159.92"/>
    </clipPath>
    <clipPath id="clippath-2">
      <polygon class="cls-2" points="0 249.85 0 249.85 191.02 249.85 191.02 324.12 0 324.12 0 249.85"/>
    </clipPath>
    <clipPath id="clippath-3">
      <polygon class="cls-2" points="527.11 249.85 527.11 249.85 336.08 249.85 336.08 324.12 527.11 324.12 527.11 249.85"/>
    </clipPath>
  </defs>
  <g id="Layer_1" data-name="Layer 1">
    <g>
      <g id="_リピートミラー_" data-name="&amp;lt;リピートミラー&amp;gt;">
        <g class="cls-1">
          <path class="cls-3" d="M6.84,36.16c.6-6.89.52-13.46,1.94-19.69C12.23,1.24,29.43-4.76,42.23,4.17c26.11,18.22,52.34,36.26,78.52,54.39,5.99,4.15,11.97,8.32,17.89,12.57,12.32,8.84,11,29.29-2.55,35.92-30.44,14.89-60.97,29.59-91.55,44.2-6.54,3.13-13.25,6.19-20.21,8.1C13.07,162.45-.25,152.39,0,140.77c.32-14.56,1.72-29.1,2.67-43.65.33-4.96.76-9.91,1.1-14.87,1.03-15.21,2.05-30.41,3.07-46.09Z"/>
        </g>
      </g>
      <g id="_リピートミラー_-2" data-name="&amp;lt;リピートミラー&amp;gt;">
        <g class="cls-6">
          <path class="cls-3" d="M521.79,36.16c-.6-6.89-.52-13.46-1.94-19.69-3.45-15.23-20.65-21.23-33.45-12.3-26.11,18.22-52.34,36.26-78.52,54.39-5.99,4.15-11.97,8.32-17.89,12.57-12.32,8.84-11,29.29,2.55,35.92,30.44,14.89,60.97,29.59,91.55,44.2,6.54,3.13,13.25,6.19,20.21,8.1,11.26,3.1,24.58-6.97,24.33-18.59-.32-14.56-1.72-29.1-2.67-43.65-.33-4.96-.76-9.91-1.1-14.87-1.03-15.21-2.05-30.41-3.07-46.09Z"/>
        </g>
      </g>
    </g>
    <g>
      <g id="_リピートミラー_-3" data-name="&amp;lt;リピートミラー&amp;gt;">
        <g class="cls-8">
          <path class="cls-5" d="M145.26,294.11H.56v-10.74h190.46v10.74h-45.76Z"/>
          <path class="cls-5" d="M80.07,263.11c-17.01-.67-33.55-1.22-50.08-2.05-9.7-.48-19.38-1.4-29.87-2.18.4-2.86.78-5.64,1.25-9.03,10.1.75,19.93,1.47,29.76,2.19.66.05,1.33.04,2,.06,10.43.33,20.87.55,31.29,1.03,19.8.91,39.59,1.96,59.39,2.99,12.2.63,24.41,1.26,36.61,2.01,9.7.59,19.39,1.37,29.47,2.09v9.06c-4.69-.38-9.51-.92-14.35-1.14-16.69-.74-33.4-1.3-50.09-2.06-12.04-.55-24.06-1.27-36.09-1.99-2.94-.18-5.86-.64-9.27-.98Z"/>
          <path class="cls-5" d="M161.3,306.11c9.72-.42,18.96-.84,28.59-1.27v8.78c-5.7.49-11.56,1.18-17.43,1.45-10.58.48-21.18.59-31.75,1.07-19.78.91-39.55,1.96-59.32,2.99-12.02.63-24.04,1.35-36.06,1.98-13.52.71-27.04,1.34-40.56,2.05-.94.05-1.86.52-3.37.96-.47-3.19-.94-6.29-1.4-9.45,7.78-.55,14.82-1.19,21.88-1.52,10.08-.47,20.18-.6,30.27-1.06,19.95-.92,39.9-1.97,59.84-2.99,12.52-.64,25.04-1.3,37.55-2.01,3.77-.21,7.52-.65,11.77-.98Z"/>
        </g>
      </g>
      <g id="_リピートミラー_-4" data-name="&amp;lt;リピートミラー&amp;gt;">
        <g class="cls-7">
          <path class="cls-5" d="M381.85,294.11h144.7v-10.74h-190.46v10.74h45.76Z"/>
          <path class="cls-5" d="M447.04,263.11c17.01-.67,33.55-1.22,50.08-2.05,9.7-.48,19.38-1.4,29.87-2.18-.4-2.86-.78-5.64-1.25-9.03-10.1.75-19.93,1.47-29.76,2.19-.66.05-1.33.04-2,.06-10.43.33-20.87.55-31.29,1.03-19.8.91-39.59,1.96-59.39,2.99-12.2.63-24.41,1.26-36.61,2.01-9.7.59-19.39,1.37-29.47,2.09v9.06c4.69-.38,9.51-.92,14.35-1.14,16.69-.74,33.4-1.3,50.09-2.06,12.04-.55,24.06-1.27,36.09-1.99,2.94-.18,5.86-.64,9.27-.98Z"/>
          <path class="cls-5" d="M365.8,306.11c-9.72-.42-18.96-.84-28.59-1.27v8.78c5.7.49,11.56,1.18,17.43,1.45,10.58.48,21.18.59,31.75,1.07,19.78.91,39.55,1.96,59.32,2.99,12.02.63,24.04,1.35,36.06,1.98,13.52.71,27.04,1.34,40.56,2.05.94.05,1.86.52,3.37.96.47-3.19.94-6.29,1.4-9.45-7.78-.55-14.82-1.19-21.88-1.52-10.08-.47-20.18-.6-30.27-1.06-19.95-.92-39.9-1.97-59.84-2.99-12.52-.64-25.04-1.3-37.55-2.01-3.77-.21-7.52-.65-11.77-.98Z"/>
        </g>
      </g>
    </g>
    <path class="cls-4" d="M263.65,296.35c-6.67-.16-10.55-3.63-10.79-9.29-.19-4.39,4.44-9.32,9.12-9.71,5.17-.43,10.28,3.86,10.77,9.03.42,4.36-3.62,8.99-9.1,9.96Z"/>
  </g>
</svg>