<?xml version="1.0" encoding="UTF-8"?>
<svg id="_レイヤー_2" data-name="レイヤー 2" xmlns="http://www.w3.org/2000/svg" viewBox="0 0 592.67 835.93">
  <defs>
    <style>
      .cls-1 {
        fill: #030303;
      }

      .cls-1, .cls-2, .cls-3, .cls-4, .cls-5, .cls-6, .cls-7 {
        stroke-width: 0px;
      }

      .cls-2 {
        fill: #4d4d4d;
      }

      .cls-3 {
        fill: #4f4f4f;
      }

      .cls-4 {
        fill: #020202;
      }

      .cls-5 {
        fill: #000;
      }

      .cls-6 {
        fill: #fbfbfb;
      }

      .cls-7 {
        fill: #4e4e4e;
      }
    </style>
  </defs>
  <g id="Layer_1" data-name="Layer 1">
    <path class="cls-5" d="M57.34,177.63c-6.89-12.75-13.53-25.64-20.76-38.19-3.64-6.32-8.27-12.09-12.64-17.96-1.28-1.72-3.11-3.07-4.83-4.39-3.43-2.64-7.17-2.71-10.66-.3-2.35,1.62-4.32,3.79-6.44,5.74-.62.57-1.17,1.23-1.88,1.71C0,105.44,0,86.79.21,67.91c5.66-.24,11.13-.38,16.58-.23,11.67.33,23.15,2.21,34.43,5.05,8.92,2.24,17.7,5.04,26.53,7.68,4.8,1.43,9.45-.77,10.47-5.1.63-2.68-.61-4.85-1.81-7.07.03-.03.09-.1.28-.09,3.9,1.16,6.64-.15,8.98-3.12,2.42-3.06,4.95-6.08,7.73-8.81,8.31-8.16,16.56-16.4,25.24-24.16,5.75-5.14,12.13-9.58,18.34-14.18,1.81-1.34,4.02-2.15,6.16-3.27.37.89.6,1.23.64,1.59.89,6.63,2.21,13.24,2.53,19.9.37,7.87.13,15.8-.31,23.68-.53,9.42-1.28,18.84-2.43,28.2-.97,7.88-2.28,15.77-6.42,22.84-.58.99-.82,2.41-.67,3.56.57,4.24,3.16,6.2,8.1,6.41-.54,1.21-.76,2.38.43,3.71-.17.63-.34,1-.61,1.24-2.85,2.55-3.42,5.63-1.68,9.05,1.45,2.85,2.95,5.69,4.25,8.61,6.21,13.98,9.89,28.57,10.26,43.9.25,10.43-1.59,20.63-3.46,30.85-1.68,9.18-3,18.44-4.48,27.66-22.99-6.22-45.31-14.11-66.13-26.43.15-.6.39-1.03.75-1.25,7.02-4.18,11.28-10.46,13.48-18.16,1.42-4.94,1.93-9.9-.66-14.78-6.86-12.92-23.19-19.41-37.42-14.29-4.24,1.53-7.98,4.44-11.95,6.72Z"/>
    <path class="cls-2" d="M154.73,120.74c-5.09-.16-7.69-2.12-8.26-6.36-.15-1.15.09-2.57.67-3.56,4.14-7.06,5.46-14.95,6.42-22.84,1.15-9.36,1.91-18.78,2.43-28.2.44-7.88.68-15.8.31-23.68-.32-6.66-1.63-13.27-2.53-19.9-.05-.37-.28-.71-.64-1.59-2.14,1.11-4.35,1.92-6.16,3.27-6.21,4.6-12.59,9.04-18.34,14.18-8.68,7.76-16.93,16-25.24,24.16-2.78,2.73-5.31,5.75-7.73,8.81-2.34,2.97-5.08,4.28-9.04,3.02-.43-.12-.61-.14-.79-.15.18.13.36.25.55.38,1.23,2.18,2.47,4.35,1.84,7.03-1.02,4.33-5.67,6.53-10.47,5.1-8.82-2.63-17.6-5.43-26.53-7.68-11.28-2.84-22.76-4.72-34.43-5.05-5.45-.15-10.92-.01-16.58.01C0,62.99,0,58.29,0,53.36c5.85-.32,11.73-.74,17.56-.45,22.4,1.14,44.09,5.83,65.13,13.59.4.15.85.15,1.4.24-2.9-5.36-2.7-7.43,1.29-11.89,14.49-16.16,29.59-31.69,47.21-44.52,6.01-4.38,12.26-8.41,19.71-9.99,5.76-1.23,10.14.8,12.94,5.98,2.77,5.13,3.74,10.78,4.26,16.46,2.38,26.1,1.22,52.05-4.22,77.71-1.17,5.51-3.58,10.76-5.58,16.07-.81,2.15-2.58,3.48-4.98,4.16Z"/>
    <path class="cls-3" d="M0,564.06c.52.27,1.17.68,1.53,1.27,7.2,11.76,15.91,22.13,27.87,29.31,11,6.6,22.73,11.45,35.46,13.6,1.15.19,2.34.22,3.48.47,4.08.91,6.56,4.56,5.87,8.56-.59,3.46-4.19,5.92-8.12,5.54-13.36-1.31-25.62-6.03-37.46-12.1-11.01-5.65-20.49-13.18-28.5-22.82C0,579.97,0,572.13,0,564.06Z"/>
    <path class="cls-7" d="M0,819.18c5.38-.25,10.78.08,16.12-.39,6.8-.6,13.38-2.41,19.41-5.78,1.29-.72,2.51-1.58,3.72-2.44,3.35-2.4,7.79-1.88,10.06,1.21,2.42,3.29,1.86,7.74-1.43,10.26-6.7,5.13-14.35,8.33-22.55,9.95-5.5,1.08-11.14,1.54-16.74,1.98-2.69.21-5.44-.27-8.38-.44C0,828.82,0,824.11,0,819.18Z"/>
    <path class="cls-1" d="M0,254.92c3.33-1.74,6.67-3.24,9.99-4.79,5.12-2.38,10.25-2.43,15.4-.13,4.13,1.85,8.24,3.74,12.36,5.6,4.14,1.87,8.46,2.68,13.01,2.19,3.06-.33,5.43,1.52,5.65,4.27.22,2.79-1.7,4.95-4.81,5.25-5.7.55-11.25-.13-16.52-2.41-4.51-1.95-8.97-4-13.43-6.07-2.49-1.16-4.91-1.23-7.43-.06-4.6,2.12-9.24,4.17-14.03,6.26C0,261.73,0,258.43,0,254.92Z"/>
    <path class="cls-4" d="M0,226.25c6.5-4.54,13.79-4.8,21.2-4.21,4,.32,7.89,1.18,11.29,3.48,3.77,2.56,4.08,5.11.37,7.7-4.14,2.88-8.56,5.45-13.13,7.56-1.8.83-4.67.73-6.49-.13-4.49-2.1-8.66-4.89-13.09-7.48C0,230.88,0,228.68,0,226.25Z"/>
    <path class="cls-5" d="M582.89,149.05c.74,3.43,1.49,6.87,2.06,10.51-5.13.41-7.78,3.17-7.56,8.17.22,5.07.93,10.13.91,15.19-.03,7.73-.56,15.45-.79,23.18-.22,7.74-.32,15.48-.5,23.22-.3,13.37-.54,26.74-.96,40.1-.36,11.72-.87,23.43-1.42,35.14-.37,7.88-.8,15.76-1.41,23.62-1.01,13.07-2.07,26.14-3.32,39.19-.96,10.01-1.96,20.04-3.44,29.98-2.21,14.8-4.64,29.57-7.39,44.28-4.76,25.48-11.07,50.6-18.2,75.51-6.9,24.11-14.64,47.96-23.46,71.44-7.35,19.55-15.1,38.93-25.55,57.08-2.32,4.03-4.99,7.85-7.83,12.3-.3-1.09-.48-1.44-.48-1.78-.16-12.6-1.63-25.09-3.91-37.45-1.83-9.88-4.15-19.68-6.5-29.45-1.04-4.31-5.06-6.31-9.13-5.09-3.62,1.09-5.7,5.1-4.79,9.03,1.77,7.67,3.61,15.34,5.17,23.05,3.15,15.57,4.72,31.35,4.81,47.21.05,9.1-.76,18.26-1.84,27.31-1.12,9.32-3.52,18.41-7.52,26.97-7.54,16.13-18.33,29.98-30.51,42.79-16.04,16.88-34.04,31.36-54.27,42.93-5.82,3.33-12.02,5.98-18.04,8.95-20.84-10.71-38.19-25.48-51.31-44.94-8.7-12.91-12.43-27.54-14.51-42.85-2.63-19.31,2.21-37.19,8.74-54.95,6.22-16.91,12.52-33.8,18.27-50.86,4.01-11.89,6.24-24.22,5.96-36.87-.19-8.45-1.8-16.6-5.42-24.3-5.4-11.47-13.94-15.89-26.49-13.83-12.7,2.08-24.33,7.25-35.99,12.32-16.81,7.31-33.42,15.11-50.97,20.59-14.94,4.67-30.11,7.72-45.89,6.99-20.4-.95-38.13-8.45-53.39-21.81-22.67-19.84-36.78-44.74-41.53-74.42-9.62-60.03,9.84-109.67,55.46-149.17,17.97-15.56,36.75-30.19,55.2-45.2,2.36-1.92,4.93-3.58,7.71-5.42.73.12,1.2.23,1.57.49,11.17,7.69,23.53,12.99,36.15,17.69,17.86,6.65,35.83,13.04,53.65,19.8,14.49,5.5,28.41,12.28,41.78,20.15,17.43,10.26,32.85,23.12,47.52,36.89,13.31,12.49,25.5,26.03,36.56,40.58,17.92,23.59,32.3,49.1,41.94,77.17,4.49,13.09,7.85,26.47,9.5,40.25.41,3.46,3.16,5.91,6.39,6.18,3.5.29,6.77-1.54,7.52-5.02.53-2.49.12-5.22-.12-7.82-.22-2.44-1.08-4.87,1.63-6.61.64-.41.99-1.39,1.31-2.18,2.62-6.44,5.39-12.83,7.76-19.36,7.27-20.08,12.79-40.67,17.26-61.52,4.9-22.87,9.46-45.83,13.72-68.83,3.63-19.62,7.04-39.31,9.79-59.07,2.17-15.67,3.43-31.49,4.64-47.27.87-11.45,1.13-22.95,1.43-34.43.32-12.51.35-25.04.54-37.56.09-5.47.15-10.95.46-16.41.54-9.58,1.06-19.18,1.99-28.73.72-7.32,2.3-14.51,5.87-21.08,5.19-9.53,14.76-13.19,23.66-8.81,8.84,4.35,14.05,11.7,16.44,21.12.8,3.15,2.32,5.6,5.65,6.11,1.76.27,3.64-.24,5.46-.4Z"/>
    <path class="cls-2" d="M356.9,812.56c6.12-3.09,12.32-5.75,18.14-9.08,20.23-11.57,38.23-26.05,54.27-42.93,12.17-12.81,22.97-26.66,30.51-42.79,4-8.56,6.4-17.66,7.52-26.97,1.09-9.05,1.89-18.21,1.84-27.31-.09-15.86-1.65-31.64-4.81-47.21-1.56-7.72-3.4-15.38-5.17-23.05-.91-3.93,1.17-7.95,4.79-9.03,4.07-1.22,8.09.78,9.13,5.09,2.35,9.77,4.68,19.57,6.5,29.45,2.28,12.36,3.75,24.85,3.91,37.45,0,.35.18.69.48,1.78,2.84-4.45,5.51-8.27,7.83-12.3,10.45-18.15,18.21-37.53,25.55-57.08,8.82-23.48,16.56-47.33,23.46-71.44,7.13-24.91,13.44-50.03,18.2-75.51,2.75-14.71,5.18-29.48,7.39-44.28,1.49-9.94,2.48-19.97,3.44-29.98,1.25-13.05,2.31-26.12,3.32-39.19.61-7.86,1.04-15.74,1.41-23.62.55-11.71,1.06-23.42,1.42-35.14.41-13.37.65-26.74.96-40.1.17-7.74.27-15.48.5-23.22.22-7.73.75-15.46.79-23.18.02-5.06-.69-10.12-.91-15.19-.22-5,2.43-7.76,7.6-7.97,4.7,1.28,6.09,2.97,6.61,7.5,1.68,14.53,1.11,29.07.13,43.61-.13,1.95-.16,3.91-.21,5.87-.82,29.58-1.11,59.18-2.6,88.73-1.26,24.99-3.38,49.97-6.07,74.86-5.91,54.72-18.41,108.06-34.24,160.72-9.38,31.23-20.24,61.86-33.66,91.57-6.09,13.49-12.92,26.6-22.41,38.09-2.68,3.25-5.83,6.09-8.6,9.27-.66.76-.81,2.1-.92,3.2-1.73,18.1-5.72,35.59-15.65,51.07-5.68,8.86-11.9,17.48-18.73,25.49-18.67,21.89-40.33,40.41-64.99,55.3-11.68,7.05-23.84,13.31-37.38,15.75-7.96,1.43-16.17,1.9-24.27,2.01-13.3.19-26.61-.27-39.92-.43-9.32-.11-18.63-.09-27.95-.27-14.95-.28-29.88-.95-44.62-3.76-6.25-1.19-12.28-3.03-17.73-6.46-10.98-6.9-15.11-16.99-14.01-29.62,1.13-12.94,8.47-21.51,19.3-27.59,10.17-5.71,21.23-8.64,32.76-9.89,4.06-.44,7.61,2.51,7.94,6.31.37,4.28-2.31,7.49-6.72,8.05-8.27,1.06-16.28,3.08-23.8,6.71-2.72,1.32-5.34,2.96-7.76,4.79-6.58,4.98-8.2,11.97-7.16,19.7.68,5.05,4.03,8.32,8.41,10.61,5.51,2.88,11.51,4.16,17.57,4.65,13.95,1.12,27.93,2.3,41.91,2.6,22.69.47,45.4.15,68.1.38,9.97.1,19.39-1.95,28.57-6Z"/>
    <path class="cls-2" d="M582.94,148.88c-1.88.32-3.76.84-5.51.57-3.33-.51-4.86-2.97-5.65-6.11-2.38-9.42-7.6-16.77-16.44-21.12-8.89-4.38-18.47-.72-23.66,8.81-3.58,6.57-5.16,13.76-5.87,21.08-.94,9.55-1.45,19.15-1.99,28.73-.31,5.46-.37,10.94-.46,16.41-.2,12.52-.22,25.04-.54,37.56-.29,11.48-.55,22.98-1.43,34.43-1.21,15.79-2.46,31.6-4.64,47.27-2.74,19.76-6.15,39.45-9.79,59.07-4.26,23-8.82,45.95-13.72,68.83-4.47,20.85-9.99,41.44-17.26,61.52-2.37,6.53-5.14,12.92-7.76,19.36-.32.79-.67,1.77-1.31,2.18-2.72,1.74-1.85,4.17-1.63,6.61.24,2.6.65,5.33.12,7.82-.75,3.48-4.01,5.31-7.52,5.02-3.23-.27-5.97-2.72-6.39-6.18-1.65-13.78-5-27.17-9.5-40.25-9.64-28.07-24.02-53.58-41.94-77.17-11.05-14.55-23.25-28.09-36.56-40.58-14.68-13.77-30.1-26.63-47.52-36.89-13.37-7.87-27.28-14.65-41.78-20.15-17.82-6.76-35.79-13.15-53.65-19.8-12.62-4.7-24.98-10-36.15-17.69-.37-.25-.84-.36-1.43-.56-.84-.71-1.45-1.5-2.2-2.09-10.34-8.11-17.83-18.13-20.72-31.16-.59-2.64-.52-5.43-.77-8.36,1.47-9.43,2.78-18.69,4.47-27.87,1.87-10.21,3.72-20.42,3.46-30.85-.37-15.33-4.05-29.93-10.26-43.9-1.3-2.92-2.8-5.75-4.25-8.61-1.73-3.43-1.17-6.5,1.68-9.05.27-.24.44-.61.68-1.09.61-.15,1.22-.04,1.79-.13,3.98-.61,6.43.46,8.45,3.96,5.88,10.23,9.93,21.18,12.8,32.61,4.6,18.35,4.04,36.73.69,55.18-1.59,8.76-3.04,17.56-4.53,26.34-1.7,10.05,2.26,18.23,8.63,25.52,5.59,6.41,12.66,10.89,20.13,14.77,13.43,6.97,27.7,11.85,41.91,16.88,21.43,7.59,42.78,15.35,63.15,25.56,24.3,12.18,45.54,28.55,65.23,47.07,33.31,31.31,59.95,67.34,77.32,109.85,3.1,7.58,5.55,15.42,8.29,23.15.21.58.39,1.17.81,2.48,2.25-6.52,4.4-12.38,6.31-18.31,7.93-24.74,13.79-50,18.78-75.46,5.05-25.77,10.01-51.56,14.34-77.46,2.78-16.64,4.67-33.46,6.35-50.26,2.8-28.07,2.99-56.26,3.43-84.44.23-15.1.88-30.2,1.88-45.27.72-10.86,2.67-21.58,7.57-31.5,6.44-13.02,18.82-20.24,32.76-18.96,6.57.6,12.33,3.39,17.43,7.47,8.04,6.44,13.5,14.63,16.55,24.5,1.24,4,1.12,7.52-2.2,10.66Z"/>
    <path class="cls-3" d="M88.37,815.66c17.3,7.34,34.51,8.72,51.54.01,7.48-3.82,13.06-9.68,15.27-18.11,1.42-5.43.39-10.74-1.31-15.91-1.14-3.48-2.49-6.91-4-10.24-2.11-4.69-2.82-9.66-2.71-14.65.32-14.23.56-28.49,1.57-42.68,1.02-14.27,2.66-28.51,4.53-42.69,1.22-9.28,3.26-18.45,5.1-27.63.65-3.26,2.98-5.05,6.32-5.36,4.87-.45,8.76,3.85,7.5,8.59-4.9,18.55-6.62,37.56-8.18,56.56-1.37,16.68-1.97,33.42-2.9,50.13-.29,5.23.93,10.12,2.64,15.08,2.2,6.39,4.33,12.95,5.28,19.6,1.99,13.9-3.79,25.08-14.11,33.98-12.97,11.18-28.35,14.66-45.07,13.33-9.91-.79-19.42-3.12-28.3-7.72-5.23-2.71-9.65-6.35-12.72-11.48-2.59-4.32-3.12-8.96-1.97-13.79.8-3.34,4.54-5.68,7.96-5.15,3.36.52,6.61,3.81,5.99,7-1,5.17,2.02,7.62,5.58,9.99.58.39,1.21.72,1.98,1.14Z"/>
    <path class="cls-7" d="M60.16,663.92c-1.33-7.83-2.62-15.46-3.96-23.08-.69-3.96,1.49-7.32,5.44-8.26,3.82-.9,7.56,1,8.35,4.88,1.77,8.72,3.49,17.48,4.67,26.3,4.95,37.14,4.04,74.5,3.86,111.82,0,1.57.01,3.13-.06,4.7-.18,3.8-2.83,6.56-6.46,6.78-3.69.22-7.11-2.54-7.64-6.19-.11-.77-.1-1.56-.1-2.34-.14-23.72.13-47.44-.55-71.14-.42-14.44-2.3-28.83-3.54-43.46Z"/>
    <path class="cls-7" d="M57.29,177.78c4.02-2.43,7.76-5.35,12.01-6.87,14.23-5.12,30.55,1.37,37.42,14.29,2.59,4.88,2.08,9.84.66,14.78-2.21,7.7-6.47,13.97-13.48,18.16-.37.22-.6.65-.88,1.16-.86.31-1.77.33-2.61.6-11.23,3.56-22.07,2.37-31.86-3.96-12.03-7.78-13.2-25.33-2.92-36.31.53-.57,1.08-1.13,1.67-1.84M92.58,190.68c.42,6.07-.46,11.86-3.76,17.1-5.64,8.94-15.37,8.98-21,.01-3.47-5.51-4.65-11.67-3.62-18.01.67-4.12,2.29-8.08,3.45-12.03-4.98,2.47-9.24,6.18-11.7,11.68-3.88,8.67-.39,18.82,8.04,23.08,6.54,3.31,13.65,4.32,20.77,2.94,9.47-1.83,14.63-8.54,17.08-17.4.74-2.69,1.26-6.03.34-8.49-2.57-6.85-8-11.02-15.26-13.46,3.69,5.15,5.09,8.73,5.67,14.57Z"/>
    <path class="cls-5" d="M86.39,68.23c-.21-.09-.39-.22-.58-.34.18.01.35.02.59.14.07.1,0,.17-.02.2Z"/>
    <path class="cls-6" d="M92.57,190.46c-.56-5.62-1.97-9.2-5.66-14.35,7.26,2.44,12.69,6.61,15.26,13.46.92,2.46.41,5.8-.34,8.49-2.45,8.86-7.61,15.56-17.08,17.4-7.12,1.38-14.23.37-20.77-2.94-8.43-4.26-11.91-14.41-8.04-23.08,2.46-5.5,6.72-9.21,11.7-11.68-1.17,3.95-2.78,7.91-3.45,12.03-1.04,6.34.15,12.5,3.62,18.01,5.64,8.96,15.37,8.93,21-.01,3.3-5.24,4.18-11.03,3.75-17.32Z"/>
  </g>
</svg>