<?xml version="1.0" encoding="UTF-8"?><svg id="_オブジェクト" xmlns="http://www.w3.org/2000/svg" xmlns:xlink="http://www.w3.org/1999/xlink" viewBox="0 0 152 152.4"><defs><clipPath id="clippath"><path d="M75.9.3c0,0,.2,0,.2,0,0,.1.1.3.3.4,3.2,2.7,6.4,5.4,9.7,8,.3.2,1,.3,1.4.1,3.6-1.4,7.2-2.8,10.8-4.3,1-.4,1.4-.2,2,.7,2,3.2,4.1,6.4,6,9.6.4.7.8,1,1.6.9,1.9-.2,3.8-.3,5.7-.4,2.3-.1,4.7-.3,7-.4,1.1,4.2,2.1,8.2,3.1,12.3.2.8.6,1.2,1.4,1.4,3.7.9,7.4,1.9,11.2,2.8.9.2,1.2.5,1.1,1.4-.3,3.8-.5,7.6-.8,11.4,0,.9.2,1.5,1,2,3.2,2,6.4,4.1,9.7,6,.8.5.9,1,.6,1.8-1.5,3.6-2.9,7.2-4.3,10.8-.3.7-.2,1.2.3,1.7,1.2,1.4,2.3,2.8,3.5,4.1,1.6,1.9,3.2,3.7,4.7,5.5v.5c-.1,0-.3.1-.4.2-2.7,3.2-5.3,6.4-7.9,9.6-.2.3-.3,1-.1,1.4,1.2,3.2,2.6,6.5,3.8,9.7.3.8.6,1.5.9,2.3-3.6,2.3-7.1,4.5-10.6,6.7-.8.5-1,1-1,1.9.3,3.8.5,7.7.8,11.5,0,.9-.2,1.2-1,1.4-3.6.9-7.2,1.9-10.8,2.7-1.1.3-1.6.7-1.9,1.9-.9,4-2,7.9-3,11.9-.5,0-.9,0-1.4,0-3.7-.2-7.5-.4-11.2-.7-.9,0-1.4.2-1.9,1-2,3.2-4,6.4-6,9.5-.2.4-.5.7-.7,1.1-4-1.6-8-3.2-11.9-4.8-.7-.3-1.1-.2-1.7.3-3,2.5-6,5-9,7.5-.6.5-1,.6-1.7,0-2.9-2.5-5.9-4.9-8.8-7.4-.7-.6-1.2-.7-2.1-.3-3.9,1.6-7.8,3.1-11.7,4.7-2.1-3.4-4.3-6.6-6.3-10-.7-1.2-1.5-2-3-1.6-.8.2-1.7.1-2.5.2-3.1.2-6.2.4-9.4.6-.1-.4-.2-.7-.3-1-1-3.8-1.9-7.6-2.9-11.4-.2-.7-.5-1.2-1.3-1.3-1.4-.3-2.8-.7-4.2-1-2.7-.7-5.5-1.4-8.2-2.1.2-4,.4-7.9.8-11.7.2-1.7-.4-2.5-1.7-3.3-3.3-2-6.6-4.1-9.9-6.2,1.6-4,3.2-8,4.8-12,.3-.6.2-1.1-.2-1.6-1.6-1.9-3.2-3.9-4.8-5.8-1.1-1.4-2.3-2.7-3.4-4.1,2.7-3.3,5.4-6.5,8.1-9.7.6-.7.7-1.2.4-2-1.1-2.5-2.1-5.1-3.1-7.7-.5-1.4-1.1-2.7-1.6-4.1,3.7-2.3,7.3-4.6,10.8-6.9.4-.3.8-.8.8-1.3,0-1.4-.2-2.8-.3-4.2-.2-2.9-.4-5.9-.6-8.9,4.2-1.1,8.3-2.1,12.4-3.1.8-.2,1.1-.6,1.3-1.3.4-1.6.8-3.2,1.2-4.8.6-2.5,1.3-5,1.9-7.5.5,0,.9,0,1.3,0,3.7.2,7.5.5,11.2.7.9,0,1.4-.2,1.9-1,2-3.3,4.1-6.5,6.1-9.8.5-.7.8-.8,1.6-.5,3.7,1.5,7.3,3,11,4.4.4.1,1,.1,1.3,0,3.4-2.8,6.8-5.6,10.1-8.4Z" style="fill:none; stroke-width:0px;"/></clipPath><linearGradient id="_名称未設定グラデーション_85" x1="76.7" y1="62.2" x2="76.7" y2="91.1" gradientUnits="userSpaceOnUse"><stop offset="0" stop-color="#fff"/><stop offset="1" stop-color="#e29200"/></linearGradient></defs><polygon points="152 76.2 143.2 86.8 148.3 99.7 136.6 107.1 137.5 120.9 124.1 124.3 120.7 137.7 106.9 136.8 99.5 148.5 86.6 143.4 76 152.2 65.4 143.4 52.5 148.5 45.1 136.8 31.3 137.7 27.9 124.3 14.5 120.9 15.4 107.1 3.7 99.7 8.8 86.8 0 76.2 8.8 65.5 3.7 52.7 15.4 45.3 14.5 31.5 27.9 28.1 31.3 14.7 45.1 15.6 52.5 3.9 65.4 9 76 .2 86.6 9 99.5 3.9 106.9 15.6 120.7 14.7 124.1 28.1 137.5 31.5 136.6 45.3 148.3 52.7 143.2 65.5 152 76.2" style="fill:red; stroke-width:0px;"/><g style="clip-path:url(#clippath);"><polygon points="76 76.4 76 76.4 76 76.4 76 76.4" style="fill:#ff3939; stroke-width:0px;"/><path d="M152.3,96.9c1.7-6.5,2.7-13.4,2.7-20.5h-79l76.3,20.5Z" style="fill:#ff3939; stroke-width:0px;"/><path d="M76,76.4l76.3-20.4c-1.8-6.8-4.5-13.1-7.9-19.1l-68.4,39.5h0Z" style="fill:#ff3939; stroke-width:0px;"/><path d="M-.3,96.9c1.8,6.8,4.5,13.1,7.9,19.1l68.4-39.5L-.3,96.9Z" style="fill:#ff3939; stroke-width:0px;"/><path d="M76,76.4l-55.9,55.9c4.9,4.9,10.4,9.1,16.4,12.6l39.5-68.4h0Z" style="fill:#ff3939; stroke-width:0px;"/><path d="M76,76.4l20.5,76.3c6.8-1.8,13.1-4.5,19.1-7.9l-39.5-68.4h0Z" style="fill:#ff3939; stroke-width:0px;"/><path d="M131.9,132.3c4.9-4.9,9.1-10.4,12.6-16.4l-68.4-39.5,55.9,55.9Z" style="fill:#ff3939; stroke-width:0px;"/><path d="M76,76.4l-20.5,76.3c6.5,1.7,13.4,2.7,20.5,2.7v-79h0Z" style="fill:#ff3939; stroke-width:0px;"/><path d="M76,76.4L96.5.1c-6.5-1.7-13.4-2.7-20.5-2.7v79h0Z" style="fill:#ff3939; stroke-width:0px;"/><path d="M76,76.4l55.9-55.9c-4.9-4.9-10.4-9.1-16.4-12.6l-39.5,68.4h0Z" style="fill:#ff3939; stroke-width:0px;"/><path d="M76,76.4L55.6.1c-6.8,1.8-13.1,4.5-19.1,7.9l39.5,68.4h0Z" style="fill:#ff3939; stroke-width:0px;"/><path d="M76,76.4h0L20.1,20.6c-4.9,4.9-9.1,10.4-12.6,16.4l68.4,39.5h0Z" style="fill:#ff3939; stroke-width:0px;"/><path d="M76,76.4L-.3,56c-1.7,6.5-2.7,13.4-2.7,20.5h79Z" style="fill:#ff3939; stroke-width:0px;"/></g><rect x="72" y="54.3" width="34" height="11" style="stroke-width:0px;"/><path d="M46.6,45.9l1.9-.6h.2c0,0,1.2-.4,1.2-.4h0s1.1-.2,1.1-.2c.3,0,.7,0,1.1,0,1.8,0,2.6.8,2.6,1.4s-.5.6-.6.6c-.1,0-.6,0-.7,0h0c.5.4,1.1.8,1.1,1.7s-.2,1-.5,1.7c.5.2.9.4.9,1.2s0,.7-.4.9c-.1,0-.2,0-.6,0,0,0,.3.3.4.4,0,0,.4.5.4,1.1s0,1-.3,1.4c-.4.6-.8,1-1.5,1s-.5,0-1.1-.3c-.2,0-.2-.1-.9-.6-.2.2-.4.3-.8.3s-1.3,0-1.8-1.4c-.2-.6-.2-.7-.3-1.3-.2,0-.3,0-.7.2,0,0-.3,0-.3,0,0,0,0,0,0,0,0,0,.2.5.4.7.4.4.6.7.6.8,0,.1,0,.2,0,.4,0,.3,0,.4-.1.5-.1.1-.3.2-.5.2-.5,0-.7-.1-.8-.2-.2-.1-.5-.4-.6-.5l-.5-1v-.5c-.1,0-.1-.2-.1-.2,0-.2,0-.2,0-.3h0c-.1,0-.1,0-.4-.1-.2,0-.6-.2-.8-.2-.5-.2-.7-.4-.8-.6-.3-.3-.4-.5-.4-.9,0-.6.5-.9.8-1.2,0,0-.3-.2-.3-.2-.4-.4-.5-.4-.5-.6s0-.2,0-.3c.1,0,.5-.2.7-.2.3-.1.8-.4.9-.4.2,0,.2,0,.2-.1,0,0-.2,0-.3,0-.3,0-.9-.4-1-.5,0,0-.4-.4-.5-.4,0,0,0-.1-.2-.4,0,0,0-.1,0-.2,0-.6.4-.9.6-1.1.1-.1.2-.2.7-.5,0,0,0,0,0,0-.2-.1-.3-.2-.3-.4s.4-.7,1.5-.7,1.4,0,1.7.6c0,0,.1.3.1.3s0,.4-.5.5l-1.3.4-.7.2c-.6.2-.6.3-.8.4,0,0,0,0,0,.1,0,0,.2.1.3.1s.5,0,.9-.2l1.4-.5ZM43.8,53.2c.4,0,.7.2.8.4.4.6.4.7.9,1.5,0,0,0,.1,0,.3,0,.6-.5.8-.7.8s-.7-.1-.7-.1c0,0-.5-.3-.5-.3-.5-.5-.7-1.4-.7-1.6,0-.4.1-1,.7-1ZM44.7,50.5c-.3,0-.7.5-.7.8s.5.3.8.3.6,0,.6,0c-.1-.2-.6-.8-.7-1ZM46.4,50.1l.8.9c0,0,.3,0,.4-.1,0,0,0,0,.1,0,0,0-.1-.1-.5-.6-.3-.3-.4-.5-.5-.5s-.5.1-.6.1l.3.2ZM48.5,47.5c.1,0,.8,0,.9,0,.2,0,.4,0,.5,0,.2-.4.2-.4.6-.8h-.2c-.1,0-.6.1-.7.1l-1.8.6h-.1s-1,.4-1,.4h0c0,0,0,0,0,0l2-.4ZM49.3,49.9s.2.1.3.1,0-.1,0-.1c0,0,0-.6-.1-.7,0,0,0,0,0,0-.1,0-.6.1-.8.2.3.1.3.2.6.5ZM49.8,52.5c-.3,0-.3,0-.4,0,0,0,.3.3.5.7,0,.1,0,.1.2.2,0,0,.3-.5.3-.6.1-.2.2-.2.3-.4,0,0,0,0,0-.1-.2,0-.6,0-1,.1ZM51.8,49.9v-.2c0,0,.4-1,.4-1,0-.1.5-.8.5-.9s0-.1-.1-.2c-.3-.2-.4-.2-.7-.2s-.3.5-.3.6v1c-.2.5-.2.6-.2.9h0c.2,0,.3,0,.5,0h0ZM51.9,54.2c.2,0,.3,0,.4-.4,0-.2.2-.6.2-.7,0-.2-.2-.4-.3-.4s-.2.1-.4.3c0,.1-.4.9-.5,1.1.1,0,.4,0,.5,0Z" style="fill:none; stroke:#000; stroke-linecap:round; stroke-linejoin:round; stroke-width:6px;"/><path d="M60.5,46.5c.6.4.7.4.9,1l1.2-.3s0,0,0,0v-.4s.3-1.3.3-1.3c0,0-.3-.3-.4-.3,0,0-.2-.2-.2-.4,0-.3.4-.5.7-.5.7,0,1.1.3,1.4.6.3.4.6.7.6,1.3s0,.5,0,.5c.1,0,.2,0,.4,0s.3,0,.4,0c0-.1,0-.2,0-.4s0-.2-.3-.5c-.2-.3-.3-.6-.3-.9s0-.5.4-.5.6.2,1,.5c.3.3.6,1,.7,1.6,0,0,0,.5,0,.6.4.3.9.7.9,1.4s-.1.5-.3.7c-.2.2-.5.2-.6.2s-.4,0-.5-.1c-.2.2-.2.2-.2.3s.3.5.3.5c0,.2.2.4.2.9s0,.5,0,.5c0,0,.2.4.2.4.4.7,1,1.9,1,2.6s-.1.6-.2.8c-.1.2-.5.5-1,.5s-1.3-.2-1.9-.8c-.3.2-.9.7-1.8.7s-1,0-2-.9c-.2.5-.4.7-.5.8-.3.2-.7.3-.9.3-.4,0-.6-.1-.8-.2-.2-.1-.5-.3-.8-.6l-.6-.7s-.6-.5-.6-.5c-.5-.3-.7-.4-.9-.8-.2-.3-.2-.6-.2-.7,0-.4.3-.5.6-.6l1-.2c.2,0,1.1-.3,1.4-.4,0-.1,0-.6,0-.7-.3,0-.5,0-.7,0-.6,0-1.2-.2-1.7-.8-.7-.8-.7-1.6-.7-1.8,0-.4,0-.8.6-1.2.7-.6,1.5-1.1,2-1.4,0-.1-.1-.2-.1-.4s0-.4.4-.5c.2,0,.7-.3,1.2-.3s.9,0,1.5.4c.5.3.6.5.6.9s0,.5-.6.6l-1.1.3ZM58.9,47.4c0,0,0-.1-.1-.2-.5.2-1.5.8-1.5.9,0,0,0,0,0,0s0,.5.8.5.7-.2.8-.2c.2,0,.4-.1.5-.1,0-.2,0-.2,0-.4,0,0-.4-.4-.4-.5ZM59.2,54.1s0,0,0-.2,0-.5,0-.6c-.2,0-.4,0-.8.1,0,0,.7.6.8.6ZM63.7,53c-.2-.4-.5-1.2-.7-1.5-.5.8-.7.9-1.5,1.4,0,.2,0,.5,0,.9.7,0,1.7-.2,2.1-.8ZM61.5,50.6c.2,0,.3,0,.7-.2.1,0,.2,0,.4-.2,0-.2,0-.3,0-.5,0,0-.5.1-.6.2-.2,0-.2,0-.4.1,0,.1,0,.6,0,.7ZM65.7,50.5c.2-.2.2-.2.2-.3-.4-.5-.4-.5-.5-1-.2,0-.2,0-.5,0,0,.9,0,1.4.3,1.9,0-.1.4-.6.5-.7ZM67.1,53.4c0,0,.1,0,.1-.2s-.1-.5-.2-.7c0,.1-.2.5-.3.6.1.1.3.2.4.2Z" style="fill:none; stroke:#000; stroke-linecap:round; stroke-linejoin:round; stroke-width:6px;"/><path d="M75.1,52.9h0s0,0,0,0l-.6.9c-.3.5-.8,1-1.6,1s-1.5-.8-1.7-1.2c0,0-.1-.4-.1-.4-.4-.6-.5-.7-.6-1.1-.1-.3-.2-.7-.2-1.1s.2-1.5.4-1.9c.7-1.8,2.8-3.8,5.5-3.8s5.4,1.7,5.4,5.3-1.1,4.6-3.5,4.6-2-.7-2.2-1.1l-.5-.8-.2-.3ZM72.5,51.9c.6-.8,1.5-2.2,1.5-2.4s-.2-.6-.2-.7c0-.4.4-.8.7-.8s1,.3,1.2.7c.1.2.1.2.4.5.1.2.2.5.2.8,0,.5-.1.8-.6,1.5,0,0-.2.5-.2.6s0,0,.3.3c.3.2.8.3,1.1.3,1.9,0,1.9-2.4,1.9-2.7,0-2-1.5-3.2-3-3.2s-3.9,1.6-3.9,3.9.2,1.4.4,1.4,0,0,.1-.1Z" style="fill:none; stroke:#000; stroke-linecap:round; stroke-linejoin:round; stroke-width:6px;"/><path d="M90.4,56.1c-.1,0-.8,0-1,0-.7,0-1.5-.2-1.8-.5s-.3-.5-.3-.7,0-.2.2-.4c0,0,.1,0,.2,0,0,0,.2,0,.2,0l.9-.3c.8-.3,1.2-.3,1.2-.4.2,0,.2-.3.3-.5,0,0-.2,0-.2,0-.3,0-.4,0-.6.2l-1.1.4s-.5,0-.6,0c-.2-.1-.5-.5-.6-.8,0-.1,0-.2,0-.7v-1.3s-.2,0-.2,0-.3,0-.3,0c0,.2,0,.8,0,.9v1.9c.1.4.1.5.1.7,0,.7-.1.8-.2,1-.1.2-.3.4-.7.4s-.9,0-1-.5c0,0-.1-.4-.1-.6v-1.1c0,0-.4,0-.4,0-.9-.4-1-1-1-1.5s0-.4.1-.5l1.1-1.5c.2-.2.2-.3.3-.4v-.2c-.2,0-.4,0-.7,0-.8-.2-.9-.7-.9-1s0-.2.4-.5c.3-.2.8-1,.9-1.1.3-.4.4-.5.4-.6,0-.1,0-.1,0-.2,0,0,0-.2,0-.4,0,0-.4-.1-.4-.2-.3-.2-.4-.3-.4-.5,0-.5.4-.9,1.1-.9s.7,0,1.1.3c.2.1.3.2.6.7.4.1.4.2.7.4,0,0,.2-.2.3-.2s.2,0,.3,0,1-.5,1.2-.5c1.3-.5,1.9-.8,2.7-.8s1.5,0,2.4.8c.2.2.5.6.5,1s-.9,1-1,1c-1,.4-1.1.5-2,.9,0,0-.1,0-.1,0,0,0,.6.5.7.6.5-.6.7-.8,1.1-.8s.5,0,.8.2c.8.7.8,1.6.8,2s0,.7-.3,1.5c.3.5.5,1,.5,1.5s0,1.2-.7,1.3c.3.2.6.5.6,1.1s0,.6-.3.8c-.1.1-.3.2-.6.2s-.5,0-1-.2c-.4-.1-.8-.2-1.2-.2s-.5,0-.6,0l-1.2.3ZM90.8,51c0-.1,0-.5,0-.6,0-.7,0-1.2-.7-1.3-.1,0-.8,0-.9,0-.2,0-1-.2-1.2-.3-.3-.2-.4-.4-.4-.6s0-.2,0-.2c0,0,.1,0,.7-.3l.9-.3,1.1-.5c.2-.1.3-.2.9-.4.7-.4.8-.4.9-.4,0,0,0,0,0,0,0-.2-.2-.2-.3-.2l-1.1.4s0,0-.2,0l-1,.4c-.3.1-.3.1-.6.1-.8,0-1.1-.2-1.3-.5,0,0,0,.3,0,.3,0,.3,0,.4-.2.6l-.6,1v.2c-.1.2,0,.2,0,.4.2,0,.4.3.6.5,0,0,.2.2.2.2,0,0,.3,0,.3,0l.3.2c0,0,.5-.2.6-.3.2,0,.4-.1.5-.1.4,0,.6.1,1,.5.1.1.1.6.1.7v1.1c-.1.3-.1.4-.1.4s0,0,0,0c.2.2.2.2.3.4,0,0,0,0,0-.2l.2-1.5ZM89.1,51.2h0c-.1,0-.5.2-.6.2,0,0,0,.1,0,.5v.4c0,0,0,.2,0,.4.2,0,.2,0,.5-.3v-1.2ZM92.7,51s0,1.3-.1,1.4c.1-.2.2-.4.3-.4q.1-.2.2-.4c0-.2-.2-.4-.3-.5ZM93.9,49.2c0,0,0-.5-.2-.6,0,.1-.3.6-.3.7,0,.1,0,.2-.2.4q0,0,.2.2c.2.2.2.2.2.3,0,0,.3-.8.3-.9ZM94.2,53.8c0-.2-.2-.5-.4-.8-.2.3-.3.4-.4.5.1,0,.7.2.8.2Z" style="fill:none; stroke:#000; stroke-linecap:round; stroke-linejoin:round; stroke-width:6px;"/><path d="M101.9,47.6v-.6c-.2-.2-.5-.4-.5-.8s.3-.6.8-.6.8.2,1.1.5c.3.3.3.5.5,1.1h0s.3-.2.3-.2v-1.4c0-.1,0-.1-.1-.4,0-.1-.1-.2-.1-.4,0-.6.5-.6.7-.6s.7.2.7.3c.4.3.7.8.7,1.1s0,.4,0,.4.2,0,.3,0c.9,0,1.6.8,1.8,1.1.5.6.8,1.4.8,1.7v1.1c.1.5,0,1.3-.1,1.7,0,0-.2.6-.3.7,0,0-.2.2-.2.2,0,0,0,.1.1.2.4.5.6.8.6,1.3,0,.9-1,1.9-2.9,2h-1c-.4,0-1.2-.1-1.7-.3-1.3-.5-1.8-1.6-1.8-2.7v-.9c0,0,0-.5,0-.5,0,0,0,0,0,0,0,0-.3-.1-.3-.2,0,.2,0,1.2-.1,1.3-.2,1.5-1,3.2-2.4,3.2s-2-1.4-2-2.5.7-1.3.9-1.4c0,0,.3,0,.4,0,0-.2,0-.6,0-.7s0,0-.4-.2c-.2,0-1-.6-1-1.4s.1-.4.2-.5c.2,0,.3-.1,1.1-.7,0,0,.2-.1.2-.2,0,0,0-.7,0-.8s0-.8,0-.8c0,0-.3-.1-.4-.2-.2-.2-.4-.4-.4-.6s.1-.5.3-.6c0,0,.5-.2.7-.2.8,0,2,.5,2,1.7s0,.3,0,.4c.3,0,.6.2.9.8,0,.1,0,.5,0,.6,0,.4-.1.6-.3.8,0,0-.2.4-.3.4.2,0,.3-.1.5-.3,0,0,.4-.4.4-.4v-1.4ZM98.6,53.3c0,0-.2-.3-.3-.3-.2,0-.2,0-.3,0-.2,0-.2.2-.2.2,0,.2.2.4.3.4s.4-.2.5-.2h0ZM101,50.9s-.2-.4-.2-.4c0,0,0-.3,0-.4,0,0-.3.2-.4.4,0,0,0,.8,0,.9,0,0,0,0,0,.2.3-.1.6-.6.6-.7ZM104.1,51.7v-1.3s-.6.5-.6.6v1.1c0,.8,0,1,.4,1.3.2.1.4.2,1,.2s.4,0,.6,0l.9-.2c.3,0,.8-.2.9-.5,0-.1,0-.3,0-.3-.5,0-.7,0-1.3-.8,0,.7-.1.8-.2.9-.2.2-.5.3-.8.3s-.9-.2-.9-.9v-.4ZM106.4,50.5c0-.1,0-.2.2-.5,0-.5.2-1.1.2-1.3s0-.4-.2-.4,0,0,0,0c0,0-.4.6-.4.7v1c0,.4,0,.4,0,.5h.3Z" style="fill:none; stroke:#000; stroke-linecap:round; stroke-linejoin:round; stroke-width:6px;"/><path d="M46.6,45.9l1.9-.6h.2c0,0,1.2-.4,1.2-.4h0s1.1-.2,1.1-.2c.3,0,.7,0,1.1,0,1.8,0,2.6.8,2.6,1.4s-.5.6-.6.6c-.1,0-.6,0-.7,0h0c.5.4,1.1.8,1.1,1.7s-.2,1-.5,1.7c.5.2.9.4.9,1.2s0,.7-.4.9c-.1,0-.2,0-.6,0,0,0,.3.3.4.4,0,0,.4.5.4,1.1s0,1-.3,1.4c-.4.6-.8,1-1.5,1s-.5,0-1.1-.3c-.2,0-.2-.1-.9-.6-.2.2-.4.3-.8.3s-1.3,0-1.8-1.4c-.2-.6-.2-.7-.3-1.3-.2,0-.3,0-.7.2,0,0-.3,0-.3,0,0,0,0,0,0,0,0,0,.2.5.4.7.4.4.6.7.6.8,0,.1,0,.2,0,.4,0,.3,0,.4-.1.5-.1.1-.3.2-.5.2-.5,0-.7-.1-.8-.2-.2-.1-.5-.4-.6-.5l-.5-1v-.5c-.1,0-.1-.2-.1-.2,0-.2,0-.2,0-.3h0c-.1,0-.1,0-.4-.1-.2,0-.6-.2-.8-.2-.5-.2-.7-.4-.8-.6-.3-.3-.4-.5-.4-.9,0-.6.5-.9.8-1.2,0,0-.3-.2-.3-.2-.4-.4-.5-.4-.5-.6s0-.2,0-.3c.1,0,.5-.2.7-.2.3-.1.8-.4.9-.4.2,0,.2,0,.2-.1,0,0-.2,0-.3,0-.3,0-.9-.4-1-.5,0,0-.4-.4-.5-.4,0,0,0-.1-.2-.4,0,0,0-.1,0-.2,0-.6.4-.9.6-1.1.1-.1.2-.2.7-.5,0,0,0,0,0,0-.2-.1-.3-.2-.3-.4s.4-.7,1.5-.7,1.4,0,1.7.6c0,0,.1.3.1.3s0,.4-.5.5l-1.3.4-.7.2c-.6.2-.6.3-.8.4,0,0,0,0,0,.1,0,0,.2.1.3.1s.5,0,.9-.2l1.4-.5ZM43.8,53.2c.4,0,.7.2.8.4.4.6.4.7.9,1.5,0,0,0,.1,0,.3,0,.6-.5.8-.7.8s-.7-.1-.7-.1c0,0-.5-.3-.5-.3-.5-.5-.7-1.4-.7-1.6,0-.4.1-1,.7-1ZM44.7,50.5c-.3,0-.7.5-.7.8s.5.3.8.3.6,0,.6,0c-.1-.2-.6-.8-.7-1ZM46.4,50.1l.8.9c0,0,.3,0,.4-.1,0,0,0,0,.1,0,0,0-.1-.1-.5-.6-.3-.3-.4-.5-.5-.5s-.5.1-.6.1l.3.2ZM48.5,47.5c.1,0,.8,0,.9,0,.2,0,.4,0,.5,0,.2-.4.2-.4.6-.8h-.2c-.1,0-.6.1-.7.1l-1.8.6h-.1s-1,.4-1,.4h0c0,0,0,0,0,0l2-.4ZM49.3,49.9s.2.1.3.1,0-.1,0-.1c0,0,0-.6-.1-.7,0,0,0,0,0,0-.1,0-.6.1-.8.2.3.1.3.2.6.5ZM49.8,52.5c-.3,0-.3,0-.4,0,0,0,.3.3.5.7,0,.1,0,.1.2.2,0,0,.3-.5.3-.6.1-.2.2-.2.3-.4,0,0,0,0,0-.1-.2,0-.6,0-1,.1ZM51.8,49.9v-.2c0,0,.4-1,.4-1,0-.1.5-.8.5-.9s0-.1-.1-.2c-.3-.2-.4-.2-.7-.2s-.3.5-.3.6v1c-.2.5-.2.6-.2.9h0c.2,0,.3,0,.5,0h0ZM51.9,54.2c.2,0,.3,0,.4-.4,0-.2.2-.6.2-.7,0-.2-.2-.4-.3-.4s-.2.1-.4.3c0,.1-.4.9-.5,1.1.1,0,.4,0,.5,0Z" style="fill:#fff; stroke-width:0px;"/><path d="M60.5,46.5c.6.4.7.4.9,1l1.2-.3s0,0,0,0v-.4s.3-1.3.3-1.3c0,0-.3-.3-.4-.3,0,0-.2-.2-.2-.4,0-.3.4-.5.7-.5.7,0,1.1.3,1.4.6.3.4.6.7.6,1.3s0,.5,0,.5c.1,0,.2,0,.4,0s.3,0,.4,0c0-.1,0-.2,0-.4s0-.2-.3-.5c-.2-.3-.3-.6-.3-.9s0-.5.4-.5.6.2,1,.5c.3.3.6,1,.7,1.6,0,0,0,.5,0,.6.4.3.9.7.9,1.4s-.1.5-.3.7c-.2.2-.5.2-.6.2s-.4,0-.5-.1c-.2.2-.2.2-.2.3s.3.5.3.5c0,.2.2.4.2.9s0,.5,0,.5c0,0,.2.4.2.4.4.7,1,1.9,1,2.6s-.1.6-.2.8c-.1.2-.5.5-1,.5s-1.3-.2-1.9-.8c-.3.2-.9.7-1.8.7s-1,0-2-.9c-.2.5-.4.7-.5.8-.3.2-.7.3-.9.3-.4,0-.6-.1-.8-.2-.2-.1-.5-.3-.8-.6l-.6-.7s-.6-.5-.6-.5c-.5-.3-.7-.4-.9-.8-.2-.3-.2-.6-.2-.7,0-.4.3-.5.6-.6l1-.2c.2,0,1.1-.3,1.4-.4,0-.1,0-.6,0-.7-.3,0-.5,0-.7,0-.6,0-1.2-.2-1.7-.8-.7-.8-.7-1.6-.7-1.8,0-.4,0-.8.6-1.2.7-.6,1.5-1.1,2-1.4,0-.1-.1-.2-.1-.4s0-.4.4-.5c.2,0,.7-.3,1.2-.3s.9,0,1.5.4c.5.3.6.5.6.9s0,.5-.6.6l-1.1.3ZM58.9,47.4c0,0,0-.1-.1-.2-.5.2-1.5.8-1.5.9,0,0,0,0,0,0s0,.5.8.5.7-.2.8-.2c.2,0,.4-.1.5-.1,0-.2,0-.2,0-.4,0,0-.4-.4-.4-.5ZM59.2,54.1s0,0,0-.2,0-.5,0-.6c-.2,0-.4,0-.8.1,0,0,.7.6.8.6ZM63.7,53c-.2-.4-.5-1.2-.7-1.5-.5.8-.7.9-1.5,1.4,0,.2,0,.5,0,.9.7,0,1.7-.2,2.1-.8ZM61.5,50.6c.2,0,.3,0,.7-.2.1,0,.2,0,.4-.2,0-.2,0-.3,0-.5,0,0-.5.1-.6.2-.2,0-.2,0-.4.1,0,.1,0,.6,0,.7ZM65.7,50.5c.2-.2.2-.2.2-.3-.4-.5-.4-.5-.5-1-.2,0-.2,0-.5,0,0,.9,0,1.4.3,1.9,0-.1.4-.6.5-.7ZM67.1,53.4c0,0,.1,0,.1-.2s-.1-.5-.2-.7c0,.1-.2.5-.3.6.1.1.3.2.4.2Z" style="fill:#fff; stroke-width:0px;"/><path d="M75.1,52.9h0s0,0,0,0l-.6.9c-.3.5-.8,1-1.6,1s-1.5-.8-1.7-1.2c0,0-.1-.4-.1-.4-.4-.6-.5-.7-.6-1.1-.1-.3-.2-.7-.2-1.1s.2-1.5.4-1.9c.7-1.8,2.8-3.8,5.5-3.8s5.4,1.7,5.4,5.3-1.1,4.6-3.5,4.6-2-.7-2.2-1.1l-.5-.8-.2-.3ZM72.5,51.9c.6-.8,1.5-2.2,1.5-2.4s-.2-.6-.2-.7c0-.4.4-.8.7-.8s1,.3,1.2.7c.1.2.1.2.4.5.1.2.2.5.2.8,0,.5-.1.8-.6,1.5,0,0-.2.5-.2.6s0,0,.3.3c.3.2.8.3,1.1.3,1.9,0,1.9-2.4,1.9-2.7,0-2-1.5-3.2-3-3.2s-3.9,1.6-3.9,3.9.2,1.4.4,1.4,0,0,.1-.1Z" style="fill:#fff; stroke-width:0px;"/><path d="M90.4,56.1c-.1,0-.8,0-1,0-.7,0-1.5-.2-1.8-.5s-.3-.5-.3-.7,0-.2.2-.4c0,0,.1,0,.2,0,0,0,.2,0,.2,0l.9-.3c.8-.3,1.2-.3,1.2-.4.2,0,.2-.3.3-.5,0,0-.2,0-.2,0-.3,0-.4,0-.6.2l-1.1.4s-.5,0-.6,0c-.2-.1-.5-.5-.6-.8,0-.1,0-.2,0-.7v-1.3s-.2,0-.2,0-.3,0-.3,0c0,.2,0,.8,0,.9v1.9c.1.4.1.5.1.7,0,.7-.1.8-.2,1-.1.2-.3.4-.7.4s-.9,0-1-.5c0,0-.1-.4-.1-.6v-1.1c0,0-.4,0-.4,0-.9-.4-1-1-1-1.5s0-.4.1-.5l1.1-1.5c.2-.2.2-.3.3-.4v-.2c-.2,0-.4,0-.7,0-.8-.2-.9-.7-.9-1s0-.2.4-.5c.3-.2.8-1,.9-1.1.3-.4.4-.5.4-.6,0-.1,0-.1,0-.2,0,0,0-.2,0-.4,0,0-.4-.1-.4-.2-.3-.2-.4-.3-.4-.5,0-.5.4-.9,1.1-.9s.7,0,1.1.3c.2.1.3.2.6.7.4.1.4.2.7.4,0,0,.2-.2.3-.2s.2,0,.3,0,1-.5,1.2-.5c1.3-.5,1.9-.8,2.7-.8s1.5,0,2.4.8c.2.2.5.6.5,1s-.9,1-1,1c-1,.4-1.1.5-2,.9,0,0-.1,0-.1,0,0,0,.6.5.7.6.5-.6.7-.8,1.1-.8s.5,0,.8.2c.8.7.8,1.6.8,2s0,.7-.3,1.5c.3.5.5,1,.5,1.5s0,1.2-.7,1.3c.3.2.6.5.6,1.1s0,.6-.3.8c-.1.1-.3.2-.6.2s-.5,0-1-.2c-.4-.1-.8-.2-1.2-.2s-.5,0-.6,0l-1.2.3ZM90.8,51c0-.1,0-.5,0-.6,0-.7,0-1.2-.7-1.3-.1,0-.8,0-.9,0-.2,0-1-.2-1.2-.3-.3-.2-.4-.4-.4-.6s0-.2,0-.2c0,0,.1,0,.7-.3l.9-.3,1.1-.5c.2-.1.3-.2.9-.4.7-.4.8-.4.9-.4,0,0,0,0,0,0,0-.2-.2-.2-.3-.2l-1.1.4s0,0-.2,0l-1,.4c-.3.1-.3.1-.6.1-.8,0-1.1-.2-1.3-.5,0,0,0,.3,0,.3,0,.3,0,.4-.2.6l-.6,1v.2c-.1.2,0,.2,0,.4.2,0,.4.3.6.5,0,0,.2.2.2.2,0,0,.3,0,.3,0l.3.2c0,0,.5-.2.6-.3.2,0,.4-.1.5-.1.4,0,.6.1,1,.5.1.1.1.6.1.7v1.1c-.1.3-.1.4-.1.4s0,0,0,0c.2.2.2.2.3.4,0,0,0,0,0-.2l.2-1.5ZM89.1,51.2h0c-.1,0-.5.2-.6.2,0,0,0,.1,0,.5v.4c0,0,0,.2,0,.4.2,0,.2,0,.5-.3v-1.2ZM92.7,51s0,1.3-.1,1.4c.1-.2.2-.4.3-.4q.1-.2.2-.4c0-.2-.2-.4-.3-.5ZM93.9,49.2c0,0,0-.5-.2-.6,0,.1-.3.6-.3.7,0,.1,0,.2-.2.4q0,0,.2.2c.2.2.2.2.2.3,0,0,.3-.8.3-.9ZM94.2,53.8c0-.2-.2-.5-.4-.8-.2.3-.3.4-.4.5.1,0,.7.2.8.2Z" style="fill:#fff; stroke-width:0px;"/><path d="M101.9,47.6v-.6c-.2-.2-.5-.4-.5-.8s.3-.6.8-.6.8.2,1.1.5c.3.3.3.5.5,1.1h0s.3-.2.3-.2v-1.4c0-.1,0-.1-.1-.4,0-.1-.1-.2-.1-.4,0-.6.5-.6.7-.6s.7.2.7.3c.4.3.7.8.7,1.1s0,.4,0,.4.2,0,.3,0c.9,0,1.6.8,1.8,1.1.5.6.8,1.4.8,1.7v1.1c.1.5,0,1.3-.1,1.7,0,0-.2.6-.3.7,0,0-.2.2-.2.2,0,0,0,.1.1.2.4.5.6.8.6,1.3,0,.9-1,1.9-2.9,2h-1c-.4,0-1.2-.1-1.7-.3-1.3-.5-1.8-1.6-1.8-2.7v-.9c0,0,0-.5,0-.5,0,0,0,0,0,0,0,0-.3-.1-.3-.2,0,.2,0,1.2-.1,1.3-.2,1.5-1,3.2-2.4,3.2s-2-1.4-2-2.5.7-1.3.9-1.4c0,0,.3,0,.4,0,0-.2,0-.6,0-.7s0,0-.4-.2c-.2,0-1-.6-1-1.4s.1-.4.2-.5c.2,0,.3-.1,1.1-.7,0,0,.2-.1.2-.2,0,0,0-.7,0-.8s0-.8,0-.8c0,0-.3-.1-.4-.2-.2-.2-.4-.4-.4-.6s.1-.5.3-.6c0,0,.5-.2.7-.2.8,0,2,.5,2,1.7s0,.3,0,.4c.3,0,.6.2.9.8,0,.1,0,.5,0,.6,0,.4-.1.6-.3.8,0,0-.2.4-.3.4.2,0,.3-.1.5-.3,0,0,.4-.4.4-.4v-1.4ZM98.6,53.3c0,0-.2-.3-.3-.3-.2,0-.2,0-.3,0-.2,0-.2.2-.2.2,0,.2.2.4.3.4s.4-.2.5-.2h0ZM101,50.9s-.2-.4-.2-.4c0,0,0-.3,0-.4,0,0-.3.2-.4.4,0,0,0,.8,0,.9,0,0,0,0,0,.2.3-.1.6-.6.6-.7ZM104.1,51.7v-1.3s-.6.5-.6.6v1.1c0,.8,0,1,.4,1.3.2.1.4.2,1,.2s.4,0,.6,0l.9-.2c.3,0,.8-.2.9-.5,0-.1,0-.3,0-.3-.5,0-.7,0-1.3-.8,0,.7-.1.8-.2.9-.2.2-.5.3-.8.3s-.9-.2-.9-.9v-.4ZM106.4,50.5c0-.1,0-.2.2-.5,0-.5.2-1.1.2-1.3s0-.4-.2-.4,0,0,0,0c0,0-.4.6-.4.7v1c0,.4,0,.4,0,.5h.3Z" style="fill:#fff; stroke-width:0px;"/><polygon points="98 105.3 52 105.3 43 87.3 111 87.3 98 105.3" style="stroke-width:0px;"/><path d="M40.1,72.3c2.4,0,4.3.8,5.6,2.3,1.3,1.5,2,3.7,2,6.5,0,6.6-3.3,9.8-9.9,9.8s-4.3-.3-6.2-1v-5.5c2.3.9,4.3,1.4,6,1.4,3.2,0,4.8-1.6,4.8-4.7s-1.1-3.8-3.2-3.8-1.9.5-2.8,1.5h-4.7l.7-16.1h14.4v5.3h-9.5l-.2,5.2h0c1-.5,2-.7,3.1-.7Z" style="fill:none; stroke:#000; stroke-linejoin:round; stroke-width:10px;"/><path d="M52,81.9h5.9l-3.5,9.2h-4.3l1.9-9.2Z" style="fill:none; stroke:#000; stroke-linejoin:round; stroke-width:10px;"/><path d="M63.2,65.6c1.5-2.2,3.9-3.4,7-3.4s5.5,1.1,7.1,3.4,2.3,5.9,2.3,11-.8,8.7-2.3,11-3.9,3.4-7.1,3.4-5.5-1.1-7.1-3.4c-1.5-2.2-2.3-5.9-2.3-11s.8-8.7,2.3-11ZM67.5,83.8c.6,1.4,1.5,2.1,2.8,2.1s2.3-.7,2.9-2.1c.6-1.4.9-3.8.9-7.3s-.3-5.9-.9-7.3c-.6-1.4-1.6-2.1-2.9-2.1s-2.3.7-2.9,2.1c-.6,1.4-.9,3.8-.9,7.3s.3,5.9.9,7.3Z" style="fill:none; stroke:#000; stroke-linejoin:round; stroke-width:10px;"/><path d="M84.3,65.6c1.5-2.2,3.9-3.4,7-3.4s5.5,1.1,7.1,3.4,2.3,5.9,2.3,11-.8,8.7-2.3,11-3.9,3.4-7.1,3.4-5.5-1.1-7.1-3.4c-1.5-2.2-2.3-5.9-2.3-11s.8-8.7,2.3-11ZM88.6,83.8c.6,1.4,1.5,2.1,2.8,2.1s2.3-.7,2.9-2.1c.6-1.4.9-3.8.9-7.3s-.3-5.9-.9-7.3c-.6-1.4-1.6-2.1-2.9-2.1s-2.3.7-2.9,2.1c-.6,1.4-.9,3.8-.9,7.3s.3,5.9.9,7.3Z" style="fill:none; stroke:#000; stroke-linejoin:round; stroke-width:10px;"/><path d="M105.4,65.6c1.5-2.2,3.9-3.4,7-3.4s5.5,1.1,7.1,3.4,2.3,5.9,2.3,11-.8,8.7-2.3,11-3.9,3.4-7.1,3.4-5.5-1.1-7.1-3.4c-1.5-2.2-2.3-5.9-2.3-11s.8-8.7,2.3-11ZM109.6,83.8c.6,1.4,1.5,2.1,2.8,2.1s2.3-.7,2.9-2.1c.6-1.4.9-3.8.9-7.3s-.3-5.9-.9-7.3c-.6-1.4-1.6-2.1-2.9-2.1s-2.3.7-2.9,2.1c-.6,1.4-.9,3.8-.9,7.3s.3,5.9.9,7.3Z" style="fill:none; stroke:#000; stroke-linejoin:round; stroke-width:10px;"/><path d="M40.1,72.3c2.4,0,4.3.8,5.6,2.3,1.3,1.5,2,3.7,2,6.5,0,6.6-3.3,9.8-9.9,9.8s-4.3-.3-6.2-1v-5.5c2.3.9,4.3,1.4,6,1.4,3.2,0,4.8-1.6,4.8-4.7s-1.1-3.8-3.2-3.8-1.9.5-2.8,1.5h-4.7l.7-16.1h14.4v5.3h-9.5l-.2,5.2h0c1-.5,2-.7,3.1-.7Z" style="fill:url(#_名称未設定グラデーション_85); stroke-width:0px;"/><path d="M52,81.9h5.9l-3.5,9.2h-4.3l1.9-9.2Z" style="fill:url(#_名称未設定グラデーション_85); stroke-width:0px;"/><path d="M63.2,65.6c1.5-2.2,3.9-3.4,7-3.4s5.5,1.1,7.1,3.4,2.3,5.9,2.3,11-.8,8.7-2.3,11-3.9,3.4-7.1,3.4-5.5-1.1-7.1-3.4c-1.5-2.2-2.3-5.9-2.3-11s.8-8.7,2.3-11ZM67.5,83.8c.6,1.4,1.5,2.1,2.8,2.1s2.3-.7,2.9-2.1c.6-1.4.9-3.8.9-7.3s-.3-5.9-.9-7.3c-.6-1.4-1.6-2.1-2.9-2.1s-2.3.7-2.9,2.1c-.6,1.4-.9,3.8-.9,7.3s.3,5.9.9,7.3Z" style="fill:url(#_名称未設定グラデーション_85); stroke-width:0px;"/><path d="M84.3,65.6c1.5-2.2,3.9-3.4,7-3.4s5.5,1.1,7.1,3.4,2.3,5.9,2.3,11-.8,8.7-2.3,11-3.9,3.4-7.1,3.4-5.5-1.1-7.1-3.4c-1.5-2.2-2.3-5.9-2.3-11s.8-8.7,2.3-11ZM88.6,83.8c.6,1.4,1.5,2.1,2.8,2.1s2.3-.7,2.9-2.1c.6-1.4.9-3.8.9-7.3s-.3-5.9-.9-7.3c-.6-1.4-1.6-2.1-2.9-2.1s-2.3.7-2.9,2.1c-.6,1.4-.9,3.8-.9,7.3s.3,5.9.9,7.3Z" style="fill:url(#_名称未設定グラデーション_85); stroke-width:0px;"/><path d="M105.4,65.6c1.5-2.2,3.9-3.4,7-3.4s5.5,1.1,7.1,3.4,2.3,5.9,2.3,11-.8,8.7-2.3,11-3.9,3.4-7.1,3.4-5.5-1.1-7.1-3.4c-1.5-2.2-2.3-5.9-2.3-11s.8-8.7,2.3-11ZM109.6,83.8c.6,1.4,1.5,2.1,2.8,2.1s2.3-.7,2.9-2.1c.6-1.4.9-3.8.9-7.3s-.3-5.9-.9-7.3c-.6-1.4-1.6-2.1-2.9-2.1s-2.3.7-2.9,2.1c-.6,1.4-.9,3.8-.9,7.3s.3,5.9.9,7.3Z" style="fill:url(#_名称未設定グラデーション_85); stroke-width:0px;"/><path d="M59.4,95.5c.4-.4.9-.6,1.4-.6s1,.2,1.4.6.6.9.6,1.4-.1.8-.4,1.2v2.7h-4.7v10.1h-2.7v-10.1h-4.6v-2.9h4.6v-2h2.7v2h1.3c-.2-.3-.2-.6-.2-1,0-.5.2-1,.6-1.4ZM53.9,101.9c0,2,0,3.7-.2,5s-.3,2.7-.5,4h-2.5s0-.4.2-1.2c.1-.8.3-1.8.4-3.2.2-1.3.2-2.9.3-4.7h2.4ZM59,101.9h2.4c0,1.8,0,3.3.2,4.7.1,1.3.3,2.4.4,3.2.1.8.2,1.2.2,1.2h-2.5c-.2-1.3-.4-2.6-.5-4s-.2-3-.2-5ZM61.7,96.9c0-.3,0-.5-.3-.6-.2-.2-.4-.3-.6-.3s-.5,0-.6.3c-.2.2-.3.4-.3.6s0,.5.3.6c.2.2.4.3.6.3s.5,0,.6-.3c.2-.2.3-.4.3-.6Z" style="fill:none; stroke:#000; stroke-linejoin:round; stroke-width:7px;"/><path d="M76.6,96.3c-.5,1-1.1,2-1.8,2.9-.7.9-1.4,1.7-2,2.4v9.4h-2.8v-7.3c-.9.7-1.8,1.3-2.7,1.8-.9.4-1.5.8-2,.9-.5.2-.8.3-.8.3v-2.9s.3-.1.9-.4,1.4-.7,2.3-1.2c.9-.6,1.9-1.3,2.9-2.3s1.9-2.2,2.8-3.7h3.2Z" style="fill:none; stroke:#000; stroke-linejoin:round; stroke-width:7px;"/><path d="M78.9,99.6v-2.8h5.6v2.8h-5.6ZM90.8,99.8c-.6,2.2-1.4,4-2.4,5.4s-2.1,2.4-3.1,3.2c-1.1.7-2.1,1.3-3.1,1.6-1,.3-1.8.5-2.4.5-.6,0-.9,0-.9,0v-2.9s.3,0,.7,0c.5,0,1.1-.2,1.8-.4s1.5-.6,2.4-1.2c.8-.6,1.6-1.4,2.3-2.3s1.3-2.2,1.9-3.9h2.9Z" style="fill:none; stroke:#000; stroke-linejoin:round; stroke-width:7px;"/><path d="M93.6,111v-15.1h2.8v4.8h7.5v2.8h-7.5v7.4h-2.8Z" style="fill:none; stroke:#000; stroke-linejoin:round; stroke-width:7px;"/><path d="M59.4,95.5c.4-.4.9-.6,1.4-.6s1,.2,1.4.6.6.9.6,1.4-.1.8-.4,1.2v2.7h-4.7v10.1h-2.7v-10.1h-4.6v-2.9h4.6v-2h2.7v2h1.3c-.2-.3-.2-.6-.2-1,0-.5.2-1,.6-1.4ZM53.9,101.9c0,2,0,3.7-.2,5s-.3,2.7-.5,4h-2.5s0-.4.2-1.2c.1-.8.3-1.8.4-3.2.2-1.3.2-2.9.3-4.7h2.4ZM59,101.9h2.4c0,1.8,0,3.3.2,4.7.1,1.3.3,2.4.4,3.2.1.8.2,1.2.2,1.2h-2.5c-.2-1.3-.4-2.6-.5-4s-.2-3-.2-5ZM61.7,96.9c0-.3,0-.5-.3-.6-.2-.2-.4-.3-.6-.3s-.5,0-.6.3c-.2.2-.3.4-.3.6s0,.5.3.6c.2.2.4.3.6.3s.5,0,.6-.3c.2-.2.3-.4.3-.6Z" style="fill:#fff; stroke-width:0px;"/><path d="M76.6,96.3c-.5,1-1.1,2-1.8,2.9-.7.9-1.4,1.7-2,2.4v9.4h-2.8v-7.3c-.9.7-1.8,1.3-2.7,1.8-.9.4-1.5.8-2,.9-.5.2-.8.3-.8.3v-2.9s.3-.1.9-.4,1.4-.7,2.3-1.2c.9-.6,1.9-1.3,2.9-2.3s1.9-2.2,2.8-3.7h3.2Z" style="fill:#fff; stroke-width:0px;"/><path d="M78.9,99.6v-2.8h5.6v2.8h-5.6ZM90.8,99.8c-.6,2.2-1.4,4-2.4,5.4s-2.1,2.4-3.1,3.2c-1.1.7-2.1,1.3-3.1,1.6-1,.3-1.8.5-2.4.5-.6,0-.9,0-.9,0v-2.9s.3,0,.7,0c.5,0,1.1-.2,1.8-.4s1.5-.6,2.4-1.2c.8-.6,1.6-1.4,2.3-2.3s1.3-2.2,1.9-3.9h2.9Z" style="fill:#fff; stroke-width:0px;"/><path d="M93.6,111v-15.1h2.8v4.8h7.5v2.8h-7.5v7.4h-2.8Z" style="fill:#fff; stroke-width:0px;"/><path d="M76,5.4l8.1,6.7,1.8,1.5,2.2-.9,9.8-3.9,5.6,8.9,1.3,2,2.4-.2,10.5-.7,2.6,10.2.6,2.3,2.3.6,10.2,2.6-.7,10.5-.2,2.4,2,1.3,8.9,5.6-3.9,9.8-.9,2.2,1.5,1.8,6.7,8.1-6.7,8.1-1.5,1.8.9,2.2,3.9,9.8-8.9,5.6-2,1.3.2,2.4.7,10.5-10.2,2.6-2.3.6-.6,2.3-2.6,10.2-10.5-.7-2.4-.2-1.3,2-5.6,8.9-9.8-3.9-2.2-.9-1.8,1.5-8.1,6.7-8.1-6.7-1.8-1.5-2.2.9-9.8,3.9-5.6-8.9-1.3-2-2.4.2-10.5.7-2.6-10.2-.6-2.3-2.3-.6-10.2-2.6.7-10.5.2-2.4-2-1.3-8.9-5.6,3.9-9.8.9-2.2-1.5-1.8-6.7-8.1,6.7-8.1,1.5-1.8-.9-2.2-3.9-9.8,8.9-5.6,2-1.3-.2-2.4-.7-10.5,10.2-2.6,2.3-.6.6-2.3,2.6-10.2,10.5.7,2.4.2,1.3-2,5.6-8.9,9.8,3.9,2.2.9,1.8-1.5,8.1-6.7M76,.2l-10.6,8.8-12.8-5.1-7.4,11.7-13.8-.9-3.4,13.4-13.4,3.4.9,13.8-11.7,7.4,5.1,12.8L0,76.2l8.8,10.6-5.1,12.8,11.7,7.4-.9,13.8,13.4,3.4,3.4,13.4,13.8-.9,7.4,11.7,12.8-5.1,10.6,8.8,10.6-8.8,12.8,5.1,7.4-11.7,13.8.9,3.4-13.4,13.4-3.4-.9-13.8,11.7-7.4-5.1-12.8,8.8-10.6-8.8-10.6,5.1-12.8-11.7-7.4.9-13.8-13.4-3.4-3.4-13.4-13.8.9-7.4-11.7-12.8,5.1L76,.2h0Z" style="stroke-width:0px;"/></svg>