<?xml version="1.0" encoding="UTF-8"?><svg id="_オブジェクト" xmlns="http://www.w3.org/2000/svg" xmlns:xlink="http://www.w3.org/1999/xlink" viewBox="0 0 152 152.4"><defs><style>.cls-1{clip-path:url(#clippath);}.cls-2,.cls-3,.cls-4,.cls-5,.cls-6,.cls-7{stroke-width:0px;}.cls-2,.cls-8,.cls-9,.cls-10,.cls-11{fill:none;}.cls-3{fill:url(#_名称未設定グラデーション_85);}.cls-12,.cls-9{font-family:KanteiryuStd-Ultra-83pv-RKSJ-H, 'A-OTF Kanteiryu Std';font-size:13px;letter-spacing:0em;}.cls-12,.cls-13{fill:#fff;}.cls-14{letter-spacing:0em;}.cls-15{letter-spacing:0em;}.cls-4{fill:url(#_名称未設定グラデーション_165);}.cls-8{letter-spacing:0em;}.cls-8,.cls-9,.cls-10,.cls-11{stroke:#000;stroke-linejoin:round;}.cls-8,.cls-10,.cls-13,.cls-11{font-family:Corporate-Logo-Bold, 'Corporate Logo Bold';font-weight:700;}.cls-8,.cls-11{font-size:38.2px;stroke-width:10px;}.cls-9{stroke-linecap:round;stroke-width:6px;}.cls-10{stroke-width:7px;}.cls-10,.cls-13{font-size:18.4px;}.cls-6{fill:#ff3939;}.cls-7{fill:red;}</style><clipPath id="clippath"><path class="cls-2" d="M75.9.3c0,0,.2,0,.2,0,0,.1.1.3.3.4,3.2,2.7,6.4,5.4,9.7,8,.3.2,1,.3,1.4.1,3.6-1.4,7.2-2.8,10.8-4.3,1-.4,1.4-.2,2,.7,2,3.2,4.1,6.4,6,9.6.4.7.8,1,1.6.9,1.9-.2,3.8-.3,5.7-.4,2.3-.1,4.7-.3,7-.4,1.1,4.2,2.1,8.2,3.1,12.3.2.8.6,1.2,1.4,1.4,3.7.9,7.4,1.9,11.2,2.8.9.2,1.2.5,1.1,1.4-.3,3.8-.5,7.6-.8,11.4,0,.9.2,1.5,1,2,3.2,2,6.4,4.1,9.7,6,.8.5.9,1,.6,1.8-1.5,3.6-2.9,7.2-4.3,10.8-.3.7-.2,1.2.3,1.7,1.2,1.4,2.3,2.8,3.5,4.1,1.6,1.9,3.2,3.7,4.7,5.5v.5c-.1,0-.3.1-.4.2-2.7,3.2-5.3,6.4-7.9,9.6-.2.3-.3,1-.1,1.4,1.2,3.2,2.6,6.5,3.8,9.7.3.8.6,1.5.9,2.3-3.6,2.3-7.1,4.5-10.6,6.7-.8.5-1,1-1,1.9.3,3.8.5,7.7.8,11.5,0,.9-.2,1.2-1,1.4-3.6.9-7.2,1.9-10.8,2.7-1.1.3-1.6.7-1.9,1.9-.9,4-2,7.9-3,11.9-.5,0-.9,0-1.4,0-3.7-.2-7.5-.4-11.2-.7-.9,0-1.4.2-1.9,1-2,3.2-4,6.4-6,9.5-.2.4-.5.7-.7,1.1-4-1.6-8-3.2-11.9-4.8-.7-.3-1.1-.2-1.7.3-3,2.5-6,5-9,7.5-.6.5-1,.6-1.7,0-2.9-2.5-5.9-4.9-8.8-7.4-.7-.6-1.2-.7-2.1-.3-3.9,1.6-7.8,3.1-11.7,4.7-2.1-3.4-4.3-6.6-6.3-10-.7-1.2-1.5-2-3-1.6-.8.2-1.7.1-2.5.2-3.1.2-6.2.4-9.4.6-.1-.4-.2-.7-.3-1-1-3.8-1.9-7.6-2.9-11.4-.2-.7-.5-1.2-1.3-1.3-1.4-.3-2.8-.7-4.2-1-2.7-.7-5.5-1.4-8.2-2.1.2-4,.4-7.9.8-11.7.2-1.7-.4-2.5-1.7-3.3-3.3-2-6.6-4.1-9.9-6.2,1.6-4,3.2-8,4.8-12,.3-.6.2-1.1-.2-1.6-1.6-1.9-3.2-3.9-4.8-5.8-1.1-1.4-2.3-2.7-3.4-4.1,2.7-3.3,5.4-6.5,8.1-9.7.6-.7.7-1.2.4-2-1.1-2.5-2.1-5.1-3.1-7.7-.5-1.4-1.1-2.7-1.6-4.1,3.7-2.3,7.3-4.6,10.8-6.9.4-.3.8-.8.8-1.3,0-1.4-.2-2.8-.3-4.2-.2-2.9-.4-5.9-.6-8.9,4.2-1.1,8.3-2.1,12.4-3.1.8-.2,1.1-.6,1.3-1.3.4-1.6.8-3.2,1.2-4.8.6-2.5,1.3-5,1.9-7.5.5,0,.9,0,1.3,0,3.7.2,7.5.5,11.2.7.9,0,1.4-.2,1.9-1,2-3.3,4.1-6.5,6.1-9.8.5-.7.8-.8,1.6-.5,3.7,1.5,7.3,3,11,4.4.4.1,1,.1,1.3,0,3.4-2.8,6.8-5.6,10.1-8.4Z"/></clipPath><linearGradient id="_名称未設定グラデーション_85" x1="76.7" y1="62.2" x2="76.7" y2="91.1" gradientUnits="userSpaceOnUse"><stop offset="0" stop-color="#fff"/><stop offset="1" stop-color="#e29200"/></linearGradient><linearGradient id="_名称未設定グラデーション_165" x1="0" y1="76" x2="152" y2="76" gradientUnits="userSpaceOnUse"><stop offset="0" stop-color="#909090"/><stop offset=".2" stop-color="#c2c2c2"/><stop offset=".4" stop-color="#eee"/><stop offset=".5" stop-color="#fff"/><stop offset=".6" stop-color="#f2f2f2"/><stop offset=".8" stop-color="#bdbdbd"/><stop offset=".9" stop-color="#9c9c9c"/><stop offset="1" stop-color="#909090"/></linearGradient></defs><polygon class="cls-7" points="152 76.1 143.2 86.7 148.3 99.6 136.6 107 137.5 120.8 124.1 124.2 120.7 137.6 106.9 136.7 99.5 148.4 86.6 143.3 76 152.1 65.4 143.3 52.5 148.4 45.1 136.7 31.3 137.6 27.9 124.2 14.5 120.8 15.4 107 3.7 99.6 8.8 86.7 0 76.1 8.8 65.4 3.7 52.6 15.4 45.2 14.5 31.4 27.9 28 31.3 14.6 45.1 15.5 52.5 3.8 65.4 8.9 76 0 86.6 8.9 99.5 3.8 106.9 15.5 120.7 14.6 124.1 28 137.5 31.4 136.6 45.2 148.3 52.6 143.2 65.4 152 76.1"/><g class="cls-1"><polygon class="cls-6" points="76 76.4 76 76.4 76 76.4 76 76.4"/><path class="cls-6" d="M152.3,96.9c1.7-6.5,2.7-13.4,2.7-20.5h-79l76.3,20.5Z"/><path class="cls-6" d="M76,76.4l76.3-20.4c-1.8-6.8-4.5-13.1-7.9-19.1l-68.4,39.5h0Z"/><path class="cls-6" d="M-.3,96.9c1.8,6.8,4.5,13.1,7.9,19.1l68.4-39.5L-.3,96.9Z"/><path class="cls-6" d="M76,76.4l-55.9,55.9c4.9,4.9,10.4,9.1,16.4,12.6l39.5-68.4h0Z"/><path class="cls-6" d="M76,76.4l20.5,76.3c6.8-1.8,13.1-4.5,19.1-7.9l-39.5-68.4h0Z"/><path class="cls-6" d="M131.9,132.3c4.9-4.9,9.1-10.4,12.6-16.4l-68.4-39.5,55.9,55.9Z"/><path class="cls-6" d="M76,76.4l-20.5,76.3c6.5,1.7,13.4,2.7,20.5,2.7v-79h0Z"/><path class="cls-6" d="M76,76.4L96.5.1c-6.5-1.7-13.4-2.7-20.5-2.7v79h0Z"/><path class="cls-6" d="M76,76.4l55.9-55.9c-4.9-4.9-10.4-9.1-16.4-12.6l-39.5,68.4h0Z"/><path class="cls-6" d="M76,76.4L55.6.1c-6.8,1.8-13.1,4.5-19.1,7.9l39.5,68.4h0Z"/><path class="cls-6" d="M76,76.4h0L20.1,20.6c-4.9,4.9-9.1,10.4-12.6,16.4l68.4,39.5h0Z"/><path class="cls-6" d="M76,76.4L-.3,56c-1.7,6.5-2.7,13.4-2.7,20.5h79Z"/></g><rect class="cls-5" x="72" y="54.3" width="34" height="11"/><text class="cls-9" transform="translate(42.3 55.1)"><tspan x="0" y="0">無我の極地</tspan></text><text class="cls-12" transform="translate(42.3 55.1)"><tspan x="0" y="0">無我の極地</tspan></text><polygon class="cls-5" points="98 105.3 52 105.3 43 87.3 111 87.3 98 105.3"/><text class="cls-8" transform="translate(28.7 90.5) scale(.9 1)"><tspan x="0" y="0">5</tspan></text><text class="cls-11" transform="translate(48.5 87.7) scale(.8)"><tspan x="0" y="0">,</tspan></text><text class="cls-11" transform="translate(59.8 90.5) scale(.9 1)"><tspan x="0" y="0">000</tspan></text><path class="cls-3" d="M40.1,72.3c2.4,0,4.3.8,5.6,2.3,1.3,1.5,2,3.7,2,6.5,0,6.6-3.3,9.8-9.9,9.8s-4.3-.3-6.2-1v-5.5c2.3.9,4.3,1.4,6,1.4,3.2,0,4.8-1.6,4.8-4.7s-1.1-3.8-3.2-3.8-1.9.5-2.8,1.5h-4.7l.7-16.1h14.4v5.3h-9.5l-.2,5.2h0c1-.5,2-.7,3.1-.7Z"/><path class="cls-3" d="M52,81.9h5.9l-3.5,9.2h-4.3l1.9-9.2Z"/><path class="cls-3" d="M63.2,65.6c1.5-2.2,3.9-3.4,7-3.4s5.5,1.1,7.1,3.4c1.6,2.2,2.3,5.9,2.3,11s-.8,8.7-2.3,11c-1.6,2.2-3.9,3.4-7.1,3.4s-5.5-1.1-7.1-3.4c-1.5-2.2-2.3-5.9-2.3-11s.8-8.7,2.3-11ZM67.5,83.8c.6,1.4,1.5,2.1,2.8,2.1s2.3-.7,2.9-2.1c.6-1.4.9-3.8.9-7.3s-.3-5.9-.9-7.3-1.6-2.1-2.9-2.1-2.3.7-2.9,2.1-.9,3.8-.9,7.3.3,5.9.9,7.3Z"/><path class="cls-3" d="M84.3,65.6c1.5-2.2,3.9-3.4,7-3.4s5.5,1.1,7.1,3.4c1.6,2.2,2.3,5.9,2.3,11s-.8,8.7-2.3,11c-1.6,2.2-3.9,3.4-7.1,3.4s-5.5-1.1-7.1-3.4c-1.5-2.2-2.3-5.9-2.3-11s.8-8.7,2.3-11ZM88.6,83.8c.6,1.4,1.5,2.1,2.8,2.1s2.3-.7,2.9-2.1c.6-1.4.9-3.8.9-7.3s-.3-5.9-.9-7.3-1.6-2.1-2.9-2.1-2.3.7-2.9,2.1-.9,3.8-.9,7.3.3,5.9.9,7.3Z"/><path class="cls-3" d="M105.4,65.6c1.5-2.2,3.9-3.4,7-3.4s5.5,1.1,7.1,3.4c1.6,2.2,2.3,5.9,2.3,11s-.8,8.7-2.3,11c-1.6,2.2-3.9,3.4-7.1,3.4s-5.5-1.1-7.1-3.4c-1.5-2.2-2.3-5.9-2.3-11s.8-8.7,2.3-11ZM109.6,83.8c.6,1.4,1.5,2.1,2.8,2.1s2.3-.7,2.9-2.1c.6-1.4.9-3.8.9-7.3s-.3-5.9-.9-7.3-1.6-2.1-2.9-2.1-2.3.7-2.9,2.1-.9,3.8-.9,7.3.3,5.9.9,7.3Z"/><text class="cls-10" transform="translate(49.6 110.1)"><tspan class="cls-15" x="0" y="0">ポ</tspan><tspan class="cls-14" x="14.2" y="0">イ</tspan><tspan class="cls-15" x="28.3" y="0">ン</tspan><tspan x="42.4" y="0">ト</tspan></text><text class="cls-13" transform="translate(49.6 110.1)"><tspan class="cls-15" x="0" y="0">ポ</tspan><tspan class="cls-14" x="14.2" y="0">イ</tspan><tspan class="cls-15" x="28.3" y="0">ン</tspan><tspan x="42.4" y="0">ト</tspan></text><path class="cls-5" d="M76,5.5l8.1,6.7,1.8,1.5,2.2-.9,9.8-3.9,5.6,8.9,1.3,2,2.4-.2,10.5-.7,2.6,10.2.6,2.3,2.3.6,10.2,2.6-.7,10.5-.2,2.4,2,1.3,8.9,5.6-3.9,9.8-.9,2.2,1.5,1.8,6.7,8.1-6.7,8.1-1.5,1.8.9,2.2,3.9,9.8-8.9,5.6-2,1.3.2,2.4.7,10.5-10.2,2.6-2.3.6-.6,2.3-2.6,10.2-10.5-.7-2.4-.2-1.3,2-5.6,8.9-9.8-3.9-2.2-.9-1.8,1.5-8.1,6.7-8.1-6.7-1.8-1.5-2.2.9-9.8,3.9-5.6-8.9-1.3-2-2.4.2-10.5.7-2.6-10.2-.6-2.3-2.3-.6-10.2-2.6.7-10.5.2-2.4-2-1.3-8.9-5.6,3.9-9.8.9-2.2-1.5-1.8-6.7-8.1,6.7-8.1,1.5-1.8-.9-2.2-3.9-9.8,8.9-5.6,2-1.3-.2-2.4-.7-10.5,10.2-2.6,2.3-.6.6-2.3,2.6-10.2,10.5.7,2.4.2,1.3-2,5.6-8.9,9.8,3.9,2.2.9,1.8-1.5,8.1-6.7M76,.3l-10.6,8.8-12.8-5.1-7.4,11.7-13.8-.9-3.4,13.4-13.4,3.4.9,13.8-11.7,7.4,5.1,12.8L0,76.3l8.8,10.6-5.1,12.8,11.7,7.4-.9,13.8,13.4,3.4,3.4,13.4,13.8-.9,7.4,11.7,12.8-5.1,10.6,8.8,10.6-8.8,12.8,5.1,7.4-11.7,13.8.9,3.4-13.4,13.4-3.4-.9-13.8,11.7-7.4-5.1-12.8,8.8-10.6-8.8-10.6,5.1-12.8-11.7-7.4.9-13.8-13.4-3.4-3.4-13.4-13.8.9-7.4-11.7-12.8,5.1L76,.3h0Z"/><path class="cls-4" d="M147.3,70.4c-1.2-1.4-2.3-2.8-3.5-4.1-.5-.6-.6-1-.3-1.7,1.5-3.6,2.9-7.2,4.3-10.8.4-.9.3-1.3-.6-1.8-3.2-2-6.4-4.1-9.7-6-.8-.5-1.1-1.1-1-2,.3-3.8.5-7.6.8-11.4,0-.9-.2-1.2-1.1-1.4-3.7-.9-7.4-1.9-11.2-2.8-.8-.2-1.2-.5-1.4-1.4-1-4.1-2-8.1-3.1-12.3-2.4.1-4.7.3-7,.4-1.9.1-3.8.2-5.7.4-.8,0-1.2-.2-1.6-.9-2-3.2-4.1-6.4-6-9.6-.5-.9-.9-1.1-2-.7-3.6,1.5-7.2,2.9-10.8,4.3-.4.2-1.1.1-1.4-.1-3.3-2.6-6.5-5.3-9.7-8-.1,0-.2-.3-.3-.4h-.2c-3.4,2.8-6.7,5.7-10.1,8.4-.3.2-.9.2-1.3,0-3.7-1.4-7.4-2.9-11-4.4-.8-.3-1.2-.2-1.6.5-2,3.3-4.1,6.5-6.1,9.8-.5.8-1,1-1.9,1-3.7-.3-7.5-.5-11.2-.7-.4,0-.8,0-1.3,0-.6,2.5-1.3,5-1.9,7.5-.4,1.6-.8,3.2-1.2,4.8-.2.7-.5,1.1-1.3,1.3-4.1,1-8.2,2.1-12.4,3.1.2,3,.4,5.9.6,8.9,0,1.4.3,2.8.3,4.2,0,.4-.4,1-.8,1.3-3.6,2.3-7.1,4.5-10.8,6.9.5,1.4,1.1,2.8,1.6,4.1,1,2.6,2,5.1,3.1,7.7.4.8.2,1.4-.4,2-2.7,3.2-5.3,6.4-8.1,9.7,1.1,1.4,2.3,2.8,3.4,4.1,1.6,1.9,3.2,3.9,4.8,5.8.5.5.5,1,.2,1.6-1.6,3.9-3.2,7.9-4.8,12,3.3,2.1,6.5,4.2,9.9,6.2,1.4.8,1.9,1.6,1.7,3.3-.4,3.8-.5,7.7-.8,11.7,2.8.7,5.5,1.4,8.2,2.1,1.4.4,2.8.7,4.2,1,.8.2,1.1.6,1.3,1.3.9,3.8,1.9,7.6,2.9,11.4,0,.3.2.6.3,1,3.1-.2,6.2-.4,9.4-.6.8,0,1.7,0,2.5-.2,1.5-.4,2.3.4,3,1.6,2,3.4,4.2,6.6,6.3,10,3.9-1.6,7.8-3.1,11.7-4.7.9-.4,1.4-.2,2.1.3,2.9,2.5,5.9,4.9,8.8,7.4.7.6,1.1.5,1.7,0,3-2.5,6-5,9-7.5.6-.5,1-.5,1.7-.3,3.9,1.6,7.8,3.2,11.9,4.8.2-.4.5-.7.7-1.1,2-3.2,4-6.3,6-9.5.5-.8.9-1.1,1.9-1,3.7.3,7.5.5,11.2.7.4,0,.9,0,1.4,0,1-4,2-7.9,3-11.8.2-1,1-1.7,1.9-1.9,3.6-.8,7.2-1.8,10.8-2.7.8-.2,1.1-.5,1-1.4-.3-3.8-.5-7.7-.8-11.5,0-.9.2-1.4,1-1.9,3.5-2.2,7-4.4,10.6-6.7-.3-.8-.6-1.6-.9-2.3-1.3-3.2-2.6-6.4-3.8-9.7-.2-.4-.1-1.1.1-1.4,2.6-3.2,5.3-6.4,7.9-9.6,0-.1.3-.1.4-.2v-.5c-1.6-1.8-3.2-3.7-4.7-5.5ZM112.4,95.2l-40.9,29.7c-2.3,1.7-5,2.5-7.6,2.5-4,0-8-1.9-10.5-5.4-3.4-4.6-3.2-10.8,0-15.2l-3.6.6c-5.4,1-11-1.3-13.8-6-3.7-6.2-1.7-14,4.2-17.7l8.1-5.1c-5.5-.7-10.1-4.8-11.1-10.7-.9-5.1,1.5-10.1,5.7-13.1l41.8-28.8c5.9-4.1,14-2.6,18.1,3.3,3.8,5.4,2.8,12.7-2,17h.6c5.3-.7,10.6,1.7,13.2,6.4,3.5,6.2,1.4,13.8-4.3,17.4l-2.4,1.5c4.9,1,9,4.9,10.1,10.3s-1.2,10.2-5.4,13.2Z"/><path class="cls-5" d="M76,5.2l8.1,6.7,1.8,1.5,2.2-.9,9.8-3.9,5.6,8.9,1.3,2,2.4-.2,10.5-.7,2.6,10.2.6,2.3,2.3.6,10.2,2.6-.7,10.5-.2,2.4,2,1.3,8.9,5.6-3.9,9.8-.9,2.2,1.5,1.8,6.7,8.1-6.7,8.1-1.5,1.8.9,2.2,3.9,9.8-8.9,5.6-2,1.3.2,2.4.7,10.5-10.2,2.6-2.3.6-.6,2.3-2.6,10.2-10.5-.7-2.4-.2-1.3,2-5.6,8.9-9.8-3.9-2.2-.9-1.8,1.5-8.1,6.7-8.1-6.7-1.8-1.5-2.2.9-9.8,3.9-5.6-8.9-1.3-2-2.4.2-10.5.7-2.6-10.2-.6-2.3-2.3-.6-10.2-2.6.7-10.5.2-2.4-2-1.3-8.9-5.6,3.9-9.8.9-2.2-1.5-1.8-6.7-8.1,6.7-8.1,1.5-1.8-.9-2.2-3.9-9.8,8.9-5.6,2-1.3-.2-2.4-.7-10.5,10.2-2.6,2.3-.6.6-2.3,2.6-10.2,10.5.7,2.4.2,1.3-2,5.6-8.9,9.8,3.9,2.2.9,1.8-1.5,8.1-6.7M76,0l-10.6,8.8-12.8-5.1-7.4,11.7-13.8-.9-3.4,13.4-13.4,3.4.9,13.8-11.7,7.4,5.1,12.8L0,76l8.8,10.6-5.1,12.8,11.7,7.4-.9,13.8,13.4,3.4,3.4,13.4,13.8-.9,7.4,11.7,12.8-5.1,10.6,8.8,10.6-8.8,12.8,5.1,7.4-11.7,13.8.9,3.4-13.4,13.4-3.4-.9-13.8,11.7-7.4-5.1-12.8,8.8-10.6-8.8-10.6,5.1-12.8-11.7-7.4.9-13.8-13.4-3.4-3.4-13.4-13.8.9-7.4-11.7-12.8,5.1L76,0h0Z"/></svg>