<?xml version="1.0" encoding="UTF-8"?><svg id="_オブジェクト" xmlns="http://www.w3.org/2000/svg" xmlns:xlink="http://www.w3.org/1999/xlink" viewBox="0 0 152 152.4"><defs><style>.cls-1{clip-path:url(#clippath);}.cls-2{fill:none;}.cls-2,.cls-3,.cls-4{stroke-width:0px;}.cls-3{fill:url(#_名称未設定グラデーション_165);}</style><clipPath id="clippath"><path class="cls-2" d="M112.4,95.8l-40.9,29.7c-2.3,1.7-5,2.5-7.6,2.5-4,0-8-1.9-10.5-5.4-3.4-4.6-3.2-10.8,0-15.2l-3.6.6c-5.4,1-11-1.3-13.8-6s-1.7-14,4.2-17.7l8.1-5.1c-5.5-.7-10.1-4.8-11.1-10.7-.9-5.1,1.5-10.1,5.7-13.1l41.8-28.8c5.9-4.1,14-2.6,18.1,3.3,3.8,5.4,2.8,12.7-2,17h.6c5.3-.7,10.6,1.7,13.2,6.4s1.4,13.8-4.3,17.4l-2.4,1.5c4.9,1,9,4.9,10.1,10.3,1,5-1.2,10.2-5.4,13.2Z"/></clipPath><linearGradient id="_名称未設定グラデーション_165" x1="24.7" y1="25.3" x2="127.2" y2="127.9" gradientUnits="userSpaceOnUse"><stop offset="0" stop-color="#909090"/><stop offset=".2" stop-color="#c2c2c2"/><stop offset=".4" stop-color="#eee"/><stop offset=".5" stop-color="#fff"/><stop offset=".6" stop-color="#f2f2f2"/><stop offset=".8" stop-color="#bdbdbd"/><stop offset=".9" stop-color="#9c9c9c"/><stop offset="1" stop-color="#909090"/></linearGradient></defs><g class="cls-1"><polygon class="cls-3" points="65.7 141.5 53.3 146.4 46.2 135.1 32.8 136 29.5 123 16.6 119.7 17.5 106.4 6.2 99.3 11.1 86.9 2.6 76.6 11.1 66.3 6.2 53.9 17.5 46.8 16.6 33.4 29.5 30.2 32.8 17.2 46.2 18.1 53.3 6.8 65.7 11.7 76 3.2 86.3 11.7 98.7 6.8 105.8 18.1 119.1 17.2 122.4 30.2 135.4 33.4 134.5 46.8 145.8 53.9 140.9 66.3 149.4 76.6 140.9 86.9 145.8 99.3 134.5 106.4 135.4 119.7 122.4 123 119.1 136 105.8 135.1 98.7 146.4 86.3 141.5 76 150 65.7 141.5"/><path class="cls-4" d="M76,5.8l8.1,6.7,1.8,1.5,2.2-.9,9.8-3.9,5.6,8.9,1.3,2,2.4-.2,10.5-.7,2.6,10.2.6,2.3,2.3.6,10.2,2.6-.7,10.5-.2,2.4,2,1.3,8.9,5.6-3.9,9.8-.9,2.2,1.5,1.8,6.7,8.1-6.7,8.1-1.5,1.8.9,2.2,3.9,9.8-8.9,5.6-2,1.3.2,2.4.7,10.5-10.2,2.6-2.3.6-.6,2.3-2.6,10.2-10.5-.7-2.4-.2-1.3,2-5.6,8.9-9.8-3.9-2.2-.9-1.8,1.5-8.1,6.7-8.1-6.7-1.8-1.5-2.2.9-9.8,3.9-5.6-8.9-1.3-2-2.4.2-10.5.7-2.6-10.2-.6-2.3-2.3-.6-10.2-2.6.7-10.5.2-2.4-2-1.3-8.9-5.6,3.9-9.8.9-2.2-1.5-1.8-6.7-8.1,6.7-8.1,1.5-1.8-.9-2.2-3.9-9.8,8.9-5.6,2-1.3-.2-2.4-.7-10.5,10.2-2.6,2.3-.6.6-2.3,2.6-10.2,10.5.7,2.4.2,1.3-2,5.6-8.9,9.8,3.9,2.2.9,1.8-1.5,8.1-6.7M76,.6l-10.6,8.8-12.8-5.1-7.4,11.7-13.8-.9-3.4,13.4-13.4,3.4.9,13.8-11.7,7.4,5.1,12.8L0,76.6l8.8,10.6-5.1,12.8,11.7,7.4-.9,13.8,13.4,3.4,3.4,13.4,13.8-.9,7.4,11.7,12.8-5.1,10.6,8.8,10.6-8.8,12.8,5.1,7.4-11.7,13.8.9,3.4-13.4,13.4-3.4-.9-13.8,11.7-7.4-5.1-12.8,8.8-10.6-8.8-10.6,5.1-12.8-11.7-7.4.9-13.8-13.4-3.4-3.4-13.4-13.8.9-7.4-11.7-12.8,5.1L76,.6h0Z"/></g></svg>