<?xml version="1.0" encoding="UTF-8"?><svg id="_オブジェクト" xmlns="http://www.w3.org/2000/svg" xmlns:xlink="http://www.w3.org/1999/xlink" viewBox="0 0 152 152"><defs><style>.cls-1{fill:url(#_名称未設定グラデーション_165);}.cls-1,.cls-2{stroke-width:0px;}</style><linearGradient id="_名称未設定グラデーション_165" x1="22.9" y1="23.1" x2="129.1" y2="129.2" gradientUnits="userSpaceOnUse"><stop offset="0" stop-color="#909090"/><stop offset=".2" stop-color="#c2c2c2"/><stop offset=".4" stop-color="#eee"/><stop offset=".5" stop-color="#fff"/><stop offset=".6" stop-color="#f2f2f2"/><stop offset=".8" stop-color="#bdbdbd"/><stop offset=".9" stop-color="#9c9c9c"/><stop offset="1" stop-color="#909090"/></linearGradient></defs><path class="cls-1" d="M147.3,70.4c-1.2-1.4-2.3-2.8-3.5-4.1-.5-.6-.6-1-.3-1.7,1.5-3.6,2.9-7.2,4.3-10.8.4-.9.3-1.3-.6-1.8-3.2-2-6.4-4.1-9.7-6-.8-.5-1.1-1.1-1-2,.3-3.8.5-7.6.8-11.4,0-.9-.2-1.2-1.1-1.4-3.7-.9-7.4-1.9-11.2-2.8-.8-.2-1.2-.5-1.4-1.4-1-4.1-2-8.1-3.1-12.3-2.4.1-4.7.3-7,.4-1.9.1-3.8.2-5.7.4-.8,0-1.2-.2-1.6-.9-2-3.2-4.1-6.4-6-9.6-.5-.9-.9-1.1-2-.7-3.6,1.5-7.2,2.9-10.8,4.3-.4.2-1.1.1-1.4-.1-3.3-2.6-6.5-5.3-9.7-8-.1,0-.2-.3-.3-.4h-.2c-3.4,2.8-6.7,5.7-10.1,8.4-.3.2-.9.2-1.3,0-3.7-1.4-7.4-2.9-11-4.4-.8-.3-1.2-.2-1.6.5-2,3.3-4.1,6.5-6.1,9.8-.5.8-1,1-1.9,1-3.7-.3-7.5-.5-11.2-.7-.4,0-.8,0-1.3,0-.6,2.5-1.3,5-1.9,7.5-.4,1.6-.8,3.2-1.2,4.8-.2.7-.5,1.1-1.3,1.3-4.1,1-8.2,2.1-12.4,3.1.2,3,.4,5.9.6,8.9,0,1.4.3,2.8.3,4.2,0,.4-.4,1-.8,1.3-3.6,2.3-7.1,4.5-10.8,6.9.5,1.4,1.1,2.8,1.6,4.1,1,2.6,2,5.1,3.1,7.7.4.8.2,1.4-.4,2-2.7,3.2-5.3,6.4-8.1,9.7,1.1,1.4,2.3,2.8,3.4,4.1,1.6,1.9,3.2,3.9,4.8,5.8.5.5.5,1,.2,1.6-1.6,3.9-3.2,7.9-4.8,12,3.3,2.1,6.5,4.2,9.9,6.2,1.4.8,1.9,1.6,1.7,3.3-.4,3.8-.5,7.7-.8,11.7,2.8.7,5.5,1.4,8.2,2.1,1.4.4,2.8.7,4.2,1,.8.2,1.1.6,1.3,1.3.9,3.8,1.9,7.6,2.9,11.4,0,.3.2.6.3,1,3.1-.2,6.2-.4,9.4-.6.8,0,1.7,0,2.5-.2,1.5-.4,2.3.4,3,1.6,2,3.4,4.2,6.6,6.3,10,3.9-1.6,7.8-3.1,11.7-4.7.9-.4,1.4-.2,2.1.3,2.9,2.5,5.9,4.9,8.8,7.4.7.6,1.1.5,1.7,0,3-2.5,6-5,9-7.5.6-.5,1-.5,1.7-.3,3.9,1.6,7.8,3.2,11.9,4.8.2-.4.5-.7.7-1.1,2-3.2,4-6.3,6-9.5.5-.8.9-1.1,1.9-1,3.7.3,7.5.5,11.2.7.4,0,.9,0,1.4,0,1-4,2-7.9,3-11.8.2-1,1-1.7,1.9-1.9,3.6-.8,7.2-1.8,10.8-2.7.8-.2,1.1-.5,1-1.4-.3-3.8-.5-7.7-.8-11.5,0-.9.2-1.4,1-1.9,3.5-2.2,7-4.4,10.6-6.7-.3-.8-.6-1.6-.9-2.3-1.3-3.2-2.6-6.4-3.8-9.7-.2-.4-.1-1.1.1-1.4,2.6-3.2,5.3-6.4,7.9-9.6,0-.1.3-.1.4-.2v-.5c-1.6-1.8-3.2-3.7-4.7-5.5ZM112.4,95.2l-40.9,29.7c-2.3,1.7-5,2.5-7.6,2.5-4,0-8-1.9-10.5-5.4-3.4-4.6-3.2-10.8,0-15.2l-3.6.6c-5.4,1-11-1.3-13.8-6-3.7-6.2-1.7-14,4.2-17.7l8.1-5.1c-5.5-.7-10.1-4.8-11.1-10.7-.9-5.1,1.5-10.1,5.7-13.1l41.8-28.8c5.9-4.1,14-2.6,18.1,3.3,3.8,5.4,2.8,12.7-2,17h.6c5.3-.7,10.6,1.7,13.2,6.4,3.5,6.2,1.4,13.8-4.3,17.4l-2.4,1.5c4.9,1,9,4.9,10.1,10.3s-1.2,10.2-5.4,13.2Z"/><path class="cls-2" d="M76,5.2l8.1,6.7,1.8,1.5,2.2-.9,9.8-3.9,5.6,8.9,1.3,2,2.4-.2,10.5-.7,2.6,10.2.6,2.3,2.3.6,10.2,2.6-.7,10.5-.2,2.4,2,1.3,8.9,5.6-3.9,9.8-.9,2.2,1.5,1.8,6.7,8.1-6.7,8.1-1.5,1.8.9,2.2,3.9,9.8-8.9,5.6-2,1.3.2,2.4.7,10.5-10.2,2.6-2.3.6-.6,2.3-2.6,10.2-10.5-.7-2.4-.2-1.3,2-5.6,8.9-9.8-3.9-2.2-.9-1.8,1.5-8.1,6.7-8.1-6.7-1.8-1.5-2.2.9-9.8,3.9-5.6-8.9-1.3-2-2.4.2-10.5.7-2.6-10.2-.6-2.3-2.3-.6-10.2-2.6.7-10.5.2-2.4-2-1.3-8.9-5.6,3.9-9.8.9-2.2-1.5-1.8-6.7-8.1,6.7-8.1,1.5-1.8-.9-2.2-3.9-9.8,8.9-5.6,2-1.3-.2-2.4-.7-10.5,10.2-2.6,2.3-.6.6-2.3,2.6-10.2,10.5.7,2.4.2,1.3-2,5.6-8.9,9.8,3.9,2.2.9,1.8-1.5,8.1-6.7M76,0l-10.6,8.8-12.8-5.1-7.4,11.7-13.8-.9-3.4,13.4-13.4,3.4.9,13.8-11.7,7.4,5.1,12.8L0,76l8.8,10.6-5.1,12.8,11.7,7.4-.9,13.8,13.4,3.4,3.4,13.4,13.8-.9,7.4,11.7,12.8-5.1,10.6,8.8,10.6-8.8,12.8,5.1,7.4-11.7,13.8.9,3.4-13.4,13.4-3.4-.9-13.8,11.7-7.4-5.1-12.8,8.8-10.6-8.8-10.6,5.1-12.8-11.7-7.4.9-13.8-13.4-3.4-3.4-13.4-13.8.9-7.4-11.7-12.8,5.1L76,0h0Z"/></svg>