<?xml version="1.0" encoding="UTF-8"?><svg id="_オブジェクト" xmlns="http://www.w3.org/2000/svg" xmlns:xlink="http://www.w3.org/1999/xlink" viewBox="0 0 152 152"><defs><style>.cls-1{clip-path:url(#clippath);}.cls-2,.cls-3,.cls-4,.cls-5,.cls-6{stroke-width:0px;}.cls-2,.cls-7,.cls-8,.cls-9,.cls-10{fill:none;}.cls-3{fill:url(#_名称未設定グラデーション_85);}.cls-11,.cls-8{font-family:KanteiryuStd-Ultra-83pv-RKSJ-H, 'A-OTF Kanteiryu Std';font-size:13px;letter-spacing:0em;}.cls-11,.cls-12{fill:#fff;}.cls-13{letter-spacing:0em;}.cls-14{letter-spacing:0em;}.cls-7{letter-spacing:0em;}.cls-7,.cls-8,.cls-9,.cls-10{stroke:#000;stroke-linejoin:round;}.cls-7,.cls-9,.cls-12,.cls-10{font-family:Corporate-Logo-Bold, 'Corporate Logo Bold';font-weight:700;}.cls-7,.cls-10{font-size:38.2px;stroke-width:10px;}.cls-15{clip-path:url(#clippath-1);}.cls-8{stroke-linecap:round;stroke-width:6px;}.cls-9{stroke-width:7px;}.cls-9,.cls-12{font-size:18.4px;}.cls-5{fill:#ff3939;}.cls-6{fill:red;}</style><clipPath id="clippath"><path class="cls-2" d="M112.4,95.6l-40.9,29.7c-2.3,1.7-5,2.5-7.6,2.5-4,0-8-1.9-10.5-5.4-3.4-4.6-3.2-10.8,0-15.2l-3.6.6c-5.4,1-11-1.3-13.8-6-3.7-6.2-1.7-14,4.2-17.7l8.1-5.1c-5.5-.7-10.1-4.8-11.1-10.7-.9-5.1,1.5-10.1,5.7-13.1l41.8-28.8c5.9-4.1,14-2.6,18.1,3.3,3.8,5.4,2.8,12.7-2,17h.6c5.3-.7,10.6,1.7,13.2,6.4,3.5,6.2,1.4,13.8-4.3,17.4l-2.4,1.5c4.9,1,9,4.9,10.1,10.3s-1.2,10.2-5.4,13.2Z"/></clipPath><clipPath id="clippath-1"><path class="cls-2" d="M77.9-1.5c0,0,.2,0,.2,0,0,.1.1.3.3.4,3.2,2.7,6.4,5.4,9.7,8,.3.2,1,.3,1.4.1,3.6-1.4,7.2-2.8,10.8-4.3,1-.4,1.4-.2,2,.7,2,3.2,4.1,6.4,6,9.6.4.7.8,1,1.6.9,1.9-.2,3.8-.3,5.7-.4,2.3-.1,4.7-.3,7-.4,1.1,4.2,2.1,8.2,3.1,12.3.2.8.6,1.2,1.4,1.4,3.7.9,7.4,1.9,11.2,2.8.9.2,1.2.5,1.1,1.4-.3,3.8-.5,7.6-.8,11.4,0,.9.2,1.5,1,2,3.2,2,6.4,4.1,9.7,6,.8.5.9,1,.6,1.8-1.5,3.6-2.9,7.2-4.3,10.8-.3.7-.2,1.2.3,1.7,1.2,1.4,2.3,2.8,3.5,4.1,1.6,1.9,3.2,3.7,4.7,5.5v.5c-.1,0-.3.1-.4.2-2.7,3.2-5.3,6.4-7.9,9.6-.2.3-.3,1-.1,1.4,1.2,3.2,2.6,6.5,3.8,9.7.3.8.6,1.5.9,2.3-3.6,2.3-7.1,4.5-10.6,6.7-.8.5-1,1-1,1.9.3,3.8.5,7.7.8,11.5,0,.9-.2,1.2-1,1.4-3.6.9-7.2,1.9-10.8,2.7-1.1.3-1.6.7-1.9,1.9-.9,4-2,7.9-3,11.9-.5,0-.9,0-1.4,0-3.7-.2-7.5-.4-11.2-.7-.9,0-1.4.2-1.9,1-2,3.2-4,6.4-6,9.5-.2.4-.5.7-.7,1.1-4-1.6-8-3.2-11.9-4.8-.7-.3-1.1-.2-1.7.3-3,2.5-6,5-9,7.5-.6.5-1,.6-1.7,0-2.9-2.5-5.9-4.9-8.8-7.4-.7-.6-1.2-.7-2.1-.3-3.9,1.6-7.8,3.1-11.7,4.7-2.1-3.4-4.3-6.6-6.3-10-.7-1.2-1.5-2-3-1.6-.8.2-1.7.1-2.5.2-3.1.2-6.2.4-9.4.6-.1-.4-.2-.7-.3-1-1-3.8-1.9-7.6-2.9-11.4-.2-.7-.5-1.2-1.3-1.3-1.4-.3-2.8-.7-4.2-1-2.7-.7-5.5-1.4-8.2-2.1.2-4,.4-7.9.8-11.7.2-1.7-.4-2.5-1.7-3.3-3.3-2-6.6-4.1-9.9-6.2,1.6-4,3.2-8,4.8-12,.3-.6.2-1.1-.2-1.6-1.6-1.9-3.2-3.9-4.8-5.8-1.1-1.4-2.3-2.7-3.4-4.1,2.7-3.3,5.4-6.5,8.1-9.7.6-.7.7-1.2.4-2-1.1-2.5-2.1-5.1-3.1-7.7-.5-1.4-1.1-2.7-1.6-4.1,3.7-2.3,7.3-4.6,10.8-6.9.4-.3.8-.8.8-1.3,0-1.4-.2-2.8-.3-4.2-.2-2.9-.4-5.9-.6-8.9,4.2-1.1,8.3-2.1,12.4-3.1.8-.2,1.1-.6,1.3-1.3.4-1.6.8-3.2,1.2-4.8.6-2.5,1.3-5,1.9-7.5.5,0,.9,0,1.3,0,3.7.2,7.5.5,11.2.7.9,0,1.4-.2,1.9-1,2-3.3,4.1-6.5,6.1-9.8.5-.7.8-.8,1.6-.5,3.7,1.5,7.3,3,11,4.4.4.1,1,.1,1.3,0,3.4-2.8,6.8-5.6,10.1-8.4Z"/></clipPath><linearGradient id="_名称未設定グラデーション_85" x1="78.7" y1="60.4" x2="78.7" y2="89.3" gradientUnits="userSpaceOnUse"><stop offset="0" stop-color="#fff"/><stop offset="1" stop-color="#e29200"/></linearGradient></defs><g class="cls-1"><polygon class="cls-6" points="154 74.3 145.2 84.9 150.3 97.8 138.6 105.2 139.5 119 126.1 122.4 122.7 135.8 108.9 134.9 101.5 146.6 88.6 141.5 78 150.3 67.3 141.5 54.5 146.6 47.1 134.9 33.3 135.8 29.9 122.4 16.5 119 17.4 105.2 5.7 97.8 10.8 84.9 2 74.3 10.8 63.6 5.7 50.8 17.4 43.4 16.5 29.6 29.9 26.2 33.3 12.8 47.1 13.7 54.5 2 67.3 7.1 78 -1.7 88.6 7.1 101.5 2 108.9 13.7 122.7 12.8 126.1 26.2 139.5 29.6 138.6 43.4 150.3 50.8 145.2 63.6 154 74.3"/><g class="cls-15"><polygon class="cls-5" points="78 74.7 78 74.6 78 74.7 78 74.7"/><path class="cls-5" d="M154.3,95.1c1.7-6.5,2.7-13.4,2.7-20.5h-79l76.3,20.5Z"/><path class="cls-5" d="M78,74.6l76.3-20.4c-1.8-6.8-4.5-13.1-7.9-19.1l-68.4,39.5h0Z"/><path class="cls-5" d="M1.7,95.1c1.8,6.8,4.5,13.1,7.9,19.1l68.4-39.5L1.7,95.1Z"/><path class="cls-5" d="M78,74.6l-55.9,55.9c4.9,4.9,10.4,9.1,16.4,12.6l39.5-68.4h0Z"/><path class="cls-5" d="M78,74.7l20.5,76.3c6.8-1.8,13.1-4.5,19.1-7.9l-39.5-68.4h0Z"/><path class="cls-5" d="M133.9,130.5c4.9-4.9,9.1-10.4,12.6-16.4l-68.4-39.5,55.9,55.9Z"/><path class="cls-5" d="M78,74.6l-20.5,76.3c6.5,1.7,13.4,2.7,20.5,2.7v-79h0Z"/><path class="cls-5" d="M78,74.6L98.4-1.7c-6.5-1.7-13.4-2.7-20.5-2.7v79h0Z"/><path class="cls-5" d="M78,74.6l55.9-55.9c-4.9-4.9-10.4-9.1-16.4-12.6l-39.5,68.4h0Z"/><path class="cls-5" d="M78,74.6L57.5-1.7c-6.8,1.8-13.1,4.5-19.1,7.9l39.5,68.4h0Z"/><path class="cls-5" d="M78,74.6h0L22.1,18.8c-4.9,4.9-9.1,10.4-12.6,16.4l68.4,39.5h0Z"/><path class="cls-5" d="M78,74.6L1.7,54.2c-1.7,6.5-2.7,13.4-2.7,20.5h79Z"/></g><rect class="cls-4" x="74" y="52.5" width="34" height="11"/><text class="cls-8" transform="translate(44.3 53.3)"><tspan x="0" y="0">無我の極地</tspan></text><text class="cls-11" transform="translate(44.3 53.3)"><tspan x="0" y="0">無我の極地</tspan></text><polygon class="cls-4" points="100 103.5 54 103.5 45 85.5 113 85.5 100 103.5"/><text class="cls-7" transform="translate(30.7 88.7) scale(.9 1)"><tspan x="0" y="0">5</tspan></text><text class="cls-10" transform="translate(50.5 85.9) scale(.8)"><tspan x="0" y="0">,</tspan></text><text class="cls-10" transform="translate(61.7 88.7) scale(.9 1)"><tspan x="0" y="0">000</tspan></text><path class="cls-3" d="M42.1,70.5c2.4,0,4.3.8,5.6,2.3,1.3,1.5,2,3.7,2,6.5,0,6.6-3.3,9.8-9.9,9.8s-4.3-.3-6.2-1v-5.5c2.3.9,4.3,1.4,6,1.4,3.2,0,4.8-1.6,4.8-4.7s-1.1-3.8-3.2-3.8-1.9.5-2.8,1.5h-4.7l.7-16.1h14.4v5.3h-9.5l-.2,5.2h0c1-.5,2-.7,3.1-.7Z"/><path class="cls-3" d="M54,80.1h5.9l-3.5,9.2h-4.3l1.9-9.2Z"/><path class="cls-3" d="M65.2,63.8c1.5-2.2,3.9-3.4,7-3.4s5.5,1.1,7.1,3.4c1.6,2.2,2.3,5.9,2.3,11s-.8,8.7-2.3,11c-1.6,2.2-3.9,3.4-7.1,3.4s-5.5-1.1-7.1-3.4c-1.5-2.2-2.3-5.9-2.3-11s.8-8.7,2.3-11ZM69.4,82c.6,1.4,1.5,2.1,2.8,2.1s2.3-.7,2.9-2.1c.6-1.4.9-3.8.9-7.3s-.3-5.9-.9-7.3-1.6-2.1-2.9-2.1-2.3.7-2.9,2.1-.9,3.8-.9,7.3.3,5.9.9,7.3Z"/><path class="cls-3" d="M86.3,63.8c1.5-2.2,3.9-3.4,7-3.4s5.5,1.1,7.1,3.4c1.6,2.2,2.3,5.9,2.3,11s-.8,8.7-2.3,11c-1.6,2.2-3.9,3.4-7.1,3.4s-5.5-1.1-7.1-3.4c-1.5-2.2-2.3-5.9-2.3-11s.8-8.7,2.3-11ZM90.5,82c.6,1.4,1.5,2.1,2.8,2.1s2.3-.7,2.9-2.1c.6-1.4.9-3.8.9-7.3s-.3-5.9-.9-7.3-1.6-2.1-2.9-2.1-2.3.7-2.9,2.1-.9,3.8-.9,7.3.3,5.9.9,7.3Z"/><path class="cls-3" d="M107.4,63.8c1.5-2.2,3.9-3.4,7-3.4s5.5,1.1,7.1,3.4c1.6,2.2,2.3,5.9,2.3,11s-.8,8.7-2.3,11c-1.6,2.2-3.9,3.4-7.1,3.4s-5.5-1.1-7.1-3.4c-1.5-2.2-2.3-5.9-2.3-11s.8-8.7,2.3-11ZM111.6,82c.6,1.4,1.5,2.1,2.8,2.1s2.3-.7,2.9-2.1c.6-1.4.9-3.8.9-7.3s-.3-5.9-.9-7.3-1.6-2.1-2.9-2.1-2.3.7-2.9,2.1-.9,3.8-.9,7.3.3,5.9.9,7.3Z"/><text class="cls-9" transform="translate(51.6 108.3)"><tspan class="cls-14" x="0" y="0">ポ</tspan><tspan class="cls-13" x="14.2" y="0">イ</tspan><tspan class="cls-14" x="28.3" y="0">ン</tspan><tspan x="42.4" y="0">ト</tspan></text><text class="cls-12" transform="translate(51.6 108.3)"><tspan class="cls-14" x="0" y="0">ポ</tspan><tspan class="cls-13" x="14.2" y="0">イ</tspan><tspan class="cls-14" x="28.3" y="0">ン</tspan><tspan x="42.4" y="0">ト</tspan></text></g></svg>