<?xml version="1.0" encoding="UTF-8"?><svg id="_オブジェクト" xmlns="http://www.w3.org/2000/svg" xmlns:xlink="http://www.w3.org/1999/xlink" viewBox="0 0 152 152"><defs><style>.cls-1{fill:url(#_名称未設定グラデーション_165);}.cls-1,.cls-2{stroke-width:0px;}.cls-3{fill:#8c8c8c;font-family:PA1GothicStd-Bold-83pv-RKSJ-H, 'A P-OTF A1Gothic Std';font-size:63.4px;font-weight:700;letter-spacing:0em;}</style><linearGradient id="_名称未設定グラデーション_165" x1="24.7" y1="24.7" x2="127.3" y2="127.3" gradientUnits="userSpaceOnUse"><stop offset="0" stop-color="#909090"/><stop offset=".2" stop-color="#c2c2c2"/><stop offset=".4" stop-color="#eee"/><stop offset=".5" stop-color="#fff"/><stop offset=".6" stop-color="#f2f2f2"/><stop offset=".8" stop-color="#bdbdbd"/><stop offset=".9" stop-color="#9c9c9c"/><stop offset="1" stop-color="#909090"/></linearGradient></defs><polygon class="cls-1" points="65.7 140.9 53.3 145.8 46.2 134.5 32.9 135.4 29.6 122.4 16.6 119.1 17.5 105.8 6.2 98.7 11.1 86.3 2.6 76 11.1 65.7 6.2 53.3 17.5 46.2 16.6 32.9 29.6 29.6 32.9 16.6 46.2 17.5 53.3 6.2 65.7 11.1 76 2.6 86.3 11.1 98.7 6.2 105.8 17.5 119.1 16.6 122.4 29.6 135.4 32.9 134.5 46.2 145.8 53.3 140.9 65.7 149.4 76 140.9 86.3 145.8 98.7 134.5 105.8 135.4 119.1 122.4 122.4 119.1 135.4 105.8 134.5 98.7 145.8 86.3 140.9 76 149.4 65.7 140.9"/><path class="cls-2" d="M76,5.2l8.1,6.7,1.8,1.5,2.2-.9,9.8-3.9,5.6,8.9,1.3,2,2.4-.2,10.5-.7,2.6,10.2.6,2.3,2.3.6,10.2,2.6-.7,10.5-.2,2.4,2,1.3,8.9,5.6-3.9,9.8-.9,2.2,1.5,1.8,6.7,8.1-6.7,8.1-1.5,1.8.9,2.2,3.9,9.8-8.9,5.6-2,1.3.2,2.4.7,10.5-10.2,2.6-2.3.6-.6,2.3-2.6,10.2-10.5-.7-2.4-.2-1.3,2-5.6,8.9-9.8-3.9-2.2-.9-1.8,1.5-8.1,6.7-8.1-6.7-1.8-1.5-2.2.9-9.8,3.9-5.6-8.9-1.3-2-2.4.2-10.5.7-2.6-10.2-.6-2.3-2.3-.6-10.2-2.6.7-10.5.2-2.4-2-1.3-8.9-5.6,3.9-9.8.9-2.2-1.5-1.8-6.7-8.1,6.7-8.1,1.5-1.8-.9-2.2-3.9-9.8,8.9-5.6,2-1.3-.2-2.4-.7-10.5,10.2-2.6,2.3-.6.6-2.3,2.6-10.2,10.5.7,2.4.2,1.3-2,5.6-8.9,9.8,3.9,2.2.9,1.8-1.5,8.1-6.7M76,0l-10.6,8.8-12.8-5.1-7.4,11.7-13.8-.9-3.4,13.4-13.4,3.4.9,13.8-11.7,7.4,5.1,12.8L0,76l8.8,10.6-5.1,12.8,11.7,7.4-.9,13.8,13.4,3.4,3.4,13.4,13.8-.9,7.4,11.7,12.8-5.1,10.6,8.8,10.6-8.8,12.8,5.1,7.4-11.7,13.8.9,3.4-13.4,13.4-3.4-.9-13.8,11.7-7.4-5.1-12.8,8.8-10.6-8.8-10.6,5.1-12.8-11.7-7.4.9-13.8-13.4-3.4-3.4-13.4-13.8.9-7.4-11.7-12.8,5.1L76,0h0Z"/><text class="cls-3" transform="translate(57.7 101.5) scale(1 1)"><tspan x="0" y="0">?</tspan></text></svg>