<?xml version="1.0" encoding="UTF-8"?>
<svg id="_レイヤー_2" data-name="レイヤー 2" xmlns="http://www.w3.org/2000/svg" viewBox="0 0 592.22 930.99">
  <defs>
    <style>
      .cls-1 {
        fill: #030303;
      }

      .cls-1, .cls-2, .cls-3, .cls-4, .cls-5, .cls-6, .cls-7, .cls-8, .cls-9, .cls-10 {
        stroke-width: 0px;
      }

      .cls-2 {
        fill: #4d4d4d;
      }

      .cls-3 {
        fill: #fafafa;
      }

      .cls-4 {
        fill: #4f4f4f;
      }

      .cls-5 {
        fill: #000;
      }

      .cls-6 {
        fill: #ababab;
      }

      .cls-7 {
        fill: #040404;
      }

      .cls-8 {
        fill: #4e4e4e;
      }

      .cls-9 {
        fill: #fff;
      }

      .cls-10 {
        fill: #fd8f85;
      }
    </style>
  </defs>
  <g id="Layer_1" data-name="Layer 1">
    <path class="cls-5" d="M163.16,170.07c-11.46-16.49-24.26-31.83-39.23-45.27-21.6-19.41-45.88-33.94-74.42-40.64-16.2-3.8-32.57-4.84-49.31-2.79-.2-9.99-.2-20.02.01-30.29,5.2-.54,10.19-1.13,15.17-1.09,8.27.06,16.57.2,24.8.93,7.8.68,15.59,1.84,23.27,3.39,5.34,1.07,10.49,3.1,15.7,4.8,3.09,1.01,6.02,1.03,8.57-1.16,2.36-2.02,2.32-4.7,1.58-7.47-.08-.3,0-.64.18-.98,5.68,3.77,8.28,3.47,12.96-1.33,1.66-1.7,3.3-3.5,5.26-4.81,7.08-4.74,14.14-9.55,21.49-13.85,9.63-5.64,19.65-10.57,30.39-13.82,4.82-1.46,4.83-1.38,5.1,3.57.05.9.3,1.8.22,2.68-.71,7.9-1.22,15.84-2.28,23.69-1.84,13.53-4.13,27-6.05,40.52-.83,5.83-3.14,11.64-.87,17.65.12.31-.08.81-.26,1.16-1.15,2.31-.82,4.57,0,6.91,6.18,17.64,9.46,35.76,8.62,54.51-.06,1.24-.58,2.46-.89,3.7Z"/>
    <path class="cls-2" d="M89.31,49.51c0,.32-.1.67-.02.97.74,2.77.78,5.44-1.58,7.47-2.55,2.18-5.48,2.17-8.57,1.16-5.2-1.7-10.36-3.73-15.7-4.8-7.68-1.54-15.47-2.7-23.27-3.39-8.23-.72-16.53-.86-24.8-.93-4.98-.04-9.97.55-15.17.86-.22-4.77-.22-9.54-.22-14.55,10.16-.39,20.33-.93,30.47-.64,17.75.52,35.25,2.88,51.95,9.35,2.15.83,4.01,2.42,6.15,3.52.14-.14.12-.16-.02-.04.11.36.36.6.65.89.04.04.12.13.12.13Z"/>
    <path class="cls-4" d="M0,604.96c.55.2,1.2.56,1.64,1.09,13.39,16.32,30.84,25.51,51.36,29.28,4.38.8,7.54,4.33,7.08,8.3-.5,4.36-4.35,7.29-9.03,6.57-19.2-2.95-35.94-11.23-50.92-23.69-.14-7.16-.14-14.23-.14-21.54Z"/>
    <path class="cls-4" d="M0,914.92c10.17-.19,19.78-2.87,29.17-6.42,4.13-1.56,8.12-3.49,12.14-5.33,4.37-2,8.73-.85,10.64,2.9,2.01,3.95.5,8.27-3.84,10.5-14.98,7.7-30.74,12.63-47.9,13.36-.22-4.9-.22-9.84-.22-15.01Z"/>
    <path class="cls-1" d="M0,227.5c3.73-1.87,7.51-3.39,11.17-5.17,5.92-2.88,11.76-2.99,17.71-.12,3.98,1.92,8.03,3.66,12.06,5.47,4.34,1.96,8.86,2.86,13.63,2.36,3.26-.34,5.73,1.45,6.04,4.32.32,3-1.76,5.34-5.14,5.65-5.98.55-11.79-.18-17.32-2.58-4.42-1.92-8.85-3.84-13.17-5.98-3.28-1.62-6.31-1.58-9.61,0-4.93,2.37-10,4.46-15.2,6.66-.19-3.47-.19-6.93-.19-10.62Z"/>
    <path class="cls-10" d="M0,197.92c9.91-6.9,20.6-6.92,31.54-3.65,2.17.65,4.17,2.23,5.95,3.72,1.62,1.36,1.55,3.3.03,4.78-4.91,4.78-10.79,8-17.29,10-1.35.42-3.2.11-4.54-.48-5.56-2.45-11.03-5.11-15.56-9.58-.13-1.59-.13-3.08-.13-4.8Z"/>
    <path class="cls-5" d="M432.68,496.84c-17.09,19.46-38.14,32.02-63.83,36.26-8.91,1.47-17.83,1.19-26.43-2.14-7.04-2.73-12.27-7.38-15.47-14.3-.99-2.15-2.11-4.26-3.37-6.26-5.09-8.04-12.54-11.84-21.91-10.73-8.19.97-16.31,2.7-24.41,4.31-13.4,2.67-26.68,3.33-39.71-1.77-10.76-4.21-19.62-11.13-27.46-19.46-18.35-19.48-28.86-42.7-32.72-69.04-3.6-24.5-1.43-48.56,5.94-72.39,11.51,3.53,23.28,4.42,34.98,5.63,11.71,1.21,23.45,2.17,35.15,3.48,16.56,1.85,32.72,5.49,48.42,11.18,23.47,8.51,44.2,21.51,62.05,38.84,8.98,8.72,17.34,18.13,25.42,27.7,16.91,19.99,31.05,41.84,42.42,65.45.48,1,.62,2.15.92,3.24Z"/>
    <path class="cls-5" d="M473.21,658.43c-1.07-24.45-4.44-48.59-9.38-72.85,4.79-2.15,5.85-3.71,5.82-8.82-.06-10.2-1.78-20.2-3.7-30.17-.3-1.55-.73-3.33-.27-4.73,2.4-7.31,5.21-14.49,7.61-21.81,7.25-22.12,12.69-44.72,17.49-67.47,3.93-18.64,7.59-37.34,11.17-56.06,2.69-14.06,5.37-28.13,7.49-42.27,2.37-15.85,4.36-31.76,6-47.7,1.36-13.27,2.18-26.6,2.85-39.93.61-12.28.76-24.59,1.02-36.89.25-11.89.11-23.8.62-35.69.51-12.02,1.35-24.03,2.55-36,.71-7,2.6-13.81,6.05-20.11,5.36-9.77,17.39-14.97,28.34-6.61,7.04,5.37,11.7,12.28,13.77,20.93,1.06,4.42,4.68,6.62,9.07,5.7.55-.12,1.13-.1,1.7-.14.69,3.14,1.38,6.27,1.92,9.7-5.82,1.75-7.45,4.67-6.94,10.56.64,7.34,1.05,14.73.98,22.09-.07,7.77-.98,15.53-1.21,23.3-.34,11.73-.35,23.46-.6,35.19-.22,10.24-.53,20.49-.91,30.73-.43,11.63-.9,23.25-1.51,34.87-.52,9.97-1.15,19.95-1.96,29.9-1.02,12.64-2.1,25.28-3.48,37.88-1.46,13.33-2.82,26.7-5.12,39.89-3.71,21.26-7.58,42.52-12.41,63.55-10.38,45.15-24.02,89.34-40.74,132.56-7.08,18.28-14.56,36.4-24.85,53.19-2.75,4.49-5.9,8.74-9.18,13.57-.25-.96-.35-1.17-.36-1.38-.33-7.69-.63-15.39-.98-23.08-.03-.68-.33-1.35-.5-2.25-.11-3.36-.23-6.5-.35-9.63Z"/>
    <path class="cls-5" d="M238.44,672.8c-7.86-24.4-8.31-48.39,2.57-71.86,7.51-16.2,19.93-28.13,34.46-38,11.99-8.15,25.02-13.89,39.51-15.96,20.5-2.93,38.96,2.18,53.97,16.19,27.88,26.04,48.08,57.09,57,94.64,4.13,17.41,4.12,34.8-2.55,51.78-3.31,8.43-8.1,15.94-14.5,22.32-10.32,10.29-22,18.67-35.64,24.02-18.8,7.38-37.13,5.17-55.07-3.12-16.43-7.6-30.78-18.39-44.81-29.63-16.58-13.28-28.01-30.16-34.94-50.38Z"/>
    <path class="cls-8" d="M581.46,157.65c-.63.2-1.21.18-1.76.3-4.4.93-8.02-1.27-9.07-5.7-2.07-8.65-6.73-15.56-13.77-20.93-10.95-8.35-22.98-3.16-28.34,6.61-3.45,6.3-5.35,13.11-6.05,20.11-1.21,11.96-2.04,23.98-2.55,36-.51,11.88-.38,23.79-.62,35.69-.26,12.3-.4,24.61-1.02,36.89-.67,13.32-1.48,26.66-2.85,39.93-1.63,15.94-3.63,31.85-6,47.7-2.11,14.15-4.8,28.22-7.49,42.27-3.58,18.71-7.24,37.42-11.17,56.06-4.8,22.75-10.24,45.35-17.49,67.47-2.4,7.31-5.21,14.49-7.61,21.81-.46,1.4-.03,3.18.27,4.73,1.91,9.98,3.64,19.97,3.7,30.17.03,5.11-1.02,6.68-5.83,8.63-1,.02-1.89-.06-2.77-.21-3.67-.65-6.11-3.4-6.25-7.13-1.09-28.3-9.53-54.67-21.06-80.23-.16-.35-.46-.63-.88-.96-.48-1.1-.62-2.25-1.1-3.25-11.37-23.61-25.51-45.46-42.42-65.45-8.09-9.56-16.45-18.98-25.42-27.7-17.85-17.33-38.58-30.32-62.05-38.84-15.69-5.69-31.86-9.33-48.42-11.18-11.7-1.3-23.44-2.27-35.15-3.48-11.71-1.21-23.47-2.09-34.93-5.82-30.51-12.23-46.19-35.39-49.88-67.21-2.01-17.32,2.59-33.48,9.82-49.04,4.73-10.17,9.81-20.2,13.95-30.61,2.74-6.87,4.11-14.29,6.03-21.49.19-.73-.01-1.56-.08-2.53.26-1.42.79-2.64.85-3.88.84-18.75-2.44-36.86-8.62-54.51-.82-2.34-1.15-4.6,0-6.91.17-.35.38-.85.26-1.16-2.28-6.01.04-11.82.87-17.65,1.93-13.52,4.21-26.99,6.05-40.52,1.07-7.86,1.57-15.79,2.28-23.69.08-.88-.18-1.78-.22-2.68-.27-4.95-.28-5.02-5.1-3.57-10.74,3.25-20.76,8.18-30.39,13.82-7.35,4.31-14.41,9.11-21.49,13.85-1.95,1.31-3.6,3.11-5.26,4.81-4.68,4.79-7.28,5.09-12.96,1.33-.16.01-.24-.08-.25-.28-.18-.42-.36-.64-.54-.86,0,0,.02.03.03.04-1.95-4.56-.19-8.03,3.18-11.11,10.19-9.3,21.76-16.61,33.74-23.3,9.96-5.56,20.2-10.59,31.44-13.07,3.09-.68,6.33-.96,9.5-.92,6.09.07,9.88,3.5,11.74,9.12,1.89,5.7,2.01,11.62,1.75,17.54-.83,18.9-4.25,37.47-7.31,56.08-.88,5.34-1.5,10.72-2.29,16.07-.15,1.04-.3,2.24-.91,3.01-1.47,1.85-.86,3.45-.18,5.4,6.2,17.96,9.76,36.4,9.49,55.48-.21,14.94-4.48,28.96-10.07,42.58-3.23,7.87-7.15,15.46-10.93,23.09-6.35,12.83-10.71,26.24-9.92,40.66,1.4,25.56,12.69,45.15,36.33,56.46,7.93,3.79,16.67,4.79,25.31,5.73,17.37,1.89,34.82,3.19,52.12,5.57,46.94,6.45,87.2,26.34,120.07,60.79,23.64,24.78,44.3,51.74,59.79,82.37,6.2,12.26,11.4,25.02,16.93,37.27,1.4-4.59,3.09-9.8,4.59-15.05,8.08-28.32,14.28-57.07,19.79-85.97,4.22-22.14,8.46-44.29,12-66.55,2.66-16.75,4.62-33.65,6.2-50.54,3.31-35.27,2.86-70.69,3.64-106.07.33-15.26.95-30.53,4.36-45.5,1.89-8.3,4.66-16.26,10.21-22.92,10.01-12.02,29.27-18.35,46.74-5.12,9.26,7.02,15.4,16.18,18.68,27.34,1.29,4.38.58,7.89-3.23,10.81Z"/>
    <path class="cls-8" d="M473.55,668.3c.18.67.48,1.34.51,2.02.35,7.69.66,15.39.98,23.08,0,.21.11.42.36,1.38,3.28-4.82,6.42-9.07,9.18-13.57,10.29-16.78,17.77-34.9,24.85-53.19,16.72-43.22,30.36-87.41,40.74-132.56,4.83-21.02,8.7-42.29,12.41-63.55,2.3-13.19,3.66-26.57,5.12-39.89,1.39-12.6,2.46-25.24,3.48-37.88.81-9.95,1.43-19.93,1.96-29.9.61-11.62,1.08-23.24,1.51-34.87.38-10.24.69-20.48.91-30.73.26-11.73.26-23.46.6-35.19.23-7.77,1.14-15.53,1.21-23.3.06-7.36-.34-14.75-.98-22.09-.52-5.89,1.11-8.81,6.95-10.35,6.47,1.78,7.39,3.11,8.07,9.7,1.49,14.52.58,29.01.03,43.54-.85,22.48-.72,45-1.71,67.47-1.19,27.14-2.58,54.29-4.87,81.35-1.92,22.71-4.75,45.37-8.07,67.92-4.71,31.97-11.92,63.46-20.45,94.63-11.33,41.38-24.49,82.15-41.35,121.65-6.96,16.31-14.59,32.31-25.46,46.47-3.29,4.28-6.74,8.61-10.85,12.04-2.86,2.38-3.43,4.73-3.47,8.01-.19,14.21-1.44,28.33-3.45,42.42-3.52,24.68-13.03,46.67-28.17,66.44-20.05,26.18-43.29,48.88-71.05,66.78-10.86,7-22.23,13.23-35.03,15.67-7.19,1.37-14.67,1.68-22.02,1.62-27.83-.24-55.66-.62-83.48-1.4-11.78-.33-23.61-1.58-34.92-5.19-11.75-3.75-21.22-10.55-24.05-23.35-3.65-16.52,1.51-31.76,16.47-41.48,10.38-6.75,21.89-10.3,34.07-11.86,4.3-.55,8.04,2.57,8.46,6.77.41,4.16-2.58,7.66-7.02,8.28-7.68,1.07-15.09,3.11-22.07,6.5-2.35,1.14-4.62,2.51-6.74,4.03-8.41,5.99-10.56,14.42-8.96,24.12.77,4.7,3.8,7.89,7.8,10.22,5.8,3.38,12.29,4.45,18.78,5.43,14.32,2.15,28.76,2.7,43.21,2.88,18.06.22,36.14.02,54.18.72,19.48.75,36.76-4.96,52.93-15.36,32.27-20.75,59.11-46.76,78.59-80.05,8.18-13.97,12.26-29.24,14.58-45.09,3.67-24.98,3.85-50.09,2.03-75.19-1.19-16.35-3.25-32.64-4.97-48.96-.47-4.5,1.94-8.08,6.19-8.91,4.09-.8,8.01,1.79,8.69,6.36,1.3,8.68,2.24,17.41,3.3,26.54.31,3.58.66,6.72,1,9.87Z"/>
    <path class="cls-8" d="M174.45,712.68c-6.28,31.14-12.67,62.04-18.71,93.01-2.89,14.8-5.12,29.73-7.63,44.6-.31,1.86-.4,3.76-.72,5.61-.74,4.26.57,7.82,3.21,11.16,3.96,5.02,7.98,10.03,11.45,15.39,6.05,9.36,8.5,19.71,6.47,30.79-1.13,6.16-4.64,10.75-10.57,13.27-6.12,2.6-12.55,3.88-19.12,4.22-17.08.9-33.97-.5-50.42-5.33-7.97-2.34-15.15-6.31-20.47-12.98-4.23-5.3-5.99-11.23-4.32-17.96,1.02-4.08,4.61-6.51,8.44-5.77,4.58.89,7.11,4.17,6.24,8.68-.59,3.07.54,5.29,2.53,7.28,4.76,4.77,10.78,7.17,17.19,8.49,12.33,2.54,24.8,4.02,37.41,3.46,5.23-.23,10.48-.71,15.18-3.51,2.06-1.22,2.97-2.96,3.06-5.25.24-5.74-1.15-11.12-4.09-15.98-2.67-4.41-5.75-8.58-8.67-12.84-.65-.95-1.31-1.9-2.07-2.76-6.13-6.99-7.39-15.02-6.22-24.1,3.66-28.42,9.06-56.52,15.01-84.51,9.53-44.81,19.5-89.52,29.3-134.26.77-3.52,1.61-7.03,2.44-10.54,1.04-4.4,5.11-7.13,9.16-6.15,4.26,1.02,6.66,5.23,5.6,9.73-4.71,20.1-9.45,40.19-14.09,60.31-1.97,8.54-3.72,17.14-5.59,25.92Z"/>
    <path class="cls-4" d="M52.93,698.63c3.12,10.63,6.46,21.01,9.13,31.56,2.69,10.64,3.06,21.63,2.84,32.54-.54,27.41-1.43,54.82-2.2,82.23-.12,4.18-.41,8.36-.58,12.55-.2,5.02-3.17,8.17-7.67,8.05-4.38-.11-7.45-3.62-7.25-8.49.75-18.62,1.88-37.23,2.22-55.86.34-18.95.24-37.93-.29-56.88-.31-11.04-3.97-21.54-7.42-31.99-5.29-16.02-10.47-32.08-15.69-48.12-1.03-3.15-.59-6.05,1.9-8.35,2.34-2.18,5.15-2.39,8.04-1.27,2.21.86,3.5,2.6,4.22,4.83,4.22,13.01,8.45,26.02,12.77,39.2Z"/>
    <path class="cls-7" d="M106.46,160.25c-2.25,11.96-8.47,20.16-20.55,22.88-9.69,2.18-18.57.16-26.32-6.1-7.48-6.04-9.42-16.22-5.35-25.95,2.03-4.86,5.2-7.98,10.52-9.26,9.54-2.3,19.16-3.44,28.95-3.63,7.95-.15,11.14,4.29,12.23,9.68.79,3.93.41,8.09.53,12.36M59.73,167.16c2.04,2.19,3.79,4.8,6.18,6.48,5.66,3.97,12.12,4.82,18.81,3.29,11.75-2.69,19.36-17.37,14.72-28.57-.61-1.48-2.19-3.3-3.58-3.56-2.93-.55-6.03-.17-9.67-.17,5.03,5.64,6.55,11.46,5.44,17.98-.98,5.77-4.97,10.25-9.62,10.88-4.57.62-9.41-2.53-11.84-7.95-2.78-6.19-2.65-12.37.74-18.62-1.79.39-3.43.59-4.95,1.11-1.35.46-3.05.96-3.76,2.01-3.49,5.11-4.88,10.68-2.47,17.12Z"/>
    <path class="cls-6" d="M473.55,668.07c-.35-2.92-.69-6.06-.99-9.43.14-.21.24-.2.49-.2.27,3.13.39,6.26.5,9.63Z"/>
    <path class="cls-9" d="M88.55,48.48c.32.09.5.31.64.69-.29-.08-.54-.32-.64-.69Z"/>
    <path class="cls-3" d="M59.67,166.98c-2.36-6.25-.97-11.82,2.52-16.93.72-1.05,2.42-1.54,3.76-2.01,1.52-.52,3.16-.73,4.95-1.11-3.39,6.25-3.52,12.43-.74,18.62,2.43,5.41,7.27,8.56,11.84,7.95,4.65-.63,8.64-5.11,9.62-10.88,1.1-6.52-.41-12.34-5.44-17.98,3.64,0,6.75-.38,9.67.17,1.39.26,2.97,2.08,3.58,3.56,4.64,11.19-2.97,25.88-14.72,28.57-6.69,1.53-13.15.68-18.81-3.29-2.4-1.68-4.14-4.29-6.24-6.66Z"/>
  </g>
</svg>