<?xml version="1.0" encoding="UTF-8"?>
<svg id="_レイヤー_2" data-name="レイヤー 2" xmlns="http://www.w3.org/2000/svg" xmlns:xlink="http://www.w3.org/1999/xlink" viewBox="0 0 344.87 344.87">
  <defs>
    <style>
      .cls-1 {
        fill: url(#_名称未設定グラデーション_11);
        stroke-width: 0px;
      }
    </style>
    <linearGradient id="_名称未設定グラデーション_11" data-name="名称未設定グラデーション 11" x1="26.65" y1="102.27" x2="344.21" y2="102.27" gradientTransform="translate(383.87 145.23) rotate(144)" gradientUnits="userSpaceOnUse">
      <stop offset=".03" stop-color="#d1d1d2"/>
      <stop offset=".18" stop-color="#e4e4e4"/>
      <stop offset=".32" stop-color="#fafafa"/>
      <stop offset=".85" stop-color="#aaaaab"/>
      <stop offset="1" stop-color="#949495"/>
    </linearGradient>
  </defs>
  <g id="_レイヤー_1-2" data-name="レイヤー 1">
    <polygon class="cls-1" points="273.79 311.94 237.84 300.8 225.72 336.43 194.97 314.73 172.43 344.87 149.9 314.73 119.15 336.43 107.03 300.8 71.08 311.94 70.56 274.31 32.93 273.79 44.07 237.84 8.44 225.72 30.14 194.97 0 172.43 30.14 149.9 8.44 119.15 44.07 107.03 32.93 71.08 70.56 70.56 71.08 32.93 107.03 44.07 119.15 8.44 149.9 30.14 172.43 0 194.97 30.14 225.72 8.44 237.84 44.07 273.79 32.93 274.31 70.56 311.94 71.08 300.8 107.03 336.43 119.15 314.73 149.9 344.87 172.43 314.73 194.97 336.43 225.72 300.8 237.84 311.94 273.79 274.31 274.31 273.79 311.94"/>
  </g>
</svg>