<?xml version="1.0" encoding="UTF-8"?>
<svg id="_レイヤー_2" data-name="レイヤー 2" xmlns="http://www.w3.org/2000/svg" viewBox="0 0 416.94 530.08">
  <defs>
    <style>
      .cls-1 {
        stroke: #211815;
        stroke-miterlimit: 10;
      }

      .cls-1, .cls-2 {
        fill: #fff;
      }

      .cls-3 {
        fill: #d4373f;
      }

      .cls-3, .cls-2, .cls-4 {
        stroke-width: 0px;
      }

      .cls-5 {
        fill: #211815;
        font-family: AB-digicomb-83pv-RKSJ-H, AB-digicomb;
        font-size: 48px;
        letter-spacing: .02em;
      }

      .cls-4 {
        fill: #030000;
        opacity: .2;
      }
    </style>
  </defs>
  <g id="_レイヤー_1-2" data-name="レイヤー 1">
    <path class="cls-4" d="M60.48,0h266.64c33.38,0,60.48,27.1,60.48,60.48v469.6H0V60.48C0,27.1,27.1,0,60.48,0Z"/>
    <path class="cls-3" d="M62.18,2.32h263.24c33.38,0,60.48,27.1,60.48,60.48v464.96H1.7V62.8C1.7,29.42,28.8,2.32,62.18,2.32Z"/>
    <g>
      <path class="cls-1" d="M117.26,44.16c0-.57-.43-1.02-1.01-.98-1.77.13-3.53.26-5.3.4-.49.04-.93-.41-.93-.95v-.57c0-.54.43-1.05.93-1.09,5-.39,10-.74,15.01-1.05.49-.03.93.42.93.96v.57c0,.54-.43,1.05-.93,1.08-1.79.11-3.57.23-5.36.35-.52.04-.96.54-.96,1.12v19.09c0,.64-.43,1.15-.93,1.18-.17.01-.35.02-.52.04-.49.03-.93-.41-.93-1.05v-19.09Z"/>
      <path class="cls-1" d="M138.97,48.73c0-.57-.06-1.21-.2-1.36-.14-.15-.73-.19-1.25-.16-.63.03-1.26.07-1.88.1-.49.03-1.07.12-1.22.29-.14.17-.29.81-.29,1.39,0,.54-.44,1.04-.96,1.07-.16,0-.33.02-.49.03-.52.03-.96.53-.96,1.11v11.12c0,.64-.43,1.14-.93,1.17-.17.01-.35.02-.52.03-.49.03-.93-.42-.93-1.06v-21.74c0-.54.44-1.05.93-1.08.17-.01.35-.02.52-.03.49-.03.93.42.93.97v5.83c0,.64.43,1.09.96,1.06.49-.03,1.07-.22,1.22-.39.14-.17.23-.75.23-1.38,0-.54.44-1.04,1.01-1.08.97-.05,1.93-.1,2.9-.15.49-.03.93.43.93.97,0,.64.15,1.2.29,1.36.14.15.67.29,1.16.26.58-.03.96.43.96.97v13.77c0,.64-.44,1.14-.96,1.16-.16,0-.33.02-.49.02-.52.03-.96-.43-.96-1.07v-13.2Z"/>
      <path class="cls-1" d="M150.2,43.92c.43-.02.87.41.87,1.15v16.16c0,.48-.44.97-.87.99-.21,0-.43.02-.64.03-.44.02-.87-.44-.87-.92v-13.07c0-.48,0-.96.2-.96.23,0,.44-.24.44-.72,0-.25-.44-.72-.64-.71-.44.02-.67.28-.67.51,0,.25-.41.27-.84.29-.43.02-.87-.44-.87-.92v-.48c0-.73.44-1.2.87-1.22,1.01-.04,2.01-.08,3.02-.12ZM150.2,38.66c.43-.02.87.44.87.92v.73c0,.48-.44.94-.87.96-.21,0-.43.02-.64.03-.44.02-.87-.41-.87-.89v-.73c0-.48.44-.97.87-.99.21,0,.43-.02.64-.03Z"/>
      <path class="cls-1" d="M159.8,62.2c-.17,0-.35.01-.52.02-.49.02-.93-.45-.93-1.09v-16.38c0-.64.44-1.13.93-1.15.17,0,.35-.01.52-.02.49-.02.93.45.93,1.09v.48c0,.64.44,1.1.96,1.09.49-.01,1.07-.19,1.22-.35.15-.16.23-.74.23-1.38,0-.54.44-1.03,1.02-1.05.97-.03,1.93-.05,2.9-.07.49-.01.93.46.93,1,0,.64.15,1.21.29,1.36.14.16.67.3,1.16.29.58-.01.96.46.96,1v.57c0,.54-.44,1.03-.96,1.04-.16,0-.33,0-.49.01-.52.01-.96-.46-.96-1,0-.57-.06-1.21-.2-1.37-.14-.16-.73-.21-1.25-.19-.63.02-1.26.03-1.89.05-.49.01-1.07.09-1.22.26-.15.16-.29.8-.29,1.38,0,.54-.44,1.03-.96,1.05-.16,0-.33,0-.49.01-.52.02-.96.51-.96,1.08v11.12c0,.64-.44,1.13-.93,1.14Z"/>
      <path class="cls-1" d="M175.26,46.95c0-.54.44-1.03.93-1.03.52,0,1.1-.18,1.25-.34.14-.16.2-.74.2-1.37,0-.54.44-1.03.96-1.03,1.79-.02,3.58-.04,5.37-.06.49,0,.93-.48.93-1.06v-3.19c0-.54.44-1.02.96-1.03.16,0,.33,0,.49,0,.52,0,.96.47.96,1.02v21.74c0,.64-.44,1.12-.96,1.12-2.58.01-5.17.04-7.75.07-.52,0-.96-.47-.96-1.1,0-.54-.06-1.11-.2-1.27-.15-.16-.73-.31-1.25-.3-.49,0-.93-.46-.93-1.01,0-3.72,0-7.44,0-11.16ZM184.9,46.84c0-.54-.44-1.02-.93-1.01-1.6.01-3.19.03-4.79.05-.58,0-1.1.08-1.25.24-.15.16-.29.8-.29,1.37v10.01c0,.57.15,1.21.29,1.37.14.16.67.21,1.25.21,1.6-.02,3.19-.04,4.79-.05.49,0,.93-.49.93-1.03v-11.16Z"/>
      <path class="cls-1" d="M194.57,60.59c0-.54-.06-1.12-.2-1.28-.15-.16-.73-.32-1.25-.32-.49,0-.93-.48-.93-1.02,0-.19,0-.38,0-.57,0-.54.44-1.02.93-1.02.17,0,.35,0,.52,0,.49,0,.93.48.93,1.02,0,.57.15,1.21.29,1.37.15.16.67.22,1.25.23,2.23,0,4.45.02,6.68.05.49,0,1.07-.05,1.22-.21.15-.16.23-.79.23-1.37v-4.69c0-.64-.09-1.18-.23-1.34-.15-.16-.73-.33-1.22-.33-2.42-.02-4.84-.04-7.26-.05-.52,0-.96-.48-.96-1.05,0-.54-.06-1.18-.2-1.34-.15-.1-.73-.26-1.25-.26-.49,0-.93-.48-.93-1.02,0-1.97,0-3.93,0-5.9,0-.57.44-1.05.93-1.05.52,0,1.1-.16,1.25-.32.15-.16.2-.7.2-1.27,0-.64.44-1.02.96-1.02,2.58,0,5.17.03,7.75.05.52,0,.96.39.96,1.03,0,.57.15,1.12.29,1.28.15.16.64.33,1.22.33.52,0,.96.49.96,1.06v.54c0,.57-.44,1.05-1.02,1.04-.15,0-.29,0-.44,0-.58,0-1.02-.49-1.02-1.06,0-.54-.09-1.18-.23-1.34-.15-.16-.73-.26-1.22-.27-2.23-.02-4.45-.04-6.68-.05-.58,0-1.1.09-1.25.25-.14.16-.29.8-.29,1.34,0,1.59,0,3.19,0,4.78,0,.57.15,1.12.29,1.28.15.16.67.32,1.25.32,2.39,0,4.78.03,7.17.05.52,0,.96.49.96,1.06,0,.54.15,1.18.29,1.34.15.16.64.26,1.22.27.52,0,.96.49.96,1.13v5.8c0,.54-.44,1.01-.96,1.01-.58,0-1.07.15-1.22.3-.15.16-.29.73-.29,1.27,0,.64-.44,1.11-.96,1.11-2.58-.03-5.17-.05-7.75-.05-.52,0-.96-.48-.96-1.12Z"/>
      <path class="cls-1" d="M212.47,45.99c.52.01,1.1-.14,1.25-.29.15-.16.2-.73.2-1.37,0-.54.44-1.01.96-1,1.79.04,3.58.08,5.37.13.49.01.93.5.93,1.05,0,.64.14,1.22.29,1.38.14.16.67.34,1.16.35.58.02.96.51.96,1.05,0,.19,0,.38,0,.57,0,.54-.44,1.01-.96.99-.16,0-.33,0-.49-.01-.52-.01-.96-.5-.96-1.05,0-.57-.06-1.21-.2-1.38-.15-.16-.73-.24-1.25-.26-1.42-.04-2.84-.07-4.27-.1-.58-.01-1.1.04-1.25.2-.14.16-.29.79-.29,1.36v10.01c0,.57.15,1.21.29,1.38.15.16.67.24,1.25.25,1.42.03,2.84.07,4.27.1.52.01,1.1-.03,1.25-.19.14-.16.2-.79.2-1.37,0-.54.43-1.01.96-.99.16,0,.33,0,.49.01.52.02.96.51.96,1.05,0,.19,0,.38,0,.57,0,.54-.38,1.01-.96.99-.49-.01-1.02.13-1.16.29-.15.16-.29.72-.29,1.27,0,.64-.44,1.1-.93,1.09-1.79-.05-3.58-.09-5.37-.13-.52-.01-.96-.5-.96-1.14,0-.54-.06-1.12-.2-1.28-.14-.16-.72-.33-1.25-.34-.49,0-.93-.5-.93-1.04v-11.16c0-.54.44-1.01.93-1Z"/>
      <path class="cls-1" d="M240.5,59.08c0,.54-.38,1-.96.98-.49-.02-1.02.11-1.16.27-.15.15-.29.72-.29,1.26,0,.64-.44,1.1-.93,1.08-1.79-.08-3.58-.15-5.37-.22-.52-.02-.96-.51-.96-1.15,0-.54-.06-1.12-.2-1.28-.15-.17-.73-.35-1.25-.36-.49-.02-.93-.51-.93-1.05v-11.16c0-.54.44-1.01.93-.99.52.02,1.1-.12,1.25-.27.14-.15.2-.73.2-1.36,0-.54.43-1,.96-.98,1.79.07,3.58.14,5.37.22.49.02.93.52.93,1.06,0,.64.14,1.22.29,1.38.14.17.67.35,1.16.37.58.03.96.52.96,1.06,0,3.72,0,7.44,0,11.16ZM238.1,48.39c0-.57-.06-1.21-.2-1.38-.15-.17-.73-.25-1.25-.28-1.42-.06-2.84-.12-4.27-.17-.58-.02-1.1.02-1.25.18-.15.15-.29.79-.29,1.36v10.01c0,.57.14,1.22.29,1.38.14.16.67.25,1.25.27,1.42.05,2.84.11,4.27.17.52.02,1.1-.02,1.25-.17.14-.15.2-.79.2-1.36,0-3.34,0-6.67,0-10.01Z"/>
      <path class="cls-1" d="M245.37,45.58c0-.54.44-1,.93-.97,2.59.13,5.18.28,7.77.43.49.03.93.53.93,1.08,0,.57.14,1.22.29,1.39.14.17.67.26,1.16.29.58.04.96.54.96,1.11,0,3.72,0,7.44,0,11.16,0,.64-.38,1.09-.96,1.06-.49-.03-1.02,0-1.16.15-.15.15-.29.78-.29,1.35,0,.54-.44.99-.93.96-1.79-.11-3.58-.21-5.36-.3-.52-.03-.96.43-.96.97,0,1.06,0,2.12,0,3.19,0,.64-.44,1.09-.93,1.07-.17,0-.35-.02-.52-.03-.49-.03-.93-.53-.93-1.16,0-7.25,0-14.49,0-21.74ZM247.75,59.5c0,.64.43,1.14.96,1.17,1.61.09,3.23.18,4.84.27.52.03,1.1-.09,1.25-.25.14-.15.2-.72.2-1.36,0-3.32,0-6.63,0-9.95,0-.64-.06-1.21-.2-1.38-.15-.17-.73-.36-1.25-.39-1.61-.09-3.23-.18-4.84-.27-.52-.03-.96.43-.96,1,0,3.72,0,7.44,0,11.16Z"/>
      <path class="cls-1" d="M265.61,56.33c-.52-.04-.96.41-.96.95,0,.87,0,1.74,0,2.61,0,.57.14,1.22.29,1.39.14.17.67.27,1.25.31,1.42.1,2.84.2,4.26.31.52.04,1.1.02,1.25-.13.14-.15.2-.78.2-1.36,0-.54.43-.99.96-.95.16.01.33.03.49.04.52.04.96.55.96,1.09v.57c0,.54-.38.99-.96.95-.49-.04-1.01.08-1.16.23-.15.15-.29.71-.29,1.25,0,.64-.43,1.08-.93,1.05-1.79-.13-3.57-.26-5.36-.39-.52-.04-.96-.54-.96-1.18,0-.54-.06-1.12-.2-1.29-.15-.17-.72-.37-1.25-.4-.49-.03-.93-.54-.93-1.08,0-3.72,0-7.44,0-11.16,0-.54.44-.99.93-.96.52.04,1.1-.08,1.25-.23.14-.15.2-.72.2-1.36,0-.54.43-.99.96-.95,1.79.12,3.57.25,5.36.39.49.04.93.55.93,1.09,0,.64.14,1.22.29,1.39.14.17.67.37,1.16.41.58.04.96.55.96,1.09v5.83c0,.64-.43,1.08-.96,1.04-2.58-.2-5.16-.39-7.74-.57ZM264.65,52.5c0,.57.43,1.08.96,1.12,1.56.11,3.13.22,4.69.34.58.04,1.01.24,1.01.39,0,.22.29.4.58.43.38.03.58-.27.58-.66,0-.32-.06-.64-.29-.66-.15-.01-.29-.5-.29-1.07,0-.66,0-1.32,0-1.98,0-.57-.06-1.22-.2-1.39-.15-.17-.72-.28-1.25-.32-1.42-.11-2.84-.21-4.26-.31-.58-.04-1.1-.01-1.25.14-.15.15-.29.78-.29,1.35,0,.87,0,1.74,0,2.61Z"/>
    </g>
    <g>
      <path class="cls-1" d="M104.42,120.22v1.06c0,1.12-.85,2.1-1.81,2.15-.34.02-.68.04-1.02.06-.96.05-1.81-.83-1.81-1.95,0-1.06-.28-2.28-.57-2.45-.28-.3-1.3-.55-2.43-.48-.96.06-1.81-.83-1.81-1.88,0-1.12-.17-2.35-.45-2.65-.28-.29-1.41-.35-2.38-.29-1.02.06-1.87-.82-1.87-1.88,0-1.24-.28-2.35-.57-2.64-.28-.29-1.24-.54-2.26-.48-1.23.08-2.45.16-3.68.24-1.13.07-2.09.45-2.37.78-.28.33-.57,1.47-.57,2.71,0,1.06-.85,2.05-1.87,2.12-.96.07-2.09.27-2.26.59-.28.33-.57,1.59-.57,2.71,0,1.06-.85,2.05-1.81,2.12-1.02.07-2.15.47-2.43.8-.28.21-.4,1.46-.4,2.52,0,1.12-.85,2.11-1.98,2.2-1.88.14-3.77.28-5.65.43-1.02.08-1.86-.79-1.86-1.91,0-.35,0-.7,0-1.06,0-1.12.85-2.12,1.86-2.2,1.54-.12,3.09-.24,4.63-.35,1.13-.08,2.15-.47,2.43-.8.28-.15.57-1.41.57-2.53,0-1.06.85-2.05,1.81-2.12,1.02-.07,2.15-.46,2.26-.78.28-.33.57-1.41.57-2.65,0-1.12.85-2.11,1.87-2.18.96-.07,2.09-.27,2.37-.6.28-.33.45-1.58.45-2.7,0-1.06.85-2.05,1.98-2.12.28-.02.57-.04.85-.06,1.13-.07,1.98-1.06,1.98-2.18v-6.22c0-1.24.85-2.23,1.81-2.29,1.02-.06,1.98-.25,2.26-.58.28-.33.57-1.28.57-2.09,0-.75.28-1.39.57-1.4.28-.02.57-.53.57-1.28,0-.62-.57-1.21-1.13-1.17-.68.04-1.13.38-1.13.69,0,.31-.85.68-1.98.75-6.16.39-12.33.82-18.49,1.28-1.13.08-1.98-.78-1.98-1.9v-1.06c0-1.12.85-2.12,1.98-2.2,8.14-.61,16.28-1.15,24.43-1.64,1.02-.06,1.87.82,1.87,1.94,0,2.07,0,4.15,0,6.22,0,1.06-.85,2.04-1.87,2.1-.96.06-2.09.44-2.38.77-.17.32-.45,1.58-.45,2.7,0,3.05,0,6.09,0,9.14,0,1.12.28,2.35.45,2.65.28.29,1.41.35,2.38.29,1.02-.06,1.87.82,1.87,1.94,0,1.24.28,2.28.57,2.58.28.29,1.24.55,2.26.49,1.13-.07,1.98.82,1.98,1.88,0,1.12.11,2.36.4,2.47.28.29,1.3.55,2.43.49.96-.05,1.81.83,1.81,1.95Z"/>
      <path class="cls-1" d="M154.4,80.03c1.13-.03,1.98.89,1.98,2,0,3.77,0,7.54,0,11.32,0,1.24-.85,2.2-1.98,2.22-1.02.02-1.98.24-2.26.55-.28.32-.57,1.57-.57,2.63,0,1.72,0,3.44,0,5.16,0,1.06-.85,2.01-1.87,2.04-.96.03-2.1.37-2.38.69-.28.32-.45,1.44-.45,2.69,0,1.06-.85,2.01-1.81,2.04-1.02.03-2.15.19-2.43.51-.28.32-.4,1.57-.4,2.69,0,1.06-.85,2.02-1.98,2.05-1.57.05-3.13.1-4.7.16-.96.03-2.09.39-2.26.7-.28.2-.57,1.45-.57,2.51,0,1.12-.85,2.08-1.81,2.12-1.89.07-3.77.15-5.66.23-1.13.05-1.98-.85-1.98-1.97v-1.06c0-1.12.85-2.09,1.98-2.13,1.55-.06,3.09-.13,4.64-.19,1.02-.04,2.15-.39,2.26-.71.28-.32.57-1.39.57-2.51,0-1.06.85-2.02,1.87-2.06,1.55-.06,3.09-.11,4.64-.16,1.13-.04,2.15-.38,2.43-.7.28-.32.57-1.39.57-2.63,0-1.12.85-2.08,1.81-2.11,1.02-.03,1.98-.18,2.26-.5.28-.32.57-1.57.57-2.69,0-1.7,0-3.4,0-5.1,0-1.12.85-2.08,1.87-2.1.96-.03,2.1-.37,2.38-.69.28-.32.45-1.38.45-2.62,0-1.24,0-2.49,0-3.73,0-1.24.28-2.18.57-2.19.4-.01.68-.51.68-1.26,0-.62-.57-1.23-1.25-1.21-.57.01-1.13.34-1.13.65,0,.31-.85.64-1.87.67-4.34.12-8.68.26-13.02.41-.96.03-2.09.39-2.26.7-.28.32-.57,1.39-.57,2.51,0,1.24-.85,2.02-1.81,2.06-1.02.04-2.15.39-2.43.72-.28.32-.4,1.45-.4,2.69,0,1.06-.85,2.02-1.87,2.07-1.13.05-2.09.27-2.38.6-.28.32-.57,1.58-.57,2.64,0,1.12-.85,2.09-1.87,2.13-.32.01-.64.03-.96.04-1.02.05-1.87-.85-1.87-1.97,0-.35,0-.7,0-1.06,0-1.12.85-2.09,1.87-2.14.96-.04,2.09-.4,2.38-.73.28-.32.45-1.39.45-2.51,0-1.24.85-2.21,1.81-2.25,1.13-.05,2.15-.21,2.43-.53.28-.32.57-1.58.57-2.7,0-1.06.85-2.02,1.81-2.06,1.02-.04,2.15-.27,2.26-.58.28-.32.57-1.58.57-2.63,0-1.72,0-3.44,0-5.16,0-1.06.85-2.02,1.87-2.06.32-.01.64-.02.96-.03,1.02-.04,1.87.87,1.87,1.92,0,.37,0,.75,0,1.12,0,1.06.85,1.96,1.98,1.92,5-.17,10-.31,15-.43Z"/>
      <path class="cls-1" d="M211.03,89.84c.96,0,1.81.95,1.81,2.19,0,3.79,0,7.59,0,11.38,0,1.06-.85,1.98-1.81,1.97-1.02,0-2.15.29-2.44.6-.28.31-.4,1.43-.4,2.67,0,1.06-.85,1.98-1.98,1.98-1.02,0-1.98.11-2.27.42-.28.31-.57,1.55-.57,2.67,0,1.06-.85,1.99-1.87,1.98-1.55,0-3.1,0-4.64,0-1.02,0-2.15.31-2.44.62-.28.19-.4,1.43-.4,2.49,0,1.12-.85,2.05-1.98,2.06-3.45,0-6.91.03-10.36.06-.96,0-1.81-.92-1.81-2.04,0-.35,0-.7,0-1.06,0-1.12.85-2.06,1.81-2.07,3.11-.03,6.23-.04,9.34-.05,1.13,0,2.15-.32,2.44-.63.28-.12.57-1.37.57-2.49,0-1.06.85-1.99,1.81-1.99,1.57,0,3.13,0,4.7,0,.96,0,2.1-.3,2.38-.61.28-.31.45-1.37.45-2.61,0-1.12.85-2.05,1.81-2.04,1.13,0,2.15-.11,2.44-.42.28-.31.57-1.55.57-2.67v-3.85c0-1.12.11-2.05.57-2.05.28,0,.57-.62.57-1.24,0-.75-.57-1.37-1.13-1.38-.74,0-1.3.3-1.3.74,0,.31-.85.62-1.81.61-9.35-.05-18.69-.02-28.04.09-1.13.01-1.98-.91-1.98-2.15,0-.31,0-.62,0-.93,0-1.24.85-2.19,1.98-2.2,11.33-.13,22.66-.14,33.98-.05ZM179.87,77.61c0-.37,0-.75,0-1.12,0-1.06.85-2,1.81-2.01,8.17-.07,16.35-.08,24.52-.04,1.13,0,1.98.95,1.98,2v1.12c0,1.06-.85,1.98-1.98,1.98-8.17-.05-16.35-.03-24.52.04-.96,0-1.81-.92-1.81-1.97Z"/>
      <path class="cls-1" d="M241.32,98.76c0-1.06-.28-2.31-.57-2.63-.28-.32-1.3-.53-2.43-.56-.96-.02-1.81-.98-1.81-2.22,0-.31,0-.62,0-.93,0-1.24.85-2.16,1.98-2.13.28,0,.57.01.85.02,1.13.03,1.98.98,1.98,2.23,0,1.12.11,2.18.4,2.5.28.32,1.42.66,2.43.69.96.03,1.81.98,1.81,2.1v6.22c0,1.06-.85,1.97-1.81,1.94-.34,0-.68-.02-1.02-.03-.96-.03-1.81-.98-1.81-2.04,0-1.72,0-3.44,0-5.16ZM247.83,90.55c-1.02-.03-1.87-.99-1.87-2.04v-1.12c0-1.06.85-1.97,1.87-1.93.32,0,.64.02.96.03,1.02.03,1.87.99,1.87,2.05,0,1.12.28,2.37.57,2.69.28.32,1.25.48,2.26.51,1.13.04,1.98,1,1.98,2.24,0,2.07,0,4.15,0,6.22,0,1.12-.85,2.02-1.98,1.98-.28,0-.57-.02-.85-.03-1.13-.04-1.98-1-1.98-2.12,0-1.7,0-3.4,0-5.1,0-1.12-.17-2.37-.45-2.69-.28-.32-1.42-.67-2.38-.69ZM267.64,91.26c1.13.05,1.98,1.02,1.98,2.26,0,2.07,0,4.15,0,6.22,0,1.12-.85,2.02-1.98,1.97-1.02-.04-1.98.23-2.26.53-.28.3-.57,1.35-.57,2.46,0,1.7,0,3.4,0,5.1,0,1.24-.85,2.14-1.87,2.1-.96-.04-2.09.04-2.38.34-.17.3-.45,1.54-.45,2.66,0,1.06-.85,1.96-1.81,1.92-1.02-.04-2.15.23-2.43.54-.28.18-.4,1.42-.4,2.47,0,1.12-.85,2.02-1.98,1.99-1.89-.06-3.77-.12-5.66-.18-1.02-.03-1.87-.99-1.87-2.11v-1.06c0-1.12.85-2.03,1.87-2,1.55.05,3.1.09,4.64.15,1.13.04,2.15-.24,2.43-.54.28-.11.57-1.35.57-2.47,0-1.06.85-1.96,1.81-1.93,1.02.04,1.98-.24,2.26-.54.28-.3.57-1.35.57-2.59v-5.16c0-1.06.85-1.96,1.87-1.92.96.04,2.09-.23,2.38-.4.28-.3.45-1.54.45-2.59,0-1.72,0-3.44,0-5.16,0-1.24.85-2.14,1.98-2.1.28.01.57.02.85.03Z"/>
      <path class="cls-1" d="M328.84,94.89c1.13.09,1.98,1.09,1.98,2.33,0,.31,0,.62,0,.93,0,1.24-.85,2.11-1.98,2.02-4.99-.39-9.99-.75-14.98-1.09-1.13-.08-1.98.8-1.98,1.92v11.32c0,1.24-.85,2.12-1.81,2.06-1.02-.07-2.15-.02-2.26.29-.28.29-.57,1.52-.56,2.64,0,1.06-.85,1.93-1.87,1.87-.96-.06-2.09.18-2.38.47-.28.17-.45,1.4-.45,2.46,0,1.12-.85,2-1.98,1.93-1.89-.11-3.77-.23-5.66-.33-.96-.06-1.81-1.04-1.81-2.16,0-.35,0-.7,0-1.06,0-1.12.85-2,1.81-1.95,1.56.09,3.13.18,4.69.28,1.13.07,2.09-.18,2.38-.48.28-.29.56-1.33.57-2.45,0-1.06.85-1.94,1.87-1.87.96.06,2.09-.18,2.26-.48.28-.29.57-1.33.57-2.57,0-3.42,0-6.84,0-10.26,0-1.12-.85-2.11-1.87-2.17-5.03-.32-10.07-.62-15.1-.89-1.02-.06-1.87-1.03-1.87-2.28,0-.31,0-.62,0-.93,0-1.24.85-2.13,1.87-2.08,5.03.28,10.07.57,15.1.89,1.02.06,1.87-.81,1.87-1.87,0-.37,0-.75,0-1.12,0-1.06-.85-2.04-1.87-2.11-3.49-.22-6.97-.43-10.46-.63-.96-.06-1.81-1.04-1.81-2.16,0-.35,0-.7,0-1.06,0-1.12.85-2,1.81-1.95,4.71.27,9.43.56,14.14.87,1.02.07,2.15-.17,2.43-.46.28-.29.4-1.34.4-2.46,0-1.24.85-1.93,1.98-1.86,1.88.13,3.77.26,5.65.4,1.02.07,1.87,1.07,1.87,2.12,0,.37,0,.75,0,1.12,0,1.06-.85,1.93-1.87,1.85-1.55-.11-3.09-.22-4.64-.33-1.13-.08-2.15.04-2.43.33-.28.29-.56,1.52-.57,2.57v5.16c0,1.06.85,2.05,1.98,2.12,4.99.34,9.99.71,14.98,1.09Z"/>
    </g>
    <g>
      <path class="cls-1" d="M164.07,166.31c-.94.05-1.73-.76-1.73-1.74,0-1.15-.26-2.17-.52-2.44-.26-.27-1.15-.5-2.2-.43-.94.06-1.73-.75-1.73-1.72,0-1.04-.11-2.01-.37-2.28-.26-.27-1.31-.48-2.25-.41-.89.07-1.67-.74-1.67-1.77,0-.33,0-.65,0-.98,0-1.04.79-1.96,1.67-2.03.94-.07,1.99-.43,2.25-.74.26-.31.37-1.29.37-2.33,0-1.15.78-2.07,1.73-2.13,1.05-.07,1.94-.24,2.2-.54.26-.3.52-1.47.52-2.51,0-.98.79-1.89,1.73-1.95.89-.05,1.83-.28,2.09-.58.26-.3.52-1.47.52-2.45,0-1.04.79-1.94,1.68-1.99,1.45-.07,2.9-.14,4.35-.2,1.05-.04,1.94-.37,2.2-.66.26-.3.52-1.29.52-2.32,0-1.15.79-1.87,1.73-1.9.3,0,.59-.02.89-.03.94-.03,1.73.81,1.73,1.79,0,.35,0,.69,0,1.04,0,.98-.79,1.86-1.73,1.89-.89.03-1.94.24-2.2.53-.26.3-.42,1.45-.42,2.43,0,1.04-.79,1.93-1.83,1.97-1.43.06-2.86.12-4.3.19-.94.05-1.99.39-2.1.68-.26.3-.52,1.29-.52,2.33,0,1.15-.79,1.88-1.73,1.94-.89.05-1.94.4-2.2.7-.26.3-.42,1.35-.42,2.5,0,.98-.79,1.89-1.68,1.95-1.05.07-1.99.3-2.25.61-.26.31-.52,1.19-.52,1.88,0,.86.26,1.71.52,1.98.26.15,1.2.38,2.25.31.89-.06,1.68.76,1.68,1.74,0,1.04.16,2.18.42,2.45.26.27,1.31.32,2.2.27,1.45-.08,2.9-.16,4.35-.23.89-.04,1.68.79,1.68,1.82,0,1.15.26,2.12.52,2.39.26.28,1.21.52,2.1.49,1.05-.04,1.83.79,1.83,1.77,0,1.04.16,2.18.42,2.29.26.28,1.31.53,2.2.5.94-.03,1.73.81,1.73,1.85,0,.33,0,.65,0,.98,0,1.04-.79,1.92-1.73,1.95-.3,0-.59.02-.89.03-.94.03-1.73-.8-1.73-1.84,0-.98-.26-2.12-.52-2.28-.26-.28-1.15-.53-2.2-.49-.94.04-1.73-.79-1.73-1.77,0-1.04-.1-2.18-.37-2.46-.26-.28-1.31-.34-2.25-.3-1.43.07-2.86.15-4.29.23Z"/>
      <path class="cls-1" d="M232.2,154.21c0-1.04.79-1.84,1.67-1.78.31.02.63.05.94.07.89.07,1.67.99,1.67,2.03,0,3.49,0,6.99,0,10.48,0,1.15-.79,1.95-1.67,1.89-.94-.07-1.99-.03-2.25.24-.26.27-.37,1.41-.37,2.45,0,.98-.79,1.79-1.73,1.72-.89-.06-1.94.16-2.2.43-.26.16-.42,1.3-.42,2.28,0,1.04-.79,1.85-1.83,1.79-3.18-.18-6.36-.34-9.54-.47-.94-.04-1.73-.93-1.73-1.97,0-.98-.26-2.14-.52-2.32-.26-.3-1.15-.62-2.2-.65-.94-.03-1.73-.92-1.73-1.89,0-1.04-.11-2.19-.37-2.49-.26-.3-1.31-.44-2.25-.46-.89-.02-1.68-.9-1.68-2.05v-15.26c0-1.15.79-2,1.68-1.98.94.02,1.99-.06,2.25-.35.26-.28.37-1.43.37-2.47,0-3.17,0-6.33,0-9.5,0-.98.79-1.82,1.83-1.79.26,0,.52.02.79.03,1.05.04,1.83.93,1.83,1.91,0,3.51,0,7.02,0,10.54,0,.98-.79,1.81-1.68,1.78-1.05-.04-1.99.22-2.25.5-.26.28-.52,1.42-.52,2.46,0,4.41,0,8.83,0,13.24,0,1.15.26,2.14.52,2.43.26.3,1.21.61,2.25.65.89.03,1.68.92,1.68,1.9,0,1.04.16,2.19.42,2.32.26.3,1.31.63,2.2.66,2.59.11,5.17.24,7.75.38,1.05.06,1.94-.17,2.2-.45.26-.1.52-1.23.52-2.27,0-.98.68-1.8,1.73-1.73.89.06,1.83-.17,2.09-.44.26-.27.52-1.23.52-2.38v-9.5ZM227.86,140.51c0,1.04-.79,1.85-1.83,1.79-.26-.02-.52-.03-.79-.05-1.05-.06-1.83-.96-1.83-2v-5.76c0-.98.79-1.8,1.83-1.74.26.01.52.03.79.05,1.05.06,1.83.97,1.83,1.95v5.76ZM234.82,133.38c.89.07,1.67.99,1.67,1.97,0,1.92,0,3.84,0,5.76,0,1.04-.79,1.84-1.67,1.77-.31-.02-.63-.05-.94-.07-.89-.06-1.67-.98-1.67-2.02v-5.76c0-.98.79-1.79,1.67-1.72.31.02.63.05.94.07Z"/>
    </g>
    <path class="cls-2" d="M271.39,471.7l-.27.17c-7.41,4.7-15.25,8.69-23.41,11.93l-.29.12c-5.53,2.19-11.2,4.04-16.96,5.51l-.31.08c-8.5,2.18-17.19,3.55-25.95,4.11l-.31.02c-5.94.38-11.9.38-17.84,0l-.31-.02c-8.76-.56-17.44-1.93-25.95-4.11l-.31-.08c-5.77-1.48-11.43-3.32-16.96-5.51l-.29-.12c-8.16-3.24-15.99-7.23-23.41-11.93l-.27-.17c-5.03-3.19-9.85-6.69-14.43-10.48l-.24-.2c-6.76-5.6-12.98-11.82-18.58-18.58l-.2-.24c-3.8-4.58-7.3-9.4-10.48-14.43l-.17-.27c-4.7-7.41-8.69-15.25-11.93-23.41l-.12-.29c-2.19-5.53-4.04-11.2-5.51-16.96l-.08-.31c-2.18-8.5-3.55-17.19-4.11-25.95l-.02-.31c-.38-5.94-.38-11.9,0-17.84l.02-.31c.56-8.76,1.93-17.44,4.11-25.95l.08-.31c1.48-5.77,3.32-11.43,5.51-16.96l.12-.29c3.24-8.16,7.23-15.99,11.93-23.41l.17-.27c3.19-5.03,6.69-9.85,10.48-14.43l.2-.24c5.6-6.76,11.82-12.98,18.58-18.58l.24-.2c4.58-3.8,9.4-7.3,14.43-10.48l.27-.17c7.41-4.7,15.25-8.69,23.41-11.93l.29-.12c5.53-2.19,11.2-4.04,16.96-5.51l.31-.08c8.5-2.18,17.19-3.55,25.95-4.11l.31-.02c5.94-.38,11.9-.38,17.84,0l.31.02c8.76.56,17.44,1.93,25.95,4.11l.31.08c5.77,1.48,11.43,3.32,16.96,5.51l.29.12c8.16,3.24,15.99,7.23,23.41,11.93l.27.17c5.03,3.19,9.85,6.69,14.43,10.48l.24.2c6.76,5.6,12.98,11.82,18.58,18.58l.2.24c3.8,4.58,7.3,9.4,10.48,14.43l.17.27c4.7,7.41,8.69,15.25,11.93,23.41l.12.29c2.19,5.53,4.04,11.2,5.51,16.96l.08.31c2.18,8.5,3.55,17.19,4.11,25.95l.02.31c.38,5.94.38,11.9,0,17.84l-.02.31c-.56,8.76-1.93,17.44-4.11,25.95l-.08.31c-1.48,5.77-3.32,11.43-5.51,16.96l-.12.29c-3.24,8.16-7.23,15.99-11.93,23.41l-.17.27c-3.19,5.03-6.69,9.85-10.48,14.43l-.2.24c-5.6,6.76-11.82,12.98-18.58,18.58l-.24.2c-4.58,3.8-9.4,7.3-14.43,10.48Z"/>
    <text class="cls-5" transform="translate(128.59 367.13) scale(.91 1)"><tspan x="0" y="0">はずれ</tspan></text>
  </g>
</svg>