<?xml version="1.0" encoding="UTF-8"?>
<svg id="_レイヤー_2" data-name="レイヤー 2" xmlns="http://www.w3.org/2000/svg" viewBox="0 0 273.08 255.41">
  <defs>
    <style>
      .cls-1 {
        fill: #211815;
      }

      .cls-1, .cls-2 {
        stroke-width: 0px;
      }

      .cls-2 {
        fill: #fff;
      }
    </style>
  </defs>
  <g id="_レイヤー_1-2" data-name="レイヤー 1">
    <g>
      <path class="cls-2" d="M79.74,255.41c-2.4,0-4.68-.11-6.87-.32-25.54-2.49-35.42-19.47-38.49-26.65-3.59-8.41-9.46-30.38,13.45-52.79,5.2-5.09,12.08-10.54,21.63-17.17.18-.12.35-.24.53-.36-8.51,1.43-15.23,2.16-20.94,2.3-6.05.14-11.38-.4-16.29-1.64-14.23-3.62-25.22-13.28-30.15-26.52-5.5-14.77-2.24-31.22,8.7-44,3.53-4.12,7.88-8.02,13.7-12.25,7.61-5.54,18.28-12.03,32.62-19.84,24.64-13.41,59.78-30.58,107.43-52.49,20.07-9.23,43.82-.44,53.05,19.63,3.61,7.86,4.46,16.28,2.96,24.17.12,0,.25,0,.37,0,31.93.61,43.96,18.38,48.28,28.92,4.31,10.49,8.24,31.48-13.77,54.15-2.36,2.43-5.04,4.92-8.09,7.53,10.18,4.37,18.5,12.92,22.23,24.27,6.9,20.99-4.51,43.59-25.5,50.5-44.38,14.6-79.05,25.11-105.98,32.13-18.67,4.87-33.21,7.94-44.46,9.4-5.4.7-10.12,1.04-14.42,1.04Z"/>
      <path class="cls-1" d="M157.37,107.25v9.06c0,1.81-1.24,3.17-2.72,3.17-1.4,0-3.05.27-3.46.73-.41.45-.66,2.26-.66,3.8,0,1.63-1.24,2.99-2.64,2.99-1.48,0-3.13.45-3.54.91-.41.45-.58,1.99-.58,3.62v7.43c0,1.81-1.24,3.17-2.89,3.17h-1.24c-1.65,0-2.89-1.36-2.89-3.17v-9.06c0-1.54,1.24-2.9,2.64-2.9,1.65,0,3.13-.45,3.55-.72.41-.45.83-2.27.83-3.81,0-1.63,1.24-2.99,2.64-2.99,1.48,0,2.89-.45,3.3-.91.41-.45.82-1.99.82-3.8v-5.71c0-1.81-.41-3.35-.82-3.8s-1.81-.91-3.3-.91h-12.37c-1.4,0-3.05.45-3.3.91-.41.45-.82,1.99-.82,3.8v7.25c0,1.81-1.24,3.17-2.64,3.17h-1.48c-1.4,0-2.64-1.36-2.64-3.17v-9.06c0-1.54,1.24-2.9,2.64-2.9,1.48,0,3.13-.27,3.3-.72.41-.45.82-2.27.82-3.81,0-1.63,1.24-2.99,2.72-2.99h15.25c1.4,0,2.64,1.36,2.64,2.99,0,1.54.25,3.35.66,3.81.41.45,2.06.72,3.46.72,1.48,0,2.72,1.36,2.72,2.9ZM136.76,152.55c0-1.63,1.24-2.99,2.89-2.99h1.24c1.65,0,2.89,1.36,2.89,2.99v1.54c0,1.63-1.24,2.99-2.89,2.99h-1.24c-1.65,0-2.89-1.36-2.89-2.99v-1.54Z"/>
    </g>
  </g>
</svg>