<?xml version="1.0" encoding="UTF-8"?>
<svg id="_レイヤー_2" data-name="レイヤー 2" xmlns="http://www.w3.org/2000/svg" xmlns:xlink="http://www.w3.org/1999/xlink" viewBox="0 0 343.84 343.84">
  <defs>
    <style>
      .cls-1 {
        fill: url(#_名称未設定グラデーション_11);
        stroke-width: 0px;
      }
    </style>
    <linearGradient id="_名称未設定グラデーション_11" data-name="名称未設定グラデーション 11" x1="12" y1="171.92" x2="328.61" y2="171.92" gradientUnits="userSpaceOnUse">
      <stop offset=".03" stop-color="#d1d1d2"/>
      <stop offset=".18" stop-color="#e4e4e4"/>
      <stop offset=".32" stop-color="#fafafa"/>
      <stop offset=".85" stop-color="#aaaaab"/>
      <stop offset="1" stop-color="#949495"/>
    </linearGradient>
  </defs>
  <g id="_レイヤー_1-2" data-name="レイヤー 1">
    <path class="cls-1" d="M312.05,205.37l31.79-20.14-28.31-24.8,24.01-28.98-33.61-14.41c3.4,11.33,4.17,30.01-15.24,49.99-2.36,2.43-5.04,4.92-8.09,7.53,10.18,4.37,18.5,12.92,22.23,24.27,6.9,20.99-4.51,43.59-25.5,50.5-44.38,14.6-79.05,25.11-105.98,32.13-18.67,4.87-33.21,7.94-44.46,9.4-5.4.7-10.12,1.04-14.42,1.04-2.4,0-4.68-.11-6.87-.32-25.54-2.49-35.42-19.47-38.49-26.65-3.59-8.41-9.46-30.38,13.45-52.79,5.2-5.09,12.08-10.54,21.63-17.17.18-.12.35-.24.53-.36-8.51,1.43-15.23,2.16-20.94,2.3-6.05.14-11.38-.4-16.29-1.64-14.23-3.62-25.22-13.28-30.15-26.52-5.5-14.77-2.24-31.22,8.7-44,3.53-4.12,7.88-8.02,13.7-12.25,7.61-5.54,18.28-12.03,32.62-19.84,24.64-13.41,59.78-30.58,107.43-52.49,20.07-9.23,43.82-.44,53.05,19.63,3.61,7.86,4.46,16.28,2.96,24.17.12,0,.25,0,.37,0,31.93.61,43.96,18.38,48.28,28.92.33.79.65,1.65.96,2.56l13.41-33.8-37.48-3.42,2.39-37.56-36.7,8.33-9.33-36.46-32.33,19.26L185.23,0l-24.8,28.31-28.98-24.01-14.83,34.59-34.98-13.88-3.42,37.48-37.56-2.39,8.33,36.7-36.46,9.33,19.26,32.33L0,158.61l28.31,24.8-24.01,28.98,34.59,14.83-13.88,34.98,37.48,3.42-2.39,37.56,36.7-8.33,9.33,36.46,32.33-19.26,20.14,31.79,24.8-28.31,28.98,24.01,14.83-34.59,34.98,13.88,3.42-37.48,37.56,2.39-8.33-36.7,36.46-9.33-19.26-32.33Z"/>
  </g>
</svg>