<?xml version="1.0" encoding="UTF-8"?>
<svg id="_レイヤー_2" data-name="レイヤー 2" xmlns="http://www.w3.org/2000/svg" viewBox="0 0 579.67 644.22">
  <defs>
    <style>
      .cls-1 {
        fill: #030303;
      }

      .cls-1, .cls-2, .cls-3, .cls-4, .cls-5, .cls-6 {
        stroke-width: 0px;
      }

      .cls-2 {
        fill: #4f4f4f;
      }

      .cls-3 {
        fill: #020202;
      }

      .cls-4 {
        fill: #000;
      }

      .cls-5 {
        fill: #040404;
      }

      .cls-6 {
        fill: #4e4e4e;
      }
    </style>
  </defs>
  <g id="Layer_1" data-name="Layer 1">
    <path class="cls-6" d="M482.41,425.84c-.4-.4-.91-.73-1.17-1.21-.73-1.36-1.93-2.78-1.93-4.18-.13-26.93-8.01-51.75-20.39-75.32-11.88-22.62-27.86-42.07-46.67-59.27-.42-.38-.92-.68-1.6-.95-2.26-1.94-4.2-4.07-6.35-5.95-10.34-9.01-21.64-16.66-33.72-23.13-19.83-10.61-40.84-18.16-62.52-23.95-15.52-4.14-31.25-7.36-47.1-9.96-2.8-.46-5.66-.61-8.48-.9-2.33-.5-4.64-1.12-6.99-1.47-8.5-1.26-17.12-1.95-25.51-3.73-15.76-3.35-27.28-12.89-35.66-26.36-5.66-9.09-8.4-18.96-8-29.81.41-11.05-2.03-21.8-4.57-32.49-.31-1.3-.73-2.58-1.18-4.11-1.29-4.68-2.55-9.11-3.68-13.58-.87-3.43-3.24-6.73-.84-10.5-2.84.29-5.21-.09-6.75-2.53-1.54-2.45-.84-4.63.47-7.01,1.16-2.11,1.93-4.48,2.52-6.83,2.88-11.49,3.77-23.26,4.17-35.03.28-8.14-.01-16.3-.36-24.44-.15-3.66-1.06-7.28-1.71-11.46-2.37,1.3-4.3,2.08-5.89,3.29-5.51,4.18-11.24,8.16-16.28,12.87-8.43,7.88-16.46,16.19-24.5,24.48-1.99,2.06-3.68,4.24-7.44,4.09.95.62,1.36.89,1.78,1.15,2.64,1.67,3.52,5.18,1.98,7.93-1.69,3.03-4.73,3.85-7.83,2.43-5.47-2.51-10.92-5.15-16.57-7.17-19.59-7.01-39.85-9.99-60.63-9.3-6.13.2-12.26.86-18.37,1.48C7.06,53.29,3.54,53.98,0,54.52v-11.77c7.37-1.18,14.71-2.63,22.12-3.09,27.11-1.7,53.36,2.39,78.6,12.56,1.95.79,3.87,1.65,6.02,2.57-.03-.5.05-.84-.08-1.05-1.84-3-1.14-5.67,1.12-8.05,6.2-6.52,12.31-13.12,18.69-19.45,7.53-7.48,15.44-14.57,24.48-20.19,3.61-2.24,7.56-4.14,11.59-5.43,5.46-1.75,9.3.33,11.75,5.53,2.29,4.85,2.96,10.1,3.33,15.34,1.45,20.6.53,41.07-3.74,61.33-1.02,4.84-2.41,9.57-5.2,14.01.54-.04.88-.04,1.21-.09,2.98-.39,5.54,1.09,6.46,3.97,3.94,12.35,7.27,24.86,9.5,37.64,1.45,8.31,1.95,16.67,1.97,25.11.03,9.85,4.28,18.27,10.4,25.73,7.6,9.26,17.4,14.33,29.39,15.77,34.24,4.11,68.2,9.73,101.14,20.35,25.11,8.09,49.09,18.58,70.38,34.39,29.67,22.04,54.25,48.64,71.56,81.56.14.27.32.53.68,1.13,1.36-5.52,2.72-10.67,3.91-15.87,4.12-18.13,8.54-36.2,12.13-54.44,2.4-12.19,3.92-24.59,5.26-36.95,2.64-24.24,2.38-48.62,2.86-72.96.23-11.56.69-23.12,2.99-34.5,1.55-7.67,3.91-15.02,8.83-21.3,5.48-7.01,12.91-10.61,21.47-12.05,17.76-2.99,37.99,9.64,43.22,26.83.85,2.78.52,5.18-1.88,7.37-3.74,2.27-7.84.93-9.07-2.99-1.69-5.41-4.85-9.7-9.19-13.21-5.14-4.16-10.98-6.94-17.61-6.76-8.86.25-15.89,4.08-20.07,12.31-3.23,6.35-4.55,13.22-5.2,20.17-.8,8.61-1.22,17.26-1.54,25.9-.33,8.66-.28,17.33-.49,26-.16,6.35-.33,12.7-.73,19.03-.68,10.74-1.39,21.48-2.36,32.19-.68,7.45-1.53,14.91-2.83,22.28-2.01,11.34-4.24,22.65-6.82,33.87-4.29,18.65-8.82,37.25-13.51,55.81-1.09,4.31-1.23,8.1.44,12.38,4.41,11.24,7.23,22.97,8.74,34.96.74,5.84,1,11.75,1.18,17.63.14,4.72-1.87,7.29-5.65,7.86-.98.15-2.01-.06-3.02-.1M110.12,56.26c-.11-.02-.21-.04-.32-.06.07.06.14.11.32.06Z"/>
    <path class="cls-4" d="M0,54.7c3.54-.72,7.06-1.41,10.62-1.77,6.11-.62,12.24-1.28,18.37-1.48,20.77-.69,41.04,2.29,60.63,9.3,5.66,2.02,11.1,4.67,16.57,7.17,3.09,1.42,6.14.6,7.83-2.43,1.54-2.76.66-6.26-1.98-7.93-.41-.26-.82-.53-1.78-1.15,3.77.15,5.45-2.03,7.44-4.09,8.04-8.29,16.07-16.6,24.5-24.48,5.04-4.71,10.77-8.69,16.28-12.87,1.6-1.21,3.53-1.99,5.89-3.29.65,4.18,1.56,7.8,1.71,11.46.34,8.14.64,16.31.36,24.44-.41,11.77-1.29,23.54-4.17,35.03-.59,2.35-1.36,4.72-2.52,6.83-1.31,2.38-2.01,4.57-.47,7.01,1.54,2.44,3.91,2.82,6.75,2.53-2.4,3.78-.03,7.08.84,10.5,1.13,4.46,2.39,8.9,3.56,13.5-11.51-1.09-23.02-2.07-34.44-3.67-10.74-1.5-21.31-4.03-30.88-9.42-7.03-3.96-13.91-8.18-20.74-12.47-10.47-6.58-20.82-13.35-31.27-19.96-2.05-1.29-4.33-2.21-6.47-3.35-6.97-3.73-14.01-3.77-21.32-.92-8.82,3.44-16.95,8.14-25.18,12.94C0,75.72,0,65.3,0,54.7Z"/>
    <path class="cls-6" d="M0,624.15c3.87.65,7.71,1.75,11.63,2.27,10.51,1.41,20.91,1.01,30.82-3.25,2.63-1.13,5.04-2.77,7.56-4.19,0-1.17-.15-2.27.03-3.31.48-2.74,2.61-4.67,5.2-4.9,2.67-.24,5.45,1.3,6.03,4.07,1.6,7.68,7.26,10.98,13.82,13.32,7.81,2.78,15.98,3.72,24.21,4.04,9.18.36,18.38.6,27.49-.93,11.41-1.91,18.41-11.77,16.87-23.26-.93-6.94-3.08-13.51-5.86-19.86-1.82-4.16-2.24-8.37-1.89-12.78,1.34-16.95,5.02-33.48,8.9-49.97,3.04-12.91,6.54-25.71,9.83-38.57.67-2.61,2-4.62,4.84-5.12,4.69-.82,7.97,3.12,6.61,7.85-1.7,5.91-3.47,11.81-5,17.76-5.14,20.01-9.65,40.15-12.91,60.56-.36,2.28-.55,4.59-.86,6.88-.48,3.47.43,6.62,1.58,9.89,2.22,6.33,4.52,12.72,5.81,19.28,3.53,17.92-5.28,30.58-18.43,36.83-4.77,2.26-9.96,3.02-15.17,3.17-11.62.33-23.29.74-34.81-1.16-5.79-.95-11.53-2.48-17.11-4.29-5.36-1.73-10.05-4.82-13.85-9.12-9.8,6.93-20.82,9.72-32.55,9.66-7.56-.04-15.13-.65-22.63-2.72C0,632.31,0,628.32,0,624.15Z"/>
    <path class="cls-1" d="M0,214.7c1.16-.44,2.36-1.05,3.47-.9,3.06.41,5.55-.61,7.82-2.47,5.78-4.72,10.48-10.36,14.21-16.82,1.38-2.39,2.79-4.75,4.13-7.16,1.47-2.65,3.82-3.71,6.69-3.7,2.86,0,5.17,1.06,6.71,3.67,3.98,6.73,7.86,13.52,13.14,19.39,3.83,4.25,8.18,7.09,14.11,7.12,2.33.01,4.06,1.99,3.99,4.11-.07,2.22-1.96,3.98-4.41,3.87-6.07-.25-11.6-2-16.17-6.2-5.49-5.04-9.75-11.04-13.53-17.42-1.24-2.09-2.45-4.2-3.82-6.55-.48.83-.91,1.51-1.27,2.21-4.79,9.35-10.81,17.72-19.17,24.27-3.76,2.94-7.83,4.63-12.65,3.75-1.03-.19-1.98-.81-3.11-1.23C0,218.75,0,216.82,0,214.7Z"/>
    <path class="cls-5" d="M0,153.02c1.78.65,3.69,1.3,5.32,2.37,2.4,1.57,2.91,4.26,1.5,6.33-1.51,2.21-3.94,2.52-6.68.79C0,159.38,0,156.29,0,153.02Z"/>
    <path class="cls-4" d="M252.32,221.04c2.97.27,5.83.42,8.63.88,15.85,2.6,31.58,5.82,47.1,9.96,21.68,5.78,42.69,13.34,62.52,23.95,12.08,6.47,23.38,14.12,33.72,23.13,2.16,1.88,4.09,4.01,6.23,6.08,9.76,13.51,16.4,28.23,18.1,44.83,1.91,18.57-3.22,35.24-14.87,49.73-13.14,16.34-30.06,26.77-50.78,30.57-7.92,1.45-15.86,1.34-23.42-2.09-4.67-2.12-8.18-5.44-10.38-10.12-.65-1.39-1.35-2.76-2.13-4.09-4.48-7.61-10.86-10.82-19.56-9.48-6.58,1.01-13.12,2.34-19.65,3.69-20.28,4.21-36.79-2.36-50.57-17.27-14.84-16.05-23.14-35.05-25.68-56.62-2.69-22.85.45-44.87,9.71-66,6.09-13.89,16.6-22.63,31.02-27.16Z"/>
    <path class="cls-4" d="M482.4,426.01c1.02-.13,2.06.07,3.04-.07,3.78-.56,5.79-3.13,5.65-7.86-.18-5.89-.45-11.8-1.18-17.63-1.51-11.98-4.33-23.71-8.74-34.96-1.68-4.27-1.53-8.07-.44-12.38,4.68-18.56,9.22-37.16,13.51-55.81,2.58-11.22,4.81-22.53,6.82-33.87,1.31-7.36,2.15-14.82,2.83-22.28.98-10.71,1.69-21.45,2.36-32.19.4-6.33.58-12.69.73-19.03.21-8.66.17-17.34.49-26,.32-8.64.74-17.29,1.54-25.9.65-6.95,1.97-13.82,5.2-20.17,4.18-8.23,11.21-12.06,20.07-12.31,6.62-.19,12.47,2.59,17.61,6.76,4.34,3.52,7.5,7.8,9.19,13.21,1.23,3.93,5.32,5.26,8.99,3.1.93,2.78,1.74,5.62,2.43,8.59-3.98.43-6.41,3.61-5.9,7.4.45,3.42.94,6.89.86,10.33-.19,9.1-.77,18.19-1.01,27.28-.35,13.28-.5,26.56-.82,39.84-.14,5.96-.41,11.92-.75,17.87-.59,10.23-1.21,20.46-1.96,30.69-.55,7.53-1.14,15.07-2.03,22.57-1.21,10.16-2.42,20.34-4.19,30.41-2.5,14.23-5.15,28.46-8.4,42.54-5.51,23.87-12.99,47.18-21.58,70.13-9.71,25.92-20.66,51.28-33.73,75.7-1.06,1.98-2.23,3.91-3.35,5.86-.34-.87-.41-1.57-.33-2.26,1.58-12.74,2.33-25.54,2.2-38.36-.12-11.6-.87-23.2-1-34.8-.05-4.51-3.82-7.94-8.09-6.6-.01-3.21-.02-6.42-.02-9.81Z"/>
    <path class="cls-4" d="M379.41,577.35c-8,5.43-16.45,9.42-25.99,10.77-10.55,1.49-20.54-.59-30.18-4.82-11.49-5.03-21.57-12.3-31.49-19.83-8.44-6.41-16.13-13.53-22.01-22.44-10.95-16.62-16.15-34.79-14.42-54.71,1.6-18.38,9.99-33.29,23.91-45.21,10.53-9.02,22.24-15.85,35.92-18.74,18.74-3.97,35.26.69,48.83,14.11,18.56,18.35,32.55,39.72,40.24,64.87,3.33,10.9,4.81,22.04,3.4,33.46-1.85,15-8.73,27.18-20.43,36.66-2.49,2.02-5.11,3.88-7.79,5.89Z"/>
    <path class="cls-6" d="M482.29,435.89c4.39-1.4,8.17,2.03,8.22,6.54.13,11.6.88,23.2,1,34.8.13,12.82-.62,25.62-2.2,38.36-.08.68-.01,1.39.33,2.26,1.12-1.95,2.29-3.88,3.35-5.86,13.06-24.42,24.02-49.78,33.73-75.7,8.59-22.95,16.07-46.25,21.58-70.13,3.25-14.08,5.9-28.31,8.4-42.54,1.77-10.07,2.98-20.25,4.19-30.41.89-7.5,1.48-15.04,2.03-22.57.75-10.22,1.37-20.45,1.96-30.69.34-5.95.61-11.91.75-17.87.32-13.28.47-26.56.82-39.84.24-9.1.82-18.19,1.01-27.28.07-3.44-.41-6.9-.86-10.33-.5-3.79,1.92-6.97,5.96-7.25,3.16.27,5.28,2.34,5.76,5.4,1.27,8.1,1.78,16.28.97,24.4-1.21,12.11-.79,24.26-1.34,36.38-.98,21.62-1.81,43.25-3.09,64.85-1.21,20.32-3.76,40.52-7.04,60.61-5.35,32.79-13.8,64.81-24.7,96.17-10.45,30.07-22.61,59.42-37.32,87.67-6.38,12.25-13.31,24.17-22.1,34.92-.39.48-.69,1.1-.84,1.7-6.04,23.55-20.59,40.61-40.57,53.64-17.33,11.31-36.16,19.29-55.83,25.42-13.12,4.09-26.45,7.36-40.16,8.76-6.07.62-12.17.85-18.26,1.29-11.59.83-23.18,1.69-34.78,2.53-.45.03-.9.09-1.35.1-12.39.24-24.79.62-37.18.67-8.54.03-17.06-.47-25.5-2.02-7.7-1.41-13.74-5.25-18.07-11.68-6.36-9.46-9.29-19.78-7.23-31.22.13-.74.35-1.46.57-2.34-3.34-.49-6.55-.98-9.77-1.44-10.47-1.48-19.63-6.14-28.36-11.8-2.59-1.68-3.08-4.95-1.44-7.89,1.36-2.42,4.28-3.34,7.02-2.06,1.56.73,3.04,1.65,4.52,2.56,9.58,5.93,20.16,8.31,31.25,9.17,4.27.33,7.95-.34,11.82-2.46,9.2-5.03,19.39-7.33,29.64-9.13,5.18-.91,10.41-1.52,15.62-2.23.95-.13,1.92-.17,2.88-.16,3.11.03,5.56,2.31,5.77,5.33.22,3.15-1.7,5.49-4.97,5.98-6.72,1.01-13.49,1.79-20.16,3.05-7.95,1.49-15.72,3.69-23.05,7.24-.98.47-1.95.98-2.89,1.53-6.4,3.77-8.09,7-6.91,14.31.54,3.32,1.51,6.62,2.73,9.76,3.05,7.89,8.94,11.85,17.42,12.69,12.51,1.24,25.01,1.12,37.54.91,5.52-.09,11.06.09,16.57-.21,10.32-.56,20.63-1.39,30.94-2.1,7.49-.52,15-.97,22.48-1.58,11.88-.96,23.42-3.75,34.8-7.14,20.18-6.01,39.52-13.96,57.26-25.48,8.72-5.66,16.71-12.18,23.23-20.36,7.45-9.34,11.3-20.32,14.19-31.7,3.21-12.66,4.86-25.57,5.86-38.58,1.29-16.74,1.38-33.5.69-50.27-.14-3.34-.34-6.67-.59-10-.22-2.99.75-5.28,3.68-6.67Z"/>
    <path class="cls-6" d="M53.81,591.01c2.37-14.16,2.92-28.25,2.04-42.39-.74-11.79-2.11-23.5-5.77-34.83-1.04-3.22.46-6.29,3.45-7.36,3.17-1.13,6.49.11,7.49,3.43,1.75,5.81,3.43,11.69,4.46,17.66,2.76,16.09,3.03,32.33,1.87,48.57-.47,6.57-1.56,13.11-2.66,19.62-.74,4.33-3.55,5.93-7.53,4.83-2.65-.73-4.24-2.94-4.03-5.78.09-1.21.42-2.39.69-3.75Z"/>
    <path class="cls-2" d="M48.66,480.08c-19.07-8.13-32.37-22.02-41.49-40.21-1.76-3.5-.87-6.87,2.22-8.4,3.35-1.65,6.54-.31,8.32,3.33,8.8,18.03,22.67,30.39,41.68,36.77,5.01,1.69,10.27,2.68,15.45,3.83,3.42.76,5.74,3.63,5.24,6.92-.46,3.06-2.81,5.18-6.2,4.68-5.18-.75-10.33-1.86-15.4-3.2-3.32-.88-6.47-2.43-9.83-3.74Z"/>
    <path class="cls-3" d="M35.52,163.26c2.93.24,5.67.43,8.4.77.93.11,1.86.5,2.72.91,3.9,1.82,4.22,3.91.74,6.36-2.45,1.72-5.12,3.17-7.82,4.48-2.18,1.06-4.5.79-6.69-.51-.18,1.29-.22,2.44-.52,3.52-1.1,3.94-3.2,6.92-7.52,7.86-8.5,1.85-15.94.31-21.72-6.62-1.33-1.6-2.92-3.34-2.04-5.67.92-2.42,3.36-2.55,5.48-2.89,1.32-.21,2.73-.31,4.03-.05,4.74.92,9.14-.59,13.87-1.66-1.29-1.51-.36-2.47.76-3.35,2.97-2.32,6.48-2.94,10.3-3.15Z"/>
    <path class="cls-5" d="M95.33,158.41c-7.8-.76-15.11.7-22.26,3.22-.83.29-1.56.85-2.33,1.31-1.9,1.16-4.14.88-5.6-.73-1.46-1.61-1.61-3.94-.15-5.62.78-.89,1.78-1.75,2.86-2.19,10.53-4.3,21.34-6.46,32.69-3.89,1.05.24,2.11.58,3.09,1.04,2.26,1.06,3.21,3.45,2.32,5.62-.85,2.07-3.15,3.12-5.43,2.52-1.67-.44-3.35-.83-5.19-1.28Z"/>
    <path class="cls-5" d="M51.9,152.98c1.82,1.72,3.67,3.23,5.21,5.01,1.59,1.85,1.34,3.6-.3,4.86-1.57,1.2-2.99.88-4.61-1.03-5.93-7.02-15.47-9.46-23.24-5.95-2.92,1.32-5.36,3.25-7.26,5.83-1.33,1.81-3.17,2.26-4.59,1.12-1.55-1.24-1.66-3.16-.28-4.93,8.4-10.83,22.86-12.9,35.08-4.92Z"/>
    <path class="cls-4" d="M110.06,56.32c-.13,0-.2-.06-.26-.12.11.02.21.04.26.12Z"/>
  </g>
</svg>