<?xml version="1.0" encoding="UTF-8"?>
<svg id="_レイヤー_2" data-name="レイヤー 2" xmlns="http://www.w3.org/2000/svg" viewBox="0 0 595.28 58.12">
  <defs>
    <style>
      .cls-1 {
        fill: #61302c;
        stroke-width: 0px;
      }
    </style>
  </defs>
  <g id="_レイヤー_1-2" data-name="レイヤー 1">
    <path class="cls-1" d="M0,.26c14.82,28.84,28.04,35.68,37.7,36.21C61.86,37.8,75.18-.09,99.37,3.95c16.21,2.71,18.64,20.6,36.31,21.12,15.78.46,20.4-13.8,33.27-11.8,17.84,2.78,19.64,31.87,33.22,32.55,15.88.8,23.35-38.62,42.23-38.49,12.15.08,15.21,16.23,28.46,16.26,15.98.04,20.41-23.42,34.56-23.34,17.16.1,22.57,34.66,40.59,34.91,13.34.18,17.88-18.65,32.6-17.68,12.13.8,13.96,13.93,25.43,14.66,15.93,1.02,21.2-22.38,36.24-23.47,22.24-1.62,31.29,48.75,54.03,49.43,25.71.76,45.12-62.69,63.91-57.85,7.52,1.94,9.36,13.38,18.03,13.61,6.96.19,12.91-6.99,17.05-13.61H0Z"/>
  </g>
</svg>